<svg id="Layer_1" data-name="Layer 1" xmlns="http://www.w3.org/2000/svg" xmlns:xlink="http://www.w3.org/1999/xlink" viewBox="0 0 499.27 413.18"><defs><style>.cls-1,.cls-3,.cls-6,.cls-9{fill:none;}.cls-2{clip-path:url(#clip-path);}.cls-3,.cls-6,.cls-7,.cls-9{stroke:#82d7c6;stroke-linecap:round;stroke-linejoin:round;}.cls-4{clip-path:url(#clip-path-2);}.cls-5{clip-path:url(#clip-path-3);}.cls-6,.cls-7{stroke-width:3px;}.cls-7{fill:#007188;}.cls-8{clip-path:url(#clip-path-4);}.cls-9{stroke-width:2px;}.cls-10{fill:#82d7c6;}</style><clipPath id="clip-path"><circle class="cls-1" cx="-181.8" cy="-181.8" r="159.3"/></clipPath><clipPath id="clip-path-2"><circle class="cls-1" cx="337.47" cy="-181.8" r="159.3"/></clipPath><clipPath id="clip-path-3"><circle class="cls-1" cx="-181.8" cy="251.37" r="159.3"/></clipPath><clipPath id="clip-path-4"><circle class="cls-1" cx="337.47" cy="251.37" r="159.3"/></clipPath></defs><g class="cls-2"><path class="cls-3" d="M55.67-148.63a10.34,10.34,0,0,0-5.33,1.78,6.26,6.26,0,0,1-6.85,0h0a11.28,11.28,0,0,0-12.35,0,6.24,6.24,0,0,1-6.84,0h0a11.29,11.29,0,0,0-12.35,0h0a6.26,6.26,0,0,1-6.85,0,11.28,11.28,0,0,0-12.35,0h0a6.24,6.24,0,0,1-6.84,0,11.31,11.31,0,0,0-12.36,0,6.24,6.24,0,0,1-6.84,0,11.26,11.26,0,0,0-12.35,0h0a6.28,6.28,0,0,1-6.85,0,11.29,11.29,0,0,0-12.35,0,6.24,6.24,0,0,1-6.84,0,11.26,11.26,0,0,0-12.35,0,6.28,6.28,0,0,1-6.85,0,11.29,11.29,0,0,0-12.35,0,6.24,6.24,0,0,1-6.84,0,11.26,11.26,0,0,0-12.35,0,6.26,6.26,0,0,1-6.85,0,11.29,11.29,0,0,0-12.35,0,6.24,6.24,0,0,1-6.84,0,11.28,11.28,0,0,0-12.35,0,6.26,6.26,0,0,1-6.85,0,11.29,11.29,0,0,0-12.35,0,6.24,6.24,0,0,1-6.84,0,11.28,11.28,0,0,0-12.35,0,6.26,6.26,0,0,1-6.85,0,11.28,11.28,0,0,0-12.35,0h0a6.24,6.24,0,0,1-6.84,0,11.31,11.31,0,0,0-12.36,0,6.24,6.24,0,0,1-6.84,0h0a11.28,11.28,0,0,0-12.35,0,6.26,6.26,0,0,1-6.85,0h0a11.29,11.29,0,0,0-12.35,0,6.24,6.24,0,0,1-6.84,0,11.28,11.28,0,0,0-12.35,0h0a6.26,6.26,0,0,1-6.85,0,11.29,11.29,0,0,0-12.35,0,6.24,6.24,0,0,1-6.84,0,11.28,11.28,0,0,0-12.35,0,6.26,6.26,0,0,1-6.85,0,11.29,11.29,0,0,0-12.35,0,6.24,6.24,0,0,1-6.84,0,11.47,11.47,0,0,0-9.55-1.41V180.53H55.67Z"/></g><g class="cls-4"><path class="cls-3" d="M525.46-222.31a8.52,8.52,0,0,0-4.39,1.47,5.15,5.15,0,0,1-5.64,0h0a9.29,9.29,0,0,0-10.16,0,5.15,5.15,0,0,1-5.64,0h0a9.27,9.27,0,0,0-10.16,0h0a5.14,5.14,0,0,1-5.63,0,9.29,9.29,0,0,0-10.17,0h0a5.16,5.16,0,0,1-5.63,0,9.29,9.29,0,0,0-10.17,0,5.14,5.14,0,0,1-5.63,0,9.27,9.27,0,0,0-10.16,0h0a5.15,5.15,0,0,1-5.64,0,9.27,9.27,0,0,0-10.16,0,5.17,5.17,0,0,1-5.64,0,9.27,9.27,0,0,0-10.16,0,5.14,5.14,0,0,1-5.63,0,9.29,9.29,0,0,0-10.17,0,5.14,5.14,0,0,1-5.63,0,9.29,9.29,0,0,0-10.17,0,5.14,5.14,0,0,1-5.63,0,9.29,9.29,0,0,0-10.17,0,5.14,5.14,0,0,1-5.63,0,9.27,9.27,0,0,0-10.16,0,5.17,5.17,0,0,1-5.64,0,9.27,9.27,0,0,0-10.16,0,5.15,5.15,0,0,1-5.64,0,9.27,9.27,0,0,0-10.16,0,5.14,5.14,0,0,1-5.63,0,9.31,9.31,0,0,0-10.17,0h0a5.14,5.14,0,0,1-5.63,0,9.29,9.29,0,0,0-10.17,0,5.14,5.14,0,0,1-5.63,0h0a9.29,9.29,0,0,0-10.17,0,5.16,5.16,0,0,1-5.63,0h0a9.27,9.27,0,0,0-10.16,0,5.15,5.15,0,0,1-5.64,0,9.27,9.27,0,0,0-10.16,0h0a5.15,5.15,0,0,1-5.64,0,9.29,9.29,0,0,0-10.16,0,5.14,5.14,0,0,1-5.63,0,9.29,9.29,0,0,0-10.17,0,5.14,5.14,0,0,1-5.63,0,9.29,9.29,0,0,0-10.17,0,5.16,5.16,0,0,1-5.63,0,9.44,9.44,0,0,0-7.86-1.16V48.6H525.46Z"/></g><g class="cls-5"><path class="cls-3" d="M-215.83,203.24s-1.35.66-3.45-3.33-3.46-4.09-1.57-6.29,2.41-2.94,2.62-6.19,1.47-2.52-.1-4-1.26,1.68-1.47,3.25-.11,3.15-.95,3.78-2.2,1.36-2.2-.95a12.72,12.72,0,0,1,1.89-7.45c1.78-2.93,5.35-4,6.4-6.71s1.89-8.39,1.47-8.81-4.4-7.45-4.83-9.55-.63-5.35-.84-6.61-1.47-6.51-1.78-8.71-1.47-17-.53-18.25,2.63-.63,2.52,1.67-.62,13.43.63,16.37,1.05,4.93,1.89,7.87-.21,6.09,1.89,8.6,3.78,8.92,5.87,9.66,4.41-1.47,5.88-1.68a9.63,9.63,0,0,0,2.83-.95,5.2,5.2,0,0,1-1.89-4.09c0-2.73,1.58-5.77,1.37-8.81a23,23,0,0,0-2-7.24c-.73-1.89-1.46-3-.31-4.72s2.73-2.73,4.72-1.58a15.17,15.17,0,0,1,5.46,7,26.49,26.49,0,0,1,.52,7.77c-.1,2.72-.63,4.93,2.83,5.87s10.25,5.66,12.08,9.33,6.9,9.37,8.08,11.09,1.62,2.91,1.08,4.31.11,4.42,1.72,6.57,7.44,8.3,10.24,12.18,7,6.78,7.75,10.23,12.35,14.46,15.57,23.79,7.56,12.87,7.89,16.41,1.28,6.44-.81,7.57-2.41-1.13-3.86,0a31.94,31.94,0,0,0-6.11,7.56c-1,2.09-2.16,1.28-3.65,4.26s-2.63,5.71-4.56,7-5.47,3.7-6.92,4.18-1.77-.64-3.38,0-5.63,8.37,1.93,5.31,6.28-4.37,9-6,3.06-1.92,4.67-4.66.64-2.89,3.06-4.5,2.41-.81,4-3.54a11.7,11.7,0,0,1,3.06-3.7s2.61-1.61,4,.48,3.68,1,4,2.25,0,1.45-2.9,4.67-1.12,1.13-3.54,5.31-5.79,4.5-6.27,8.85.64,5.63-2.25,7.72-5,3.7-8.53,4-2.9-1.12-8,0-5-.8-9.18,1.61-7.24-.32-8.68,3.22-3.38,6.44,1.12,5.31,5.47-.79,6.28.25.64,3.93-.81,4.58-1.44-1-3.38-1-2.09.48-3.05,2.74,0,3.21-2.17,2.09-1.69-1.13-2-4-.64-4-1.12-2.42-.48,3.06-1.29,4.35-.16.64-1.45,1.12-1.93.46-.32,1.44,3.38,1.46,2.41,3.23-2.09,1.45-3,3.22,0,3.38-2.42,3.7-3.54.8-5.63-1.29-1.28-2.41-4-3.7-3.22-1.61-4.83-.32-2.25,1.77-1.28,2.09-.33-.48,2.89-1.13,2.09-.16,4.67,1.45,2.73.42,2.41,3.19-1.29,4.05-3.38,7.11-6.75,8-6.27,9.33,5,1.29,6.43,0,2.58-1.77,3.7-1.29-.14,3.25-1.64,5.12-2.88,3.89-7.27,5.14-11.89,1.63-15.28,2.38-5,1.25-8.64,4.63a18.91,18.91,0,0,0-5.38,9.14c-.75,2.38-1,3.26-2.51,4.89s-2.5,2.88-1,2.38a26.09,26.09,0,0,0,2.63-1.25c1.5-.63,2-1.38,2.13.25s-2.88,14.65-1.88,14.52,2.38-4,2.51-6.13.75-11.52,1.37-14.53,1.13-5,4.89-7.64a22.86,22.86,0,0,1,11.14-4c3.64-.37,11.78-.87,13.53-.12s.5,1.88,2.13,1.63,1.5-.51,2.25-2,.13-1.63,1.51-.25,1.12,5.39,2.88,6.26,2.25,2.13,2-.12.12-1-2-4.64-4-5.38-2.63-9.64,4.88-8.14,8.76-14,4.51-7.88,9.27-9.89,4.51-.75,4.88.5-3.25,2.76-4.38,4.89-2.63,4-.37,5,3.5-.38,4.25,1.75-.5,5,1.38,6.14,2-.38,2.51,2.5.87,3.38,1.87,4.76-.37,2,.88,3.38,1.25,2.88,2.13-.5.5-.5.88-3.38.62-1.5-.63-5.14-1.63-4.25-1.13-7.89-.75-4.63.38-5.51,2.13-.37,2.38,1.88a17.39,17.39,0,0,0,1.75,6.39c1.13,2.25,1.5,4.63,3.38,5.51s2.13-.5,2.63.88.5,5.38,1.38,6.88-.12,1.88-.12,3.89-.51,1.37-1.13,2.25.12,11.4-2.26,14.15-2.25,1.63-3,3.76-2,4.26-3.13,6.89-1.88,7.26-3.38,9.26-2.88,3.14-2.13,5,1.37,2.38,2.5,0,2.51-4,2.51-2.5-.13,5.89-1.88,7.89-7,1.5-11.77,3.13-3.26.5-8.4,1.5-10.39,4.51-13,6.64-10.27,11.4-9.64,12.52.12,3.51,2.75,0,5.39-8.26,7.89-9.64,2.63,0,4.26-1.88-.88-1.75,3.63-2.88,4.26-1.63,7.64-1.75a34.07,34.07,0,0,0,6.26-.88c2.38-.37,10.27-2.5,11.65-1.88s1.63,2.51,2.76,1.63,2.12.63,1.5-1.63a10.22,10.22,0,0,0-1.38-3.5c-1.13-2.26-2.25-1.76-.88-3.89a20.43,20.43,0,0,0,2.63-7.51c.5-2.75.88-.88.63-4.26s-1.75-1.88.13-4.76,2.5-2.75,3.63-4.88,1.5-4.89,3-5,1.63.38.5,3.13-2.5,2.25-2.25,5.39,1,3.38-.13,5-2.75,3.25-1.5,3.13.75,1.87,2.26-1.51.37-1.5,2-4.38,1-.25,2.5-4.26,1.51-6.64.63-9.77-.5-1.5.13-5.63,1.17-15.16-1.29-20.79a66.12,66.12,0,0,1-3.72-9.77c-1.51-4.63-2.13-4.88-3.39-9.14s-1.25-4.38.38-8.27,1.13-2.88,3.51-5.26,4.13-3.5,5.26-5,1.5-1.87,2-1.12,1,.87-.63,2.75-2.5,2.88-4.25,4.89-3,3.5-3,5.76a11,11,0,0,1-.37,3.63c-.38,1.88-1.51,3.13.12,3.25s1.13,1.88,2.88-1.37.75-2.26,2.88-4.64,1.88-3,4.51-4.88,4.76-3.38,6.51-6.39,1-1.13,4.64-4.51,8-7.26,9.26-8.64a2,2,0,0,1,3.38.5c.25,1.13.13,2.88,1.63,4.14s2.79,4.49,3.36,5.54,1,.42.79-1.11-1.39-1.36,0-1.88,2.48-.58,2.85.73a12.87,12.87,0,0,1,.47,5.14c-.32,1.63-.79,3.52-2.1,3s-1.21-1.21-2.2-.73-2.73.94-3.31,2.25-2.25,13.64-1.21,14.1,1.26-.23,1.26-3.34-.57-7.39.93-8.54,2-2,2.08-.81-.7,0-.35,3.11.11,5.43.92,4.16,1.27,1.5.35-2.89.34-5.07.34-5.07,1.85-1.5,2.43-.58.34,1.73,1.73,3.46,5.54,6.46,5.54,6.46.46,1.27,1.27.35-.46-2.08-2-3.46-4-3.12-4.27-5.2.57-9.23-.46-13.15-.7-1.73-2.31-8.08-2.66-9-2.08-13.85,1.5-10.27,2.88-13.85,2.2-8.19,5.43-10.38,6-.81,7.73-.12,3.35,2.89,3.58,6.23a11.92,11.92,0,0,1-.92,5.66c-2.08,1.38-2.77.8-5.08,3.34s-1.62,3-4,4.27-3,.58-4,2-1.85,2.19,1.38,2,6.81.81,9.58-1.5,3.12-3.35,6.35-4.85,4.27-1.38,5.66-.81,12,7,14.07,9.7a88,88,0,0,1,6.58,10.27A37.73,37.73,0,0,1-51.46,306c-.12,2.08,0,2.31-2.54,3.24s-2,.11-3.69,1.38-2.31,2.31.23,2.19,4.51-.34,6-1.15,1.84-.12,3-3.58.57-2.88,1.15-3.46,1.62-1.39,2.54.92,3.92,9.35,5.19,10.16,1.27-.46,2.66.92,1.38,2.19,3,6.12,5.88,8.31,6.58,11.19.35,5.77,1.44,6.7,1.44,2,1.79-.35,1.27-1.27,0-4.73a25.76,25.76,0,0,1-1.79-5.77c-.52-2.66.06-4.5,1.67-3.7s1.27,5,2.89,6.24,1.85.34,1.85,3-.58,3.46-1.51,6.11-.23,4.27-1.38,4.39-.12-.81-2-.81a8.19,8.19,0,0,0-5.2,1.39,44.27,44.27,0,0,1-4,2.07c-1.85,2.43-1.39,2.66-3.24,4.27s-2.53,1-4.61,2.43-3.12,1-3.46,1.73.23.92,2.07.58a32.26,32.26,0,0,0,6.47-2.66c2.19-1,2.88.46,6.46-1.38s6.58-3.93,11.77-6.12,10.16-1.62,13.73-1.85,10-1.73,12.93-.57,6.12,2.42,8.54,2,3.23-.46,2.42-1.39-2.54-1.38-6.69-2-2.77-1.5-9.23-1.85-11.78-1.73-14.66-4.84-7.16-7.62-8.77-13.39-5.77-16.16-8.2-19.16-1.15-3.81-3.46-6.81a10.86,10.86,0,0,1-2.31-7.61s-1-.93,1.85-1,5.89,1.84,10.62-.23A126.19,126.19,0,0,1-5.07,283c5.43-1.49,10.62-2.07,19-3.57s32.66-8.08,36.13-9.81,3.57-2,5.07-1.27,1.73.73,2,4.12S58.75,285,60,288.12s3.58,7.73,5.31,9.69,2.19,1.73,2.08,3.92-1.12,5.2,0,4.5,1.37-1,2-3.8,1.61-3.58-.58-5.43-5-3.46-5.77-7.5-1.61-4.5-.92-8.77,1.15-6.58-.35-9.58-2.54-5.31-4.85-6.35-3.92.12-2.42-1.73.35-1.5,4.16-2.31,4.84-.8,7.27-1.5,3.46-1.73,6,0,6.34,3.81,8.19,10,3.23,8.89,3.35,12.35-.81,10.39,0,14.31,5,13,7.38,15.58a60.46,60.46,0,0,0,12.35,9.12c3.7,1.85,5.08,3,8.08,2.42s2.19-3.69-1.61-4.5-6-2.19-9.58-4.84-6-1.73-8.2-9.12-2.65-9.58-3.46-13.27-2.19-7.85-.11-9.24,3-1.38,4.27,5.2,2.65,13.5,4.5,15.69,4.61,5.31,6.46,7.62,1.5,2.77,3,2.77,3.12.46-.81-3.69-5.08-4-5.65-8.43-3.7-22-6.47-27.46-7.5-11.43-10.38-15.58-.12-6.12-10.5-8-8.66-2-12.93-2.54-6.23-2.19-2.89-4.61,5.89-2.77,8.43-5.77,1.27-2.77,5-3.7,6.58-1.5,9-3,3.7-1.27,8.77-4a45.66,45.66,0,0,1,10.85-4.73c5.54-1.84,13.62-3.58,13.62-3.58"/><path class="cls-3" d="M111.5,186.19s-14.81-4-17.73-5.39-4.26-1.34-2.24-3.14,2.69-.89,6.28-2.69,4-.9,4.71-3.81-1.12-1.57.45-5.39,2.8-3.58,1.57-3.81-1.09,1.58-1.93,1.44-.28-.84-1-2.38-1.4-1.4-1.12,0a18.93,18.93,0,0,1,.52,3.78c0,1.54,1.08,3.64,0,5.59s-.24,2-3.32,2.66-4.36.56-7.15,2-3.62,2.24-5.44,2.66-3.35,1-5.17.42-13-7.14-16.37-7.7-19.71-5.85-26.78-.68-6.25,9.52-7.34,12.23a97.66,97.66,0,0,1-7.07,12.24c-1.08,1.36-3.53,2.17-4.89,4.62s-3.53,3.26-4.62,5.44S6.62,212.12,5,215.11s-2.17,2.72-3.8,4.9-4.9,2.72-6.53,4.35S-11,229-12.68,229.52a22.4,22.4,0,0,0-3.8,1.36c-2.45,1.09-2.45.82-4.08,0s-2.45-1.83-2.18.72,2.62,3.63-.05,4.72-4.84-1.36-6.47,0,.27,1.09-3.26,2.17-8.7,1.91-16-1.36-20.84-12-23.67-13.93-7.44-5.39-10.26-6.8-20-16.69-27.59-19.38a58.06,58.06,0,0,1-18-10.78c-4.36-3.72-11.48-11.77-15.67-14.62s-17.57-13.56-20.09-16.91-10.71-22.77-12.22-30.13-11-30.12-11-30.12"/><path class="cls-3" d="M-129.5,93.27s-8,9.71-10.88,12.73-7,4.52-9.71,9.2-1.5,1.34-3,6.53-4.86,17.41-3.18,23.44.17,5.19,3.85,8.54,2.17,5.86,6.53,10,5,5,8.2,7.87,3.52,2,5.52,4.35,9.71,4,14.23,7.54,8.71,7.7,11.39,8.37,4,2.34,8.2,3.34,7.53.34,10.88.84,7.53-.5,10.38-1.17,2.51.33,3.85-1.34-.67-1.84,3-2.18A76.89,76.89,0,0,1-56,191c5.53.5,4.69,2.17,7.87.17a57.45,57.45,0,0,1,6.53-3.85c2.68-1.34,2.85-.67,6-1.51s5.48-2.85,9.68-3.68,5.88,0,8.4-1.51,7.19-.17,11-2.18,6.37-2.34,10.22-5,7.36-5.19,8.37-8.7,0-4.19-1.34-4.52-2.18-2,1-6.2,2.18-7,7.2-8.37,16.24-1.84,19.59-1.67,1.17,1.14,4.85.74,1.51-1.61,5.53,0a59.69,59.69,0,0,0,10.37,3.11c3.18.67,2.35,1.34,4.19,1.67s2.51.67,4.69.17a28.94,28.94,0,0,1,11.38.17c4.19,1,8,1.34,14.9,2.34s4.35,3.52,7.7,4,9.54,2,10,3.68"/><path class="cls-3" d="M113.09,98.13s-70.66,4.18-81.21,3.18S3.09,98.72-2.77,92"/><path class="cls-3" d="M-29.31,267a2.79,2.79,0,0,1-.33-5.14c.44-.22.94-.45,1.49-.68,6.41-2.72,7.38-5.24,12-10.1s10.68-8.93,14.75-14.36,3.5-3.3,6.41-7.77,2.72-2.52,4.46-4.66,4.08-2.52,10.29-9.31S31.26,202.72,34,198.06A79,79,0,0,0,39,186.8S36.69,190.87,34,192s-4.46.39-2.71-2.53a40.41,40.41,0,0,0,3.88-7.57c1.16-3.1-1.36-2.33,3.88-4.85s5.83-4,10.87-2.66,9.71.72,12.23,3a9.8,9.8,0,0,1,3.5,6c.58,2.33,2.52,2.71,6.6,2.71,4.7,0,7.34-2.06,11.19.66a7,7,0,0,1,2.1,2.48c3,5.85,2.59,3.45,6.32,6.85,3.1,2.83,4.65,2.44,2.91,5.54s-7.57,5.63-10.68,8.35-6,7.33-8.35,9.69-2.52,1.57-5.24,4.48-5.24,5.83-5.63,3.3.2-.38-.39-2.52-.77-1.16.59-4.27.38-1.94,4.46-8.15,2.72-5.63,6.6-8.74,6-4.66,5.24-6-1.74-1.16-4.66.39-2.52,2.33-6.6,3.11-11.26-1-9.32-8.93c0,0-1.16,3.46-2.52,3.77s-2.33,1.47-3.69,5.74-2.52,16.31-5,20.58S40.19,237.27,39,238.63s-9.32,13-17.08,16.7-9.13,1.55-16.89,5.24S-6,265-12,267a30.53,30.53,0,0,1-17.28,0Z"/><path class="cls-3" d="M-148.16,205c1.14,2.6,3.54,3.31,5.86,4.38,1.84.84,3.52,2.45,5.46,3,1.54-3.59-.26-7.83,1.1-11.15,1.85-4.52,7.34-2.38,10.29-.17,1.4,1,2.42,2.56,3.8,3.62,1.63,1.25,3.53,1.76,5.34,2.73,3.92,2.11,9.14,8.36,10.3,12.81.44,1.69.25,3.44,1.11,5,1.33,2.45,3.71,1.92,5.72,3.33s3.75,5.4,4.85,7.71a49,49,0,0,1,2,6.15,34.51,34.51,0,0,0,4.73,10.11c1.56,2.07,2.06,4.28,3.42,6.48,2.67,4.35,8.68,4.78,12.1,8.54a11.71,11.71,0,0,0,2.61,2.65c1.8,1.13,6.39,1.76,6.68,4.3,1.93,2.42,3.42,4.86,6.65,5.27s6.31,1,9.45,1.5c9.77,1.62,19.7,2.79,29.63,1.88a69.89,69.89,0,0,0,12.61-2.52c4-1.14,8.22-1.75,12.18-3.07,1.73-.57,6.16-1.15,7.44-2.51,2.86-3-3.25-4.32-5.14-4.33a24.24,24.24,0,0,0-9,1.94,62.7,62.7,0,0,1-13,3.37c-5.64.83-11.6,1.76-17.3,1.54s-11.75.3-17-1.84c-3.77-1.53-7.63-3.45-10.32-6.54a69.47,69.47,0,0,0-7.74-8.16c-2.3-1.91-5.57-3.31-8.25-4.69-3.23-1.65-5.31-.72-7.63-4.36-1.25-2-2.28-2.48-4.12-3.87a18.57,18.57,0,0,1-4.11-5.2,8.72,8.72,0,0,1-1.64-4.6c0-2.61.83-1.66,2.35-2.7,3.27-2.25.3-10.09-1.27-12.88a30.74,30.74,0,0,0-5.34-6.6c-1.86-1.74-4.46-3-5.83-5.2-1.47-2.37-4.38-3.22-5.93-5.54-1.08-1.6-1.77-3.36-2.91-4.92-1.49-2-3.46-3.28-5-5.21"/><path class="cls-3" d="M-2.81,273.64A6,6,0,0,0-1,270c.18-1.51-.62-1.5,1.38-2.72,2.57-1.57,5.74-2.8,8.48-4.14S17,260.45,18.07,257c.25.19.14-.06.19-.25"/><path class="cls-3" d="M12.67,276.71c2.38-1.75,6.54-.73,9.39-1.65,2.61-.84,5.11-2.53,7.58-3.7,4.9-2.31,8.78-7.11,11.75-11.56,2.74-4.09,6.45-6.59,9.74-10.21,1.28-1.42,2.71-3.32,4.23-3.86"/><path class="cls-3" d="M68,234.38c1.31-2.32,4.11-4,6.46-5,1.83-.83,4.79-1.34,6.28-2.67s2.11-2.45,4-3.48A58.22,58.22,0,0,0,90,220.47c3.57-2.45,2-4.71-1.87-4.32A21.87,21.87,0,0,0,81,218c-1.55.67-3.84,1.67-5.49,1.64"/><path class="cls-3" d="M65.08,228.08c-2.58.16-4.38,3.78-6.21,5.28-1.57,1.28-3.47,1.67-5,3.1-2.66,2.5-4.94,5.9-7.93,8-1.13.79-3,1.47-4.2,1-1.44-.52-1.8-2.21-3.73-1.76-2.39.57-4.27,5.44-5.93,7.23-1.2,1.28-5.09,3.77-5.91,1.79"/></g><circle class="cls-6" cx="337.47" cy="251.37" r="159.3"/><circle class="cls-7" cx="337.47" cy="251.37" r="159.3"/><g class="cls-8"><path class="cls-3" d="M213.71,286.44s121,8.92,183.46-3.49,84.55-22.1,84.55-22.1l-8.53,10.08A332.25,332.25,0,0,1,408,289.16c-37.62,6.59-91.53,7.37-91.53,7.37S252.89,295,240.09,295H229.34a37.23,37.23,0,0,1-4.09-.22l-.2,0-5.13-.54"/><line class="cls-3" x1="473.19" y1="270.93" x2="439.21" y2="304.47"/><path class="cls-3" d="M481.72,260.85l-10-8.94a741.76,741.76,0,0,1-88.29,16.84c-46.87,5.81-90.25,0-90.25,0l-11.23,9.94s-50.75,2.11-61.12-3.22l-7.11,11,6.21,7.76v11"/><polyline class="cls-3" points="225.13 276.88 225.13 269.73 206.67 269.73 206.67 289.35 215.9 289.35"/><line class="cls-3" x1="206.67" y1="275.19" x2="225.13" y2="275.19"/><polyline class="cls-3" points="232.19 277.97 232.19 262.11 263.73 262.11"/><polyline class="cls-3" points="260.2 279.1 265.74 250.54 269.76 250.54 275.3 229.91 340.45 229.91 357.05 251.91 283.1 251.91 266.3 279.06"/><rect class="cls-3" x="279.77" y="234.07" width="10.05" height="11.79"/><rect class="cls-3" x="298.58" y="234.07" width="10.05" height="11.79"/><rect class="cls-3" x="317.39" y="234.07" width="10.05" height="11.79"/><polygon class="cls-3" points="346.48 245.86 334.25 245.86 334.25 234.07 337.88 234.07 346.48 245.86"/><polygon class="cls-3" points="326.17 229.91 297.9 229.91 305.87 219.67 318.2 219.67 326.17 229.91"/><path class="cls-3" d="M306.42,219.67a5.62,5.62,0,1,1,11.23,0"/><polyline class="cls-3" points="308.37 215.42 301 215.42 301 212.42 322.42 212.42 322.42 215.42 315.71 215.42"/><path class="cls-3" d="M275.3,229.91s-1.23-6.1.84-9.31l20.62,9.31"/><polyline class="cls-3" points="280.13 222.4 280.13 192.12 277.49 192.12 275.7 221.43"/><rect class="cls-3" x="268.68" y="189.63" width="11.91" height="2.49" rx="1.24"/><polyline class="cls-3" points="274.94 189.63 277.28 174.09 278.63 175.54 278.63 190.15"/><rect class="cls-3" x="270.13" y="180.62" width="11.6" height="1.5" rx="0.75"/><polyline class="cls-3" points="235.85 262.11 235.85 258.1 264.13 258.1"/><polyline class="cls-3" points="239.27 258.1 239.27 245.86 262.57 245.86 262.57 258.1"/><line class="cls-3" x1="258.95" y1="245.86" x2="258.95" y2="258.1"/><line class="cls-3" x1="255.01" y1="245.86" x2="255.01" y2="258.1"/><line class="cls-3" x1="251.07" y1="245.86" x2="251.07" y2="258.1"/><line class="cls-3" x1="247.14" y1="245.86" x2="247.14" y2="258.1"/><line class="cls-3" x1="243.2" y1="245.86" x2="243.2" y2="258.1"/><polyline class="cls-3" points="241.44 245.86 241.44 239.97 261.02 239.97 261.02 245.86"/><polyline class="cls-3" points="357.05 251.91 373.88 262.87 374.31 269.74"/><path class="cls-3" d="M373.87,262.87s30.67-2.58,55.11-9.5c0,0,34.75-7.66,39.76-10.31l3,8.85"/><line class="cls-3" x1="379.96" y1="262.26" x2="381.15" y2="269.02"/><line class="cls-3" x1="388.72" y1="260.82" x2="389.91" y2="267.58"/><line class="cls-3" x1="397.63" y1="259.49" x2="398.83" y2="266.25"/><line class="cls-3" x1="406.37" y1="258.88" x2="407.57" y2="265.64"/><line class="cls-3" x1="415.23" y1="256.84" x2="416.42" y2="263.6"/><line class="cls-3" x1="424.45" y1="255.5" x2="425.64" y2="262.26"/><line class="cls-3" x1="432.37" y1="252.97" x2="433.56" y2="259.73"/><line class="cls-3" x1="440.69" y1="251.13" x2="441.88" y2="257.88"/><line class="cls-3" x1="450.83" y1="248.53" x2="452.25" y2="256.58"/><line class="cls-3" x1="460.46" y1="246.21" x2="461.9" y2="254.35"/><line class="cls-3" x1="269.78" y1="192.12" x2="243.2" y2="239.97"/><polyline class="cls-3" points="319.78 270.88 319.78 260.85 337.69 260.85"/><polyline class="cls-3" points="334.25 270.88 337.69 260.85 370.73 260.85"/><path class="cls-3" d="M573.58,302.62a11,11,0,0,0-5.64,1.88,6.59,6.59,0,0,1-7.23,0h0a11.93,11.93,0,0,0-13.05,0,6.63,6.63,0,0,1-7.23,0h0a11.91,11.91,0,0,0-13,0h0a6.61,6.61,0,0,1-7.24,0,11.93,11.93,0,0,0-13.05,0h0a6.63,6.63,0,0,1-7.23,0,11.91,11.91,0,0,0-13.05,0,6.59,6.59,0,0,1-7.23,0,12,12,0,0,0-13.06,0h0a6.63,6.63,0,0,1-7.23,0,11.91,11.91,0,0,0-13.05,0,6.59,6.59,0,0,1-7.23,0,11.93,11.93,0,0,0-13.05,0,6.65,6.65,0,0,1-7.24,0,11.91,11.91,0,0,0-13.05,0,6.59,6.59,0,0,1-7.23,0,11.93,11.93,0,0,0-13.05,0,6.63,6.63,0,0,1-7.23,0,11.93,11.93,0,0,0-13.06,0,6.59,6.59,0,0,1-7.23,0,11.93,11.93,0,0,0-13.05,0,6.63,6.63,0,0,1-7.23,0,11.91,11.91,0,0,0-13,0,6.61,6.61,0,0,1-7.24,0,11.93,11.93,0,0,0-13.05,0,6.63,6.63,0,0,1-7.23,0,11.91,11.91,0,0,0-13,0h0a6.59,6.59,0,0,1-7.23,0,11.93,11.93,0,0,0-13.05,0,6.65,6.65,0,0,1-7.24,0h0a11.91,11.91,0,0,0-13,0,6.59,6.59,0,0,1-7.23,0h0a11.93,11.93,0,0,0-13,0,6.63,6.63,0,0,1-7.23,0,11.93,11.93,0,0,0-13.06,0h0a6.59,6.59,0,0,1-7.23,0,11.93,11.93,0,0,0-13,0,6.63,6.63,0,0,1-7.23,0,11.91,11.91,0,0,0-13,0,6.61,6.61,0,0,1-7.24,0,11.93,11.93,0,0,0-13.05,0,6.61,6.61,0,0,1-7.23,0,12.15,12.15,0,0,0-10.09-1.49V650.44H573.58Z"/></g><polyline class="cls-9" points="179 270.81 24.02 270.81 24.02 48.63"/><circle class="cls-9" cx="24.02" cy="24.02" r="24.02"/><circle class="cls-10" cx="24.02" cy="24.02" r="14.16"/></svg>