<svg id="Layer_1" data-name="Layer 1" xmlns="http://www.w3.org/2000/svg" xmlns:xlink="http://www.w3.org/1999/xlink" viewBox="0 0 499.27 413.18"><defs><style>.cls-1,.cls-3,.cls-4,.cls-7,.cls-8{fill:none;}.cls-2{clip-path:url(#clip-path);}.cls-3,.cls-4,.cls-5,.cls-7,.cls-8{stroke:#82d7c6;}.cls-3,.cls-4,.cls-5,.cls-8{stroke-linecap:round;stroke-linejoin:round;}.cls-4,.cls-5{stroke-width:3px;}.cls-5{fill:#007188;}.cls-6{clip-path:url(#clip-path-2);}.cls-7{stroke-miterlimit:10;}.cls-8{stroke-width:2px;}.cls-9{fill:#82d7c6;}</style><clipPath id="clip-path"><circle class="cls-1" cx="-181.8" cy="251.37" r="159.3"/></clipPath><clipPath id="clip-path-2"><circle class="cls-1" cx="337.47" cy="251.37" r="159.3"/></clipPath></defs><g class="cls-2"><path class="cls-3" d="M55.67,284.54a10.35,10.35,0,0,0-5.33,1.79,6.28,6.28,0,0,1-6.85,0h0a11.29,11.29,0,0,0-12.35,0,6.24,6.24,0,0,1-6.84,0h0a11.26,11.26,0,0,0-12.35,0h0a6.26,6.26,0,0,1-6.85,0,11.29,11.29,0,0,0-12.35,0h0a6.24,6.24,0,0,1-6.84,0,11.29,11.29,0,0,0-12.36,0,6.24,6.24,0,0,1-6.84,0,11.29,11.29,0,0,0-12.35,0h0a6.26,6.26,0,0,1-6.85,0,11.28,11.28,0,0,0-12.35,0,6.24,6.24,0,0,1-6.84,0,11.28,11.28,0,0,0-12.35,0,6.26,6.26,0,0,1-6.85,0,11.29,11.29,0,0,0-12.35,0,6.24,6.24,0,0,1-6.84,0,11.28,11.28,0,0,0-12.35,0,6.26,6.26,0,0,1-6.85,0,11.29,11.29,0,0,0-12.35,0,6.24,6.24,0,0,1-6.84,0,11.28,11.28,0,0,0-12.35,0,6.26,6.26,0,0,1-6.85,0,11.29,11.29,0,0,0-12.35,0,6.24,6.24,0,0,1-6.84,0,11.28,11.28,0,0,0-12.35,0,6.26,6.26,0,0,1-6.85,0,11.29,11.29,0,0,0-12.35,0h0a6.24,6.24,0,0,1-6.84,0,11.29,11.29,0,0,0-12.36,0,6.24,6.24,0,0,1-6.84,0h0a11.29,11.29,0,0,0-12.35,0,6.26,6.26,0,0,1-6.85,0h0a11.26,11.26,0,0,0-12.35,0,6.26,6.26,0,0,1-6.84,0,11.29,11.29,0,0,0-12.35,0h0a6.26,6.26,0,0,1-6.85,0,11.26,11.26,0,0,0-12.35,0,6.26,6.26,0,0,1-6.84,0,11.29,11.29,0,0,0-12.35,0,6.26,6.26,0,0,1-6.85,0,11.28,11.28,0,0,0-12.35,0,6.24,6.24,0,0,1-6.84,0,11.5,11.5,0,0,0-9.55-1.4V613.7H55.67Z"/></g><circle class="cls-4" cx="337.47" cy="251.37" r="159.3"/><circle class="cls-5" cx="337.47" cy="251.37" r="159.3"/><g class="cls-6"><polyline class="cls-3" points="543.64 211.09 543.64 192.42 441.81 192.42 434.96 178.72 306.9 178.72 332.65 211.09"/><path class="cls-3" d="M342.34,193.69a3.25,3.25,0,1,0-2.27-.56"/><polygon class="cls-3" points="333.99 171.87 306.9 171.87 306.9 176.59 335.25 175.65 333.99 171.87"/><line class="cls-3" x1="306.9" y1="178.72" x2="307.66" y2="176.59"/><line class="cls-3" x1="485.04" y1="156.3" x2="485.04" y2="192.42"/><path class="cls-3" d="M309.44,171.86l1.38-4.08s15.69,0,21.07-1.25,8.78-4.17,10.53-7.9L366,153.88l4.44-7.87h12.18l4.77,8.09H412L416.9,146H427l4.21,7.31h5.21l2.66,2.66h45.57"/><rect class="cls-3" x="477.39" y="162.74" width="3.77" height="5.87" transform="translate(958.55 331.35) rotate(-180)"/><rect class="cls-3" x="468.64" y="162.74" width="3.77" height="5.87" transform="translate(941.04 331.35) rotate(-180)"/><rect class="cls-3" x="459.89" y="162.74" width="3.77" height="5.87" transform="translate(923.54 331.35) rotate(-180)"/><polyline class="cls-3" points="472.96 192.42 472.96 176.59 456.67 176.59 445.81 159.31"/><line class="cls-3" x1="443.71" y1="192.42" x2="443.71" y2="156.09"/><line class="cls-3" x1="443.71" y1="159.31" x2="484.93" y2="159.31"/><rect class="cls-3" x="423.39" y="160.93" width="3.42" height="5.96" transform="translate(850.19 327.81) rotate(-180)"/><rect class="cls-3" x="411.57" y="160.93" width="3.42" height="5.96" transform="translate(826.56 327.81) rotate(-180)"/><rect class="cls-3" x="399.76" y="160.93" width="3.42" height="5.96" transform="translate(802.93 327.81) rotate(-180)"/><rect class="cls-3" x="387.94" y="160.93" width="3.42" height="5.96" transform="translate(779.31 327.81) rotate(-180)"/><rect class="cls-3" x="376.13" y="160.93" width="3.42" height="5.96" transform="translate(755.68 327.81) rotate(-180)"/><polyline class="cls-3" points="461.77 156.09 461.77 143.26 443.71 143.26 443.71 156.09"/><polygon class="cls-3" points="426.98 146.01 432.21 134.41 364.58 134.41 370.48 146.01 426.98 146.01"/><polyline class="cls-3" points="412.02 154.1 431.14 154.1 431.5 153.32"/><line class="cls-3" x1="387.43" y1="154.1" x2="366.04" y2="154.1"/><line class="cls-3" x1="422.62" y1="134.42" x2="420.91" y2="146.01"/><line class="cls-3" x1="414.25" y1="134.42" x2="412.54" y2="146.01"/><line class="cls-3" x1="405.79" y1="134.42" x2="404.08" y2="146.01"/><line class="cls-3" x1="393.58" y1="134.42" x2="394.43" y2="146.01"/><line class="cls-3" x1="385.42" y1="134.42" x2="386.27" y2="146.01"/><line class="cls-3" x1="375.05" y1="134.42" x2="377.16" y2="146.01"/><polyline class="cls-3" points="432.21 134.41 430.26 130.72 368.17 130.72 364.58 134.41"/><path class="cls-3" d="M400.41,104.44h2.17a0,0,0,0,1,0,0v25.19a1.09,1.09,0,0,1-1.09,1.09h0a1.09,1.09,0,0,1-1.09-1.09V104.44A0,0,0,0,1,400.41,104.44Z" transform="translate(802.99 235.16) rotate(-180)"/><path class="cls-3" d="M394,114.57h2.17a0,0,0,0,1,0,0v15.06a1.09,1.09,0,0,1-1.09,1.09h0a1.09,1.09,0,0,1-1.09-1.09V114.57A0,0,0,0,1,394,114.57Z" transform="translate(790.18 245.28) rotate(-180)"/><circle class="cls-3" cx="434.12" cy="110.14" r="5.05"/><line class="cls-3" x1="432.98" y1="115.19" x2="429.07" y2="130.71"/><line class="cls-3" x1="430.3" y1="113.44" x2="420.06" y2="130.71"/><polyline class="cls-3" points="437.5 113.89 447.53 113.89 447.53 112.26 438.7 112.26"/><line class="cls-3" x1="439.77" y1="119.24" x2="441.91" y2="113.89"/><polyline class="cls-3" points="440.66 120.38 438.43 125.95 437.27 125.49 439.32 120.38"/><line class="cls-3" x1="443.25" y1="113.89" x2="441.11" y2="119.24"/><polyline class="cls-3" points="442.56 112.26 445.04 106.07 445.14 106.11 445.14 106.07 450.35 106.07 450.35 106.94 446.03 106.94 443.9 112.26"/><path class="cls-3" d="M439.32,120.38h2.85a.58.58,0,0,0,.57-.57h0a.57.57,0,0,0-.57-.57H418.41a.56.56,0,0,0-.57.57h0a.57.57,0,0,0,.57.57h20.91"/><rect class="cls-3" x="414.91" y="126.02" width="17.3" height="1.14" rx="0.57" transform="translate(847.12 253.18) rotate(180)"/><rect class="cls-3" x="415.92" y="122.08" width="0.72" height="3.94" transform="translate(832.56 248.1) rotate(-180)"/><rect class="cls-3" x="411.98" y="122.08" width="3.94" height="2.52" transform="translate(827.9 246.67) rotate(-180)"/><rect class="cls-3" x="421.9" y="115.19" width="0.72" height="3.94" transform="translate(844.52 234.32) rotate(-180)"/><rect class="cls-3" x="417.96" y="115.19" width="3.94" height="2.52" transform="translate(839.86 232.9) rotate(-180)"/><path class="cls-3" d="M381.26,121.44h2.23a0,0,0,0,1,0,0v8.16a1.12,1.12,0,0,1-1.12,1.12h0a1.12,1.12,0,0,1-1.12-1.12v-8.16a0,0,0,0,1,0,0Z" transform="translate(764.75 252.16) rotate(-180)"/><path class="cls-3" d="M381.26,124.08s-7.52-4.82-6.77-2.76,6.77,4.54,6.77,4.54"/><path class="cls-3" d="M383.49,124.08s7.53-4.82,6.78-2.76-6.78,4.54-6.78,4.54"/><polyline class="cls-3" points="310.82 167.78 432.98 172.7 434.96 178.72"/><path class="cls-3" d="M512.47,146l-20.86.64a.85.85,0,0,1-.23,0l-22.07-5.27a.89.89,0,0,1-.67-.85h0a.88.88,0,0,1,.84-.88l21.55-.94a.74.74,0,0,1,.26,0l21.42,5.55a.87.87,0,0,1,.22,1.6l0,0A1,1,0,0,1,512.47,146Z"/><path class="cls-3" d="M474.74,143l14.86,13.54a1.08,1.08,0,0,1,0,1.62h0a1.1,1.1,0,0,1-1.27.1L469.4,146.53a1.08,1.08,0,0,1,.13-1.9l4-1.81A1.07,1.07,0,0,1,474.74,143Z"/><path class="cls-3" d="M525.46,210.87a8.43,8.43,0,0,0-4.39,1.47,5.17,5.17,0,0,1-5.64,0h0a9.27,9.27,0,0,0-10.16,0,5.15,5.15,0,0,1-5.64,0h0a9.27,9.27,0,0,0-10.16,0h0a5.14,5.14,0,0,1-5.63,0,9.31,9.31,0,0,0-10.17,0h0a5.14,5.14,0,0,1-5.63,0,9.29,9.29,0,0,0-10.17,0,5.14,5.14,0,0,1-5.63,0,9.27,9.27,0,0,0-10.16,0h0a5.17,5.17,0,0,1-5.64,0,9.27,9.27,0,0,0-10.16,0,5.15,5.15,0,0,1-5.64,0,9.27,9.27,0,0,0-10.16,0,5.14,5.14,0,0,1-5.63,0,9.31,9.31,0,0,0-10.17,0,5.14,5.14,0,0,1-5.63,0,9.29,9.29,0,0,0-10.17,0,5.14,5.14,0,0,1-5.63,0,9.29,9.29,0,0,0-10.17,0,5.18,5.18,0,0,1-5.63,0,9.27,9.27,0,0,0-10.16,0,5.15,5.15,0,0,1-5.64,0,9.27,9.27,0,0,0-10.16,0,5.15,5.15,0,0,1-5.64,0,9.29,9.29,0,0,0-10.16,0,5.14,5.14,0,0,1-5.63,0,9.29,9.29,0,0,0-10.17,0h0a5.14,5.14,0,0,1-5.63,0,9.29,9.29,0,0,0-10.17,0,5.16,5.16,0,0,1-5.63,0h0a9.29,9.29,0,0,0-10.17,0,5.14,5.14,0,0,1-5.63,0h0a9.27,9.27,0,0,0-10.16,0,5.15,5.15,0,0,1-5.64,0,9.27,9.27,0,0,0-10.16,0h0a5.17,5.17,0,0,1-5.64,0,9.27,9.27,0,0,0-10.16,0,5.14,5.14,0,0,1-5.63,0,9.29,9.29,0,0,0-10.17,0,5.14,5.14,0,0,1-5.63,0,9.31,9.31,0,0,0-10.17,0,5.14,5.14,0,0,1-5.63,0,9.44,9.44,0,0,0-7.86-1.15V481.77H525.46Z"/><rect class="cls-7" x="335.28" y="202.35" width="1.65" height="7.33" rx="0.82" transform="translate(99.69 -109.45) rotate(21.64)"/><path class="cls-7" d="M332,213.64a2.43,2.43,0,0,1-.57-2.66l1-2.49a2.36,2.36,0,0,1,.76-1m3,.05a2.41,2.41,0,0,1,.69,2.77l-1,2.49a2.42,2.42,0,0,1-2.37,1.5m.95-7.31h.28m-1.55.51a2.44,2.44,0,0,1,1.27-.5m-.55,6.15a1.25,1.25,0,0,0,.92-.77l1-2.49a1.25,1.25,0,0,0-.08-1.13m-1.51-.57a1.3,1.3,0,0,0-.78.73l-1,2.49a1.26,1.26,0,0,0,0,1.06"/><path class="cls-7" d="M336,204a2.42,2.42,0,0,1-.56-2.66l1-2.48a2.39,2.39,0,0,1,.76-1m3,0a2.42,2.42,0,0,1,.7,2.78l-1,2.49a2.43,2.43,0,0,1-2.38,1.49m.95-7.3h.28m-1.54.5a2.39,2.39,0,0,1,1.26-.49m-.55,6.15a1.29,1.29,0,0,0,.93-.77l1-2.49a1.25,1.25,0,0,0-.08-1.13m-1.52-.57a1.24,1.24,0,0,0-.77.73l-1,2.48a1.29,1.29,0,0,0,0,1.07"/><rect class="cls-7" x="331.34" y="212.01" width="1.65" height="7.33" rx="0.82" transform="translate(102.97 -107.31) rotate(21.64)"/><rect class="cls-7" x="339.27" y="192.31" width="1.65" height="7.33" rx="0.82" transform="translate(96.26 -111.62) rotate(21.64)"/><rect class="cls-7" x="327.45" y="221.8" width="1.65" height="7.33" rx="0.82" transform="translate(106.31 -105.19) rotate(21.64)"/><path class="cls-7" d="M324.21,233.09a2.42,2.42,0,0,1-.57-2.66l1-2.48a2.39,2.39,0,0,1,.76-1m3,.05a2.43,2.43,0,0,1,.69,2.78l-1,2.49a2.42,2.42,0,0,1-2.37,1.49m.95-7.3H327m-1.55.5a2.43,2.43,0,0,1,1.27-.49m-.55,6.15a1.28,1.28,0,0,0,.92-.77l1-2.49a1.25,1.25,0,0,0-.08-1.13m-1.51-.57a1.28,1.28,0,0,0-.78.73l-1,2.48a1.29,1.29,0,0,0,0,1.07"/><path class="cls-7" d="M328.14,223.43a2.42,2.42,0,0,1-.56-2.66l1-2.49a2.42,2.42,0,0,1,.76-1m3,.05a2.4,2.4,0,0,1,.7,2.77l-1,2.49a2.44,2.44,0,0,1-2.38,1.5m.95-7.31h.29m-1.55.51a2.4,2.4,0,0,1,1.26-.5m-.55,6.15a1.27,1.27,0,0,0,.93-.77l1-2.49a1.25,1.25,0,0,0-.08-1.13m-1.52-.57a1.26,1.26,0,0,0-.77.73l-1,2.49a1.26,1.26,0,0,0,0,1.06"/><rect class="cls-7" x="323.51" y="231.47" width="1.65" height="7.33" rx="0.82" transform="translate(109.6 -103.05) rotate(21.64)"/><rect class="cls-7" x="319.62" y="241.26" width="1.65" height="7.33" rx="0.82" transform="translate(112.93 -100.93) rotate(21.64)"/><path class="cls-7" d="M316.38,252.55a2.43,2.43,0,0,1-.57-2.66l1-2.49a2.42,2.42,0,0,1,.76-1m3,.05a2.41,2.41,0,0,1,.69,2.77l-1,2.49a2.42,2.42,0,0,1-2.37,1.5m.95-7.31h.28m-1.55.51a2.47,2.47,0,0,1,1.27-.5m-.55,6.15a1.25,1.25,0,0,0,.92-.77l1-2.49a1.25,1.25,0,0,0-.08-1.13m-1.51-.57a1.3,1.3,0,0,0-.78.73l-1,2.49a1.26,1.26,0,0,0,0,1.06"/><path class="cls-7" d="M320.31,242.88a2.41,2.41,0,0,1-.56-2.66l1-2.48a2.39,2.39,0,0,1,.76-1m3,0a2.42,2.42,0,0,1,.7,2.78l-1,2.49a2.43,2.43,0,0,1-2.38,1.49m1-7.3h.29m-1.55.5a2.39,2.39,0,0,1,1.26-.49m-.55,6.15a1.29,1.29,0,0,0,.93-.77l1-2.49a1.25,1.25,0,0,0-.08-1.13m-1.52-.57a1.24,1.24,0,0,0-.77.73l-1,2.48a1.29,1.29,0,0,0,0,1.07"/><rect class="cls-7" x="315.68" y="250.92" width="1.65" height="7.33" rx="0.82" transform="translate(116.22 -98.79) rotate(21.64)"/><rect class="cls-7" x="311.79" y="260.71" width="1.65" height="7.33" rx="0.82" transform="translate(119.56 -96.67) rotate(21.64)"/><path class="cls-7" d="M308.55,272a2.42,2.42,0,0,1-.57-2.66l1-2.48a2.47,2.47,0,0,1,.76-1m3,.05a2.43,2.43,0,0,1,.69,2.78l-1,2.49a2.42,2.42,0,0,1-2.37,1.49m.95-7.3h.28m-1.55.5a2.46,2.46,0,0,1,1.27-.49m-.55,6.15a1.31,1.31,0,0,0,.93-.77l1-2.49a1.28,1.28,0,0,0-.07-1.13m-1.52-.57a1.28,1.28,0,0,0-.78.73l-1,2.48a1.29,1.29,0,0,0,0,1.07"/><path class="cls-7" d="M312.48,262.34a2.42,2.42,0,0,1-.56-2.66l1-2.49a2.42,2.42,0,0,1,.76-1m3,.05a2.4,2.4,0,0,1,.7,2.77l-1,2.49A2.44,2.44,0,0,1,314,263m.95-7.31h.29m-1.55.51a2.4,2.4,0,0,1,1.26-.5m-.55,6.15a1.27,1.27,0,0,0,.93-.77l1-2.49a1.25,1.25,0,0,0-.08-1.13m-1.52-.57a1.26,1.26,0,0,0-.77.73l-1,2.49a1.26,1.26,0,0,0,0,1.06"/><rect class="cls-7" x="307.85" y="270.38" width="1.65" height="7.33" rx="0.82" transform="translate(122.84 -94.53) rotate(21.64)"/><rect class="cls-7" x="303.96" y="280.17" width="1.65" height="7.33" rx="0.82" transform="translate(126.18 -92.41) rotate(21.64)"/><path class="cls-7" d="M300.72,291.46a2.43,2.43,0,0,1-.57-2.66l1-2.49a2.51,2.51,0,0,1,.76-1m3,.05a2.41,2.41,0,0,1,.69,2.77l-1,2.49a2.42,2.42,0,0,1-2.37,1.5m.95-7.31h.28m-1.55.51a2.47,2.47,0,0,1,1.27-.5m-.55,6.15a1.29,1.29,0,0,0,.93-.77l1-2.49a1.31,1.31,0,0,0-.08-1.13M303,286a1.3,1.3,0,0,0-.78.73l-1,2.49a1.26,1.26,0,0,0,0,1.06"/><path class="cls-7" d="M304.65,281.79a2.41,2.41,0,0,1-.56-2.66l1-2.48a2.39,2.39,0,0,1,.76-1m3,.05a2.42,2.42,0,0,1,.7,2.78l-1,2.49a2.42,2.42,0,0,1-2.38,1.49m.95-7.3h.29m-1.55.5a2.39,2.39,0,0,1,1.26-.49m-.55,6.15a1.29,1.29,0,0,0,.93-.77l1-2.49a1.25,1.25,0,0,0-.08-1.13m-1.52-.57a1.24,1.24,0,0,0-.77.73l-1,2.48a1.29,1.29,0,0,0,0,1.07"/><rect class="cls-7" x="300.03" y="289.83" width="1.65" height="7.33" rx="0.82" transform="translate(129.47 -90.27) rotate(21.64)"/><rect class="cls-7" x="296.13" y="299.62" width="1.65" height="7.33" rx="0.82" transform="translate(132.81 -88.15) rotate(21.64)"/><path class="cls-7" d="M292.89,310.91a2.42,2.42,0,0,1-.57-2.66l1-2.48a2.47,2.47,0,0,1,.76-1m3,.05a2.43,2.43,0,0,1,.69,2.78l-1,2.49a2.4,2.4,0,0,1-2.37,1.49m.95-7.3h.28m-1.55.5a2.46,2.46,0,0,1,1.27-.49m-.55,6.15a1.31,1.31,0,0,0,.93-.77l1-2.49a1.31,1.31,0,0,0-.08-1.13m-1.52-.57a1.28,1.28,0,0,0-.78.73l-1,2.48a1.29,1.29,0,0,0,0,1.07"/><path class="cls-7" d="M296.82,301.25a2.42,2.42,0,0,1-.56-2.66l1-2.49a2.42,2.42,0,0,1,.76-1m3,.05a2.4,2.4,0,0,1,.7,2.77l-1,2.49a2.42,2.42,0,0,1-2.38,1.5m1-7.31h.28m-1.55.51a2.4,2.4,0,0,1,1.27-.5m-.56,6.15a1.27,1.27,0,0,0,.93-.77l1-2.48a1.27,1.27,0,0,0-.08-1.14m-1.52-.57a1.29,1.29,0,0,0-.77.73l-1,2.49a1.26,1.26,0,0,0,0,1.06"/><rect class="cls-7" x="292.2" y="309.29" width="1.65" height="7.33" rx="0.82" transform="translate(136.09 -86.01) rotate(21.64)"/><rect class="cls-7" x="288.39" y="318.8" width="1.65" height="7.33" rx="0.82" transform="translate(139.33 -83.94) rotate(21.64)"/><path class="cls-7" d="M285.14,330.09a2.43,2.43,0,0,1-.56-2.66l1-2.48a2.45,2.45,0,0,1,.76-1m3,.05a2.43,2.43,0,0,1,.69,2.78l-1,2.49a2.4,2.4,0,0,1-2.37,1.49m.95-7.3h.28m-1.55.5a2.43,2.43,0,0,1,1.27-.49m-.55,6.15a1.28,1.28,0,0,0,.92-.77l1-2.49a1.25,1.25,0,0,0-.08-1.13m-1.51-.57a1.28,1.28,0,0,0-.78.73l-1,2.48a1.29,1.29,0,0,0,0,1.07"/><path class="cls-7" d="M289.08,320.43a2.42,2.42,0,0,1-.56-2.66l1-2.49a2.42,2.42,0,0,1,.76-1m3,0a2.42,2.42,0,0,1,.7,2.78l-1,2.48a2.42,2.42,0,0,1-2.38,1.5m.95-7.31a2.61,2.61,0,0,1,.28,0m-1.54.5a2.4,2.4,0,0,1,1.26-.5m-.55,6.15a1.27,1.27,0,0,0,.93-.77l1-2.48a1.3,1.3,0,0,0-.08-1.14m-1.52-.57a1.29,1.29,0,0,0-.77.73l-1,2.49a1.29,1.29,0,0,0,0,1.07"/><rect class="cls-7" x="284.45" y="328.47" width="1.65" height="7.33" rx="0.82" transform="translate(142.62 -81.81) rotate(21.64)"/><circle class="cls-3" cx="283.62" cy="335.82" r="3.47"/><circle class="cls-3" cx="283.62" cy="335.82" r="1.89"/><path class="cls-7" d="M283.6,336.77h0a1.1,1.1,0,0,0-1.3-.87l-34.75,6.79a2.71,2.71,0,0,0-2.85-1.14,2.71,2.71,0,1,0,3.22,3.32l34.8-6.8A1.12,1.12,0,0,0,283.6,336.77Z"/><path class="cls-3" d="M250.05,342.2a.66.66,0,0,0-.16-.28L244,336.05a.59.59,0,0,0-.88.05l-.79,1a.58.58,0,0,0,.09.82l.55.44a.6.6,0,0,1,.09.83l-3.54,4.44a.59.59,0,0,1-.83.09l-.54-.43a.59.59,0,0,0-.83.09l-.8,1a.59.59,0,0,0,.15.86l7,4.46a.6.6,0,0,0,.78-.13l1.07-1.35,32.84,21.94-29.16-25.54"/><path class="cls-3" d="M525.46,342.2s-39.47-1.6-58.08,2.92-59.29,5.59-79.77,5.32-20.21.34-41.48,0-50.3-7-57.32-7.22c0,0-7.65-1.33-13.3-.13s-22.83.81-22.83.81"/><path class="cls-3" d="M236.65,345.24c-1.27.06-22.82-.44-33.4,0s-11.16,1.85-21.46,1-14.31-3.42-24.32-2.85"/></g><polyline class="cls-8" points="179 270.81 24.02 270.81 24.02 48.63"/><circle class="cls-8" cx="24.02" cy="24.02" r="24.02"/><circle class="cls-9" cx="24.02" cy="24.02" r="14.16"/></svg>