<svg id="Layer_1" data-name="Layer 1" xmlns="http://www.w3.org/2000/svg" xmlns:xlink="http://www.w3.org/1999/xlink" viewBox="0 0 499.27 413.18"><defs><style>.cls-1,.cls-2,.cls-5,.cls-6{fill:none;}.cls-2,.cls-3,.cls-5,.cls-6{stroke:#82d7c6;stroke-linecap:round;stroke-linejoin:round;}.cls-2,.cls-3{stroke-width:3px;}.cls-3{fill:#007188;}.cls-4{clip-path:url(#clip-path);}.cls-6{stroke-width:2px;}.cls-7{fill:#82d7c6;}</style><clipPath id="clip-path"><circle class="cls-1" cx="338.47" cy="252.37" r="159.3"/></clipPath></defs><circle class="cls-2" cx="338.47" cy="252.37" r="159.3"/><circle class="cls-3" cx="338.47" cy="252.37" r="159.3"/><g class="cls-4"><polyline class="cls-5" points="375.15 258.12 375.15 230.27 374.44 177.77"/><polyline class="cls-5" points="372.04 181.81 371.44 230.36 371.44 257.62"/><path class="cls-5" d="M371.76,178l-5.71,9.17-10,17.48-3.47,6.1a.19.19,0,0,0,.31.22l1.13-1.32c.18-.21.34-.43.5-.65l12.36-18,2.2-3.14a19.22,19.22,0,0,0,2.21-4.21l1.95-4.79"/><path class="cls-5" d="M375.34,177.72l38.1,2.15a.12.12,0,0,0,.06-.22l-.74-.39a1.93,1.93,0,0,0-.53-.17l-27.86-3.65-2.92-.26a8.06,8.06,0,0,0-2.45.16l-1.8.39a8.19,8.19,0,0,1-2.15.17"/><path class="cls-5" d="M372.88,175l-4-8.56c-.08-.15-.15-.3-.23-.44l-9.74-17.41-4.7-7.62a.2.2,0,0,0-.34.19l8.55,18.35,3.3,8.3.77,1.63a13.19,13.19,0,0,0,1.73,2.76l.84,1,2.23,2.82"/><polygon class="cls-5" points="373.85 175.43 372.89 174.96 371.25 176.01 371.62 176.83 371.64 177.94 373.46 178.69 374.06 177.96 375.13 177.77 375.05 175.83 373.85 175.43"/><circle class="cls-5" cx="373.19" cy="176.73" r="1.16"/><polyline class="cls-5" points="260.67 354.8 260.67 318.51 259.96 266.01"/><polyline class="cls-5" points="257.56 270.05 256.95 318.59 256.95 354.95"/><path class="cls-5" d="M257.27,266.25l-5.7,9.17-10,17.48-3.46,6.1a.19.19,0,0,0,.31.22l1.13-1.33a6,6,0,0,0,.49-.64l12.37-18,2.2-3.14a19.22,19.22,0,0,0,2.21-4.21l1.94-4.79"/><path class="cls-5" d="M260.86,266l38.1,2.15a.12.12,0,0,0,.06-.22l-.74-.39a1.48,1.48,0,0,0-.54-.17l-27.86-3.65-2.91-.26a8.15,8.15,0,0,0-2.46.16l-1.8.39a7.75,7.75,0,0,1-2.15.16"/><path class="cls-5" d="M258.4,263.2l-4-8.56a4.78,4.78,0,0,0-.23-.45l-9.73-17.4-4.7-7.62a.19.19,0,0,0-.34.18l8.55,18.36,3.29,8.29.77,1.64a14.37,14.37,0,0,0,1.73,2.76l.84,1,2.24,2.82"/><polygon class="cls-5" points="259.37 263.66 258.4 263.2 256.77 264.25 257.14 265.07 257.16 266.18 258.98 266.93 259.58 266.19 260.64 266 260.57 264.06 259.37 263.66"/><circle class="cls-5" cx="258.7" cy="264.96" r="1.16"/><polyline class="cls-5" points="456.03 258.12 456.03 230.27 455.32 177.77"/><polyline class="cls-5" points="452.97 177.93 452.31 230.36 452.31 257.64"/><path class="cls-5" d="M455.24,177.43l8.66,6.46,16.57,11.44,5.79,4a.2.2,0,0,0,.25-.3l-1.23-1.24a7.7,7.7,0,0,0-.6-.54l-16.91-13.84-2.95-2.46a18.29,18.29,0,0,0-4-2.55l-4.6-2.35"/><path class="cls-5" d="M455.26,173.84l5.35-37.79a.11.11,0,0,0-.21-.07l-.45.7a1.6,1.6,0,0,0-.22.52l-6,27.45-.5,2.89a8.06,8.06,0,0,0-.05,2.45l.24,1.83a7.81,7.81,0,0,1,0,2.16"/><path class="cls-5" d="M452.3,176.05l-8.87,3.31-.47.2-18.16,8.23-8,4a.19.19,0,0,0,.16.35l19-7,8.55-2.58,1.69-.63a13.47,13.47,0,0,0,2.9-1.49l1.1-.75,3-2"/><polygon class="cls-5" points="452.84 175.13 452.3 176.05 453.21 177.77 454.06 177.47 455.16 177.54 456.07 175.79 455.38 175.13 455.28 174.05 453.35 173.97 452.84 175.13"/><circle class="cls-5" cx="454.08" cy="175.9" r="1.16"/><polyline class="cls-5" points="299.07 260 299.07 230.27 298.36 177.77"/><polyline class="cls-5" points="296.01 177.93 295.36 230.36 295.36 258.6"/><path class="cls-5" d="M298.83,175.42l5.37-9.37,9.36-17.83L316.8,142a.19.19,0,0,0-.32-.21l-1.08,1.37a6.08,6.08,0,0,0-.47.66l-11.71,18.45-2.08,3.22a18.62,18.62,0,0,0-2.06,4.29l-1.77,4.85"/><path class="cls-5" d="M295.25,175.84l-38.15-.78a.12.12,0,0,0-.05.22l.75.36a1.33,1.33,0,0,0,.54.15l28,2.65,2.92.15a8.1,8.1,0,0,0,2.45-.24l1.78-.46a8.13,8.13,0,0,1,2.14-.24"/><path class="cls-5" d="M297.81,178.51l4.35,8.41c.08.15.16.29.25.43l10.35,17,5,7.45a.19.19,0,0,0,.33-.19l-9.2-18-3.6-8.17-.83-1.61a13.3,13.3,0,0,0-1.83-2.69l-.87-1-2.34-2.73"/><polygon class="cls-5" points="296.83 178.08 297.81 178.51 299.4 177.4 299 176.59 298.94 175.49 297.1 174.8 296.52 175.56 295.47 175.78 295.61 177.72 296.83 178.08"/><circle class="cls-5" cx="297.44" cy="176.75" r="1.16"/><polyline class="cls-5" points="224.44 257.73 224.44 230.27 223.73 177.77"/><polyline class="cls-5" points="221.38 177.93 220.72 230.36 220.72 259.33"/><path class="cls-5" d="M223.65,177.43l8.66,6.46,16.57,11.44,5.79,4a.2.2,0,0,0,.25-.3l-1.23-1.24a7.7,7.7,0,0,0-.6-.54l-16.91-13.84-3-2.46a18.29,18.29,0,0,0-4-2.55l-4.6-2.35"/><path class="cls-5" d="M223.67,173.84,229,136.05a.11.11,0,0,0-.21-.07l-.45.7a1.6,1.6,0,0,0-.22.52l-6,27.45-.5,2.89a8.06,8.06,0,0,0-.05,2.45l.24,1.83a7.81,7.81,0,0,1,0,2.16"/><path class="cls-5" d="M220.71,176.05l-8.87,3.31-.47.2-18.16,8.23-8,4a.19.19,0,0,0,.16.35l19-7,8.55-2.58,1.7-.63a13.63,13.63,0,0,0,2.89-1.49l1.1-.75,3-2"/><polygon class="cls-5" points="221.25 175.13 220.71 176.05 221.62 177.77 222.47 177.47 223.57 177.54 224.48 175.79 223.79 175.13 223.69 174.05 221.75 173.97 221.25 175.13"/><circle class="cls-5" cx="222.49" cy="175.9" r="1.16"/><polyline class="cls-5" points="337.13 354.2 337.13 323.43 336.43 270.92"/><polyline class="cls-5" points="334.07 271.08 333.42 323.51 333.42 355.16"/><path class="cls-5" d="M336.34,270.59l8.66,6.46,16.57,11.43,5.79,4a.19.19,0,0,0,.25-.29l-1.23-1.24a7.82,7.82,0,0,0-.6-.55l-16.91-13.84-2.95-2.46a19.25,19.25,0,0,0-4-2.55l-4.61-2.35"/><path class="cls-5" d="M336.36,267l5.36-37.78a.12.12,0,0,0-.22-.08l-.45.7a1.67,1.67,0,0,0-.21.52l-6,27.46-.5,2.88a8.12,8.12,0,0,0-.06,2.46l.24,1.83a7.74,7.74,0,0,1,0,2.15"/><path class="cls-5" d="M333.4,269.21l-8.87,3.31-.46.19-18.16,8.23-8,4a.2.2,0,0,0,.15.36l19-7,8.55-2.59,1.69-.63a13.63,13.63,0,0,0,2.89-1.49l1.11-.75,3-2"/><polygon class="cls-5" points="333.95 268.28 333.4 269.2 334.31 270.92 335.16 270.62 336.26 270.69 337.17 268.95 336.49 268.29 336.39 267.21 334.45 267.12 333.95 268.28"/><circle class="cls-5" cx="335.19" cy="269.06" r="1.16"/><polyline class="cls-5" points="421.1 354.15 421.1 323.43 420.39 270.92"/><polyline class="cls-5" points="418.04 271.08 417.39 323.51 417.39 355.15"/><path class="cls-5" d="M420.31,270.59l8.66,6.46,16.57,11.43,5.79,4a.19.19,0,0,0,.25-.29l-1.23-1.24a7.82,7.82,0,0,0-.6-.55l-16.91-13.84-2.95-2.46a19.06,19.06,0,0,0-4-2.55l-4.6-2.35"/><path class="cls-5" d="M420.33,267l5.35-37.78a.12.12,0,0,0-.21-.08l-.45.7a1.67,1.67,0,0,0-.21.52l-6,27.46-.5,2.88a8.11,8.11,0,0,0-.05,2.46l.24,1.83a7.74,7.74,0,0,1,0,2.15"/><path class="cls-5" d="M417.37,269.21l-8.87,3.31-.46.19-18.17,8.23-8,4a.2.2,0,0,0,.16.36l19-7,8.54-2.59,1.7-.63a13.63,13.63,0,0,0,2.89-1.49l1.1-.75,3-2"/><polygon class="cls-5" points="417.91 268.28 417.37 269.2 418.28 270.92 419.13 270.62 420.23 270.69 421.14 268.95 420.45 268.29 420.36 267.21 418.42 267.12 417.91 268.28"/><circle class="cls-5" cx="419.15" cy="269.06" r="1.16"/><path class="cls-5" d="M418.81,257.76a8.44,8.44,0,0,0-3.48,1.4h0a5.26,5.26,0,0,1-5.77,0,9.52,9.52,0,0,0-10.42,0,5.26,5.26,0,0,1-5.77,0,9.52,9.52,0,0,0-10.42,0,5.28,5.28,0,0,1-5.77,0,9.21,9.21,0,0,0-5.74-1.54"/><path class="cls-5" d="M452.31,257.64a8.83,8.83,0,0,0-4.6,1.53h0a5.27,5.27,0,0,1-5.78,0,9.5,9.5,0,0,0-10.41,0,5.31,5.31,0,0,1-5.78,0,8.68,8.68,0,0,0-4.09-1.5"/><path class="cls-5" d="M456,258.12a10.09,10.09,0,0,0-3.72-.48"/><path class="cls-5" d="M500.77,257.68a8.88,8.88,0,0,0-4.5,1.5,5.26,5.26,0,0,1-5.77,0h0a9.52,9.52,0,0,0-10.42,0,5.26,5.26,0,0,1-5.77,0h0a9.5,9.5,0,0,0-10.41,0h0a5.29,5.29,0,0,1-5.78,0,7.59,7.59,0,0,0-2.09-1.05"/><path class="cls-5" d="M253,259.41a5.31,5.31,0,0,1-5.3-.29h0a9.52,9.52,0,0,0-10.42,0,5.26,5.26,0,0,1-5.77,0h0a9.52,9.52,0,0,0-10.42,0,5.28,5.28,0,0,1-5.77,0,9.52,9.52,0,0,0-10.42,0h0a5.26,5.26,0,0,1-5.77,0,9.52,9.52,0,0,0-10.42,0,5.29,5.29,0,0,1-5.77,0,9.54,9.54,0,0,0-10.42,0,5.26,5.26,0,0,1-5.77,0,9.52,9.52,0,0,0-10.42,0,5.26,5.26,0,0,1-5.77,0,9.65,9.65,0,0,0-8.05-1.18"/><path class="cls-5" d="M334.65,259l-.27.18a5.26,5.26,0,0,1-5.77,0,9.52,9.52,0,0,0-10.42,0,5.26,5.26,0,0,1-5.77,0,9.5,9.5,0,0,0-10.41,0,5.29,5.29,0,0,1-5.78,0,9.5,9.5,0,0,0-10.41,0,5.27,5.27,0,0,1-5.78,0,9.5,9.5,0,0,0-10.41,0h0a5.31,5.31,0,0,1-5.78,0,9.52,9.52,0,0,0-7.93-1.18"/><path class="cls-5" d="M371.44,257.61a8.85,8.85,0,0,0-4.68,1.54,5.26,5.26,0,0,1-5.77,0,9.52,9.52,0,0,0-10.42,0,5.29,5.29,0,0,1-5.77,0,9.44,9.44,0,0,0-7-1.4"/><path class="cls-5" d="M281.42,352.91a8.51,8.51,0,0,0-3.73,1.43,5.27,5.27,0,0,1-5.78,0,9.5,9.5,0,0,0-10.41,0,5.26,5.26,0,0,1-5.77,0,9.52,9.52,0,0,0-10.42,0,5.29,5.29,0,0,1-5.77,0,7.64,7.64,0,0,0-1.46-.8"/><path class="cls-5" d="M356.86,352.91a8.51,8.51,0,0,0-3.73,1.43,5.27,5.27,0,0,1-5.78,0,9.5,9.5,0,0,0-10.41,0"/><path class="cls-5" d="M336.94,354.34a5.27,5.27,0,0,1-5.78,0,9.5,9.5,0,0,0-10.41,0,5.29,5.29,0,0,1-5.77,0,8,8,0,0,0-1.46-.8"/><path class="cls-5" d="M397.58,353.54a7.35,7.35,0,0,1,1.46.8,5.29,5.29,0,0,0,5.77,0,9.52,9.52,0,0,1,10.42,0,4.72,4.72,0,0,0,2.16.81,5.12,5.12,0,0,0,3.61-.81l.26-.18a9.55,9.55,0,0,1,10.16.18,5.26,5.26,0,0,0,5.77,0,8.56,8.56,0,0,1,3.73-1.43"/></g><polyline class="cls-6" points="180 271.81 25.02 271.81 25.02 49.63"/><circle class="cls-6" cx="25.02" cy="25.02" r="24.02"/><circle class="cls-7" cx="25.02" cy="25.02" r="14.16"/></svg>