<svg id="Layer_1" data-name="Layer 1" xmlns="http://www.w3.org/2000/svg" xmlns:xlink="http://www.w3.org/1999/xlink" viewBox="0 0 499.27 413.18"><defs><style>.cls-1,.cls-3,.cls-6,.cls-7{fill:none;}.cls-2{clip-path:url(#clip-path);}.cls-3,.cls-4,.cls-6,.cls-7{stroke:#82d7c6;}.cls-3,.cls-4,.cls-7{stroke-linecap:round;stroke-linejoin:round;}.cls-4{fill:#007188;stroke-width:3px;}.cls-5{clip-path:url(#clip-path-2);}.cls-6{stroke-miterlimit:10;}.cls-7{stroke-width:2px;}.cls-8{fill:#82d7c6;}</style><clipPath id="clip-path"><circle class="cls-1" cx="-181.8" cy="251.37" r="159.3"/></clipPath><clipPath id="clip-path-2"><circle class="cls-1" cx="337.47" cy="251.37" r="159.3"/></clipPath></defs><g class="cls-2"><line class="cls-3" x1="-320.59" y1="136.62" x2="30.26" y2="136.62"/><line class="cls-3" x1="-305.56" y1="144.58" x2="22.3" y2="144.58"/><line class="cls-3" x1="-401.33" y1="262.49" x2="32.34" y2="262.49"/><line class="cls-3" x1="-109.45" y1="276.96" x2="32.34" y2="276.96"/><line class="cls-3" x1="-109.45" y1="278.96" x2="32.34" y2="278.96"/><path class="cls-3" d="M2.49,279.12v7.16a1.23,1.23,0,0,1-1.24,1.24h0A1.24,1.24,0,0,1,0,286.28V279"/><path class="cls-3" d="M36.32,89.05S6.38,90.14-15.82,102.62l-29.25,34"/><path class="cls-3" d="M-58.51,262.49l-.58-2.53c-1.54-9.22-9.85-20.07-13.44-29.3s6.3-12.48,9-27.12,13.82-47.39,13.82-47.39,8.78-7.79,17.73-7.79,13.68,3.24,19.15,1,19.64-2.24,19.64-2.24"/><path class="cls-3" d="M-57.37,279.31s-2.64,5.38,3.14,10.91S-61.47,303-58,314.82s13,23,10.76,29.59S-43.14,358-31.8,358s14,1.21,19.29,3.38,9.4,2.89,17.12,1.21,13.5,16.63,33,10.12,61.49,28.46,61.49,28.46"/><path class="cls-3" d="M-52.2,215.46S-67,223.7-58.58,233.73A86.62,86.62,0,0,0-41.75,249.2s68.11-1.68,71.87,1.67,3.35-5.44-5.85-14.63-7.52-17.13-5.85-18.39-24.43-5.43-29.34-5S-31.76,207.5-52.2,215.46Z"/><path class="cls-3" d="M-26.38,170.19a22.23,22.23,0,0,0-23.11,15.45,38.31,38.31,0,0,1-2.29,5.89c-2.93,5.43-7.27,11.7-2.8,13.79s8.65-5,24.53-5.43,50.33,5.81,50.33,5.81S3.8,183.17,11.74,173.56Z"/></g><circle class="cls-4" cx="337.47" cy="251.37" r="159.3"/><g class="cls-5"><path class="cls-6" d="M376.94,202.18l4.12,27.72,11.57,1.6v-.71l-9.83-2.7,1-6.18,2.62-.71,37.16,10.7-1.11.71,4.64,1.4,4.22-13.64-11.67-3.55-3.81,1.28-.77-1.23-6.82,1.23-.76-3.21,23.06-4.3,21.9,6.15,31,8.8,11.68,3.24,16.47,2.3,37.53-2.65v8.15l-3.58,2.88-43.66,2-.71,1.27,6.75,9.84,5.35,6.19s9.42-.7,11.46-2.32,5.41-3.73,5.41-3.73l21.09-4.15,2.94,10.2-1.53,2.85-34.86,6.29-5.48,1.24-3.94.66,3,.65,33.47-5.91,27.4-4.9,13.66,1.53,1.24.66-3.5-21.48-2.72-4.64v-11l2.57-1.58,7-10.72L595,211V184.65s-15.14-8.12-35.28-1.65l-13.42-.82,2.94-2.36-.12-4.47L544,173.82l-.94,6.59-3.77,1.65,2.59-10.24-.94-1.06-2,8-1.65,3.18-7.77-.47,2.7-10.71-1.29-2.36-22.14-5.89L506,159.57l.24-2.94H501.5l-1.77,6.83,3.3,3.06,2.83-1.3,19.31,4.95,2.24,3.77.47,3.18-1,0-.36.84-1.66-.24.71,3.17L524,184H503.05l-4.89-1-4.2-2.73-11.24,2.54-4.59-2.64-.19,1.66-3.52-1.95.1-3.13-5.28-2.54-3.52,5.18,4.89,3.32.59,2.64-13.49,3.71-4.39-8-5.57,1.76,3.32,7.62-3.28,2.46-30.58,5.81-2.53-12.08.69-1.07-1.45-6.5L411.47,181l3.6,18.12-31.33,6.42v-1.37l-6-.51Z"/><polygon class="cls-6" points="432.45 221.03 487.62 236.56 488.14 238.68 487.4 241.21 497.34 240.68 508.33 256.64 470.39 246.39 428.23 234.34 432.45 221.03"/><polygon class="cls-6" points="322.09 236.31 320.33 234.76 323.25 230.2 325.2 229.33 326.14 231.65 335.2 232.82 334.77 234.33 325.2 234.91 323.68 233.53 322.09 236.31"/><polygon class="cls-6" points="314.04 246.36 317.45 244.69 322.16 238.9 319.33 236.72 311.94 244.69 314.04 246.36"/><polygon class="cls-6" points="316.61 224.22 318.32 221.84 320.33 223.7 321.75 228.47 320.33 229.9 316.61 224.22"/><polygon class="cls-6" points="303.67 214.46 304.76 215.66 305.88 215.66 313.85 223.11 315.86 221.17 314.89 219.23 308.49 214.84 307.81 212.45 308.26 211.71 306.43 210.36 303.67 214.46"/><polygon class="cls-6" points="332.59 284.62 333.86 287.37 339.35 291.12 340.12 290.43 337.18 286.8 345.57 281.11 344.06 278.88 334 285.67 332.59 284.62"/><polygon class="cls-6" points="344.72 278.22 346 280.45 355.58 274.05 358.52 276.7 360.39 275.19 358.09 272.81 362.36 269.16 360.7 267.55 354.54 270.82 344.72 278.22"/><polygon class="cls-6" points="359.66 277.7 361.22 279.26 360.65 281.3 343.63 292.25 341.02 290.79 340.36 291.78 344.43 294.39 365.92 280.07 361.32 275.8 359.66 277.7"/><polygon class="cls-6" points="356.29 270.49 344.72 259.63 342.54 255.27 343.15 250.95 340.36 249.01 338.84 254.79 341.02 260.96 353.14 272.48 356.29 270.49"/><polygon class="cls-6" points="344.31 236.72 341.75 240.88 343.38 244.92 345.57 248.18 344.72 248.65 358.21 260.74 364.66 267.55 368.08 267.55 374.68 270.49 376.47 270.01 380.01 262.01 380.66 259.29 380.01 242.75 379.11 242.28 377.79 233.35 374.53 232.82 376.08 244.3 374.29 247.41 369.01 250.13 347.53 238.55 344.31 236.72"/><polygon class="cls-6" points="425.02 246.36 423.93 251.66 431.19 252.82 431.19 257.59 432.49 258.8 419.17 273.05 416.13 274 406.15 285 407.19 285.1 408.48 283.37 410.48 284.15 416.18 277.78 416.48 275.04 418.66 275 435.36 258.8 446.05 260.82 446.9 263.66 433.45 278.56 429.88 275.35 429.33 277.59 432.3 280.44 424.49 289.89 423.58 290.55 421.52 290.55 420.86 292.67 421.76 293.46 423.58 291.52 425.28 292.92 436.66 280.92 446.35 290.19 444.48 292.79 445.63 293.46 460.64 279.11 459.31 277.96 447.44 289.83 436.96 280.32 456.16 260.57 442.6 253.85 436.3 250.52 431.88 249.07 425.02 246.36"/><polygon class="cls-6" points="392.67 282.22 395.59 280.45 441.55 307.07 440.32 308.76 439.14 308.25 433.4 307.69 421.93 300.98 418.39 299.49 412.76 307.31 412.04 306.46 416.04 298.41 412.19 294.61 401.12 288.22 399.59 288.47 392.67 282.22"/><polygon class="cls-6" points="443.26 310.12 444.63 307.99 480.11 307.31 480.11 309.27 451.2 310.12 450.43 312 449.32 312 447.95 310.63 443.26 310.12"/><path class="cls-6" d="M554.9,310.69l-16,1.21-89.09,1.7L426,335.49,419,337l-7.74,7.93-8.91.7-16.42,5.1-5.78.77-4.94,4.61-3.85.63-4.09-1-5.6,1.66-6.08,7.77-6.67,2.16q-3.87-11.75-7.66-23.51c-.17-.52-.33-1-.5-1.57l6-1.88,2.68,8.28,44.41-14.13L402,339l16.34-9.53,9.28-8.31L424,316.26l-13.17-8.62h-4l-29.95-17.51,3.71-3.85,6.47-7,3.76,1.92,3.57-3.14,4.12-2.26L395,269.5l2.93-.82,4.87-4.27L399,260.74l-6.55,2.91L387,250.44l6.06-6.5,28.71,6.82L423,247l-30.11-8.14-10.18,2.08s2.81,14.94,1.95,22.63-2.49,11.27-2.49,11.27l3.35,2.09v1.59l.16.08-6.17,6.68-25.82,26.68-20.27,5.74c-.06-.24-.15-.48-.22-.72a11.33,11.33,0,0,0-1.87-3.32,14.07,14.07,0,0,0-2.72-2.57A20.82,20.82,0,0,0,322,308l-1.07-.26L331.36,293l-2.05-1.45L318,307.4l-3.15-.32-1.74-.18,9.12-16.35-.44-.24-9.22,16.54-1.21-.13a25.77,25.77,0,0,0-3.62-.07v.05a24.66,24.66,0,0,0-3.63.45l3.67-2.82L317,287.77l12.23-20.09,10.36-29.32.73.9,7.25-12.69-.94-.72L341,234.76,338.1,234v2.61l0,0-10.06,7.59-.08.06-4.58,7.24-20.65,28.41-3.13,13.16-8.37,1.11,1.37,6.37,5.21,6.15.15,2.51a9.58,9.58,0,0,1-4.23.73,8.34,8.34,0,0,1-1.12-.12c-.36-.06-.75-.16-1.15-.25l-2.37-.53-.08,0h-2.59c-.4,0-.85,0-1.22,0a7.34,7.34,0,0,1-1.15-.1,9.23,9.23,0,0,1-5.85-3.4l-1.57-1.95-3.13-3.89a5.79,5.79,0,0,1-1.39-4.15c0-1.66,0-3.35,0-5a50.42,50.42,0,0,1,1.23-9.76l4.11-19.57a42.62,42.62,0,0,1,1.19-4.77,30.36,30.36,0,0,1,1.89-4.48l4.68-8.79L299.48,222l.29-.43,12.85-19.1.68.71.66-.57,5.42,2.61,1-1.26,6.27,6.26L348,222.68a11.89,11.89,0,0,0,6.26,2.09l1.71-.85,17.5,4.13.85,1.85h3.42l-4.27-29.6-10.25-1.42,1.71-2.42L362.38,194l-5.69,5.69-1.42-.71,6-6.92L360,191l-11.24,7.92,3.27,3.81,3-1.25-2.13,2.85L346.59,201v-3.1l15.51-12-1.71-2-18.64,13.23-5.19-7-4.49-6.76-5.34-.83-5.41-24-3.61-16.66,1.24-3,3.88,17.68.95-.43-4.53-21.12,2-2.85,6.5-1.09.08-.95L319,131.56l-.36-6.21L324.8,123l-.51-1.17L318.15,124l-2-4.31-.37-7.82-1.24-3.43,2.27-1.25L329,115.49l10.67,33.76,1.54-.59-10.46-35L314.13,103l-2.54-7.84-2.43-1.88,2.76-1.44-1.08-2.11.6-6.55,2.94,1.12,25.18,15.92L362.86,115l6.56,3.82,6.46-2.33,4.13-5.83-.95-.63-3.5,4.45-4.76-2.65,5.5-9.32-1.58-1-5.51,8.57L322.09,81.54l-.11-1-6.77-3.17,2.54-4-2.33-1.16,3.7-6.46,2.33-1.06,9.73,6.19,2-3.49,12.54,7.43.41-.87-8-4.86L338,68l-13.59-9.07,6.15-4.14-5.94-2.44-8,10.08s-2.76,4.45-4,5.41S307,69.22,307,69.22l-.53,3-7-1-10.08,1-3,3a15.38,15.38,0,0,1,.38-6.12c.88-3.79,3-17.64,3-17.64L275.17,70.32l-23.29-1.55-.29.82L275.34,97.1l.48,2.64L259.3,79.63l-5-4.79-18.67,15.8,5.26,6,3.23-2.51,3,3.47-3.23,3,7.42,8.62,2.4-.72,3.95,3.59,4.66-3.83.48-1.31,5.87,6.94-6,5.38A16.47,16.47,0,0,0,261,123c-.6,2-2.28,7.66-2.28,7.66l.22.15-2.86,11.41-12.74-2.36-3.11,5,1.94,3.1,10.91,2.55-4.95,16.66L234.68,195.9l-3,1.22,1.08,6.42-19.82,52.87v7l-4.45,6.89,5.75,24.67L221,304l1.68,8.88L229,323.34l2.75,10,8.44,5.54,2,9.91L255,350.68l13.56,10.94-1.34,1.44a6.74,6.74,0,0,0-1.81,4.29l-1.08,23.84v29.62h1.5V391.22l1.09-23.8a5.17,5.17,0,0,1,1.4-3.33l1.41-1.52.64.52,2.59,6.88,10.87,6.42,36.06,2.95,27.2-8.82c.08.23.15.47.22.7l2.12,6.66,2,6.69,4.08,13.37.05.15.08.15,14.1,25.53,3.07-1.71-14.37-25.21-4.21-13.17L352.09,377l-2.21-6.64c-.07-.23-.15-.46-.22-.7l7.38-2.39,6.06-7.74,4.19-1.24,3.93.95,5.09-.83,4.91-4.59,5.2-.69,16.36-5.08,9.56-.75,7.87-8.06,6.94-1.44,23.69-21.72L539,314.41l16.06-1.22ZM340.25,340.78q-1.63-5.16-3.25-10.33c-.11-.38-.22-.75-.34-1.12l31.77-8.82,13.2,7.27Zm-2.25.67-28.44,8.15L309,337.75l25.59-7.81.33,1.14Q336.42,336.29,338,341.45Zm12.36,5.27-2.21-6.84,35.31-11.1,8.52,4.69Zm4.09-33.45,21.32-22,30.63,17.9h4l12.55,8.23,2.62,3.55-8.08,7.26-15.53,9.06-33.31-18.35-32.4,9c-.41-1.38-.82-2.75-1.22-4.12-.33-1.12-.63-2.23-.94-3.35l-.31-1.28Zm-22.39,7.66c.3,1.14.59,2.28.9,3.41.39,1.39.78,2.77,1.18,4.15l-25.25,7.71-.46-9,23.35-7.44Zm-66.58-16.41-8.26,4.91-1-2.07,2.39-50.1v-2.2l3.76-6.74c2,1,4.93,2.4,7.95,3.9l-3.13,5.72Zm.62,1.39,16.76,16.47,24.07,4.87.44,8.7-28.55-5.81-20.66-19.52Zm-3-58.91,16-28.62,2-3,7.72,2.74L274,245.57l-2.92,5.33C268.27,249.51,265.28,248,263.13,247Zm14.7-29.42-16.06,28.77c-.83-.38-1.4-.64-1.59-.7-.86-.29-4.51.58-8,1.52.37-.89.79-1.82,1.28-2.8,3.47-6.94,16.11-28.2,20.27-35.18l6,5.37Zm-22.3,19.89-31,11.34L237,214.14l11.58-27.47.27-.89,14,13.68,9.76,8.71C269.46,213.49,260.8,228.06,255.53,237.47Zm-.38.67c-1.26,2.26-2.3,4.19-3,5.56a42.73,42.73,0,0,0-1.75,4l-2.08.6-27.28,10.3,3.29-9.15Zm-6.37,11.58,1-.3a22.21,22.21,0,0,0-1.35,8.3l-.91,15.58-25.46,10.44-4-9.77,2.56-13.64Zm-1.27,24.13-1.3,22.55-15.64,8.21-8.3-20.41Zm2.44-16.1v-.13s-.31-3.29,1.61-8.7c3.88-1.08,7.51-1.95,8.15-1.84.15,0,.62.26,1.32.59l-3.9,7v2.56l-2.41,50.43,1.2,2.54L247.76,315l-1-2.22Zm6.87,53.66,21.28,20.12,29.34,6,.63,12.46-36.3-7.88-23.11-25.83Zm51.33,40.11.64,12.83-26.92-2.44-14.34-11.53,4.2-6.76Zm-14.6-51.43L292.47,295l8-1.06,3.24-13.63,20.55-28.27,4.5-7.12,10-7.56.05.05-10.53,29.81-12.19,20L307,303.66l-5.33,4.1c-.43.13-.85.28-1.27.43s-1,.39-1.46.59l-.15-2.48ZM277.24,256A41.78,41.78,0,0,0,276,260.9l-4.12,19.56a52.14,52.14,0,0,0-1.26,10c0,1.71,0,3.35,0,5a10.53,10.53,0,0,0,.05,1.35,7.08,7.08,0,0,0,.32,1.36,7.35,7.35,0,0,0,1.35,2.4l3.13,3.89,1.57,2a10.62,10.62,0,0,0,1.91,1.88,10.81,10.81,0,0,0,4.9,2.08,10.26,10.26,0,0,0,1.34.12c.46,0,.85,0,1.27,0h2.42l2.28.52.6.13.63.13a11.23,11.23,0,0,0,1.3.14,11.09,11.09,0,0,0,5.08-.92c.76-.34,1.46-.65,2.2-.92s1.48-.5,2.24-.7a22.81,22.81,0,0,1,4.64-.69v.05a22.34,22.34,0,0,1,3.37.11l3.45.4,3.47.39,1.73.2a8.76,8.76,0,0,1,1.59.35,19.15,19.15,0,0,1,6,2.86,10.55,10.55,0,0,1,3.82,5c.06.21.14.42.19.64l-23.83,7.59-24-4.86L267,304.66l1.72-46.31,3-5.46,5.65,2.81ZM284,242.36l0,0,0,0-4.71,8.82a31.6,31.6,0,0,0-1.37,3l-5.44-2.71,2.89-5.28,14.95-27.71,3.61,1.28,4.16,1.62ZM261.11,132.22l.82.55,2-.55,21.42,4.38-4.61-18.76,2.34-3,2.35,4.06-.71.16.47,4.38-1.33.31,2,2.74,3,11.73-1.41.07,2.19,5.56,3.91-5.71,2.66,1.95-4.54,7.9,5.86,21.81,2,4.46,1.64-.63,5.87,10.48-3.6,1.56-6.18-10.13a12.14,12.14,0,0,0-1.84,7.63c.44,4.45.89,7,.89,7h5.53l1.27,1.47,1.05,1.21,7.41,8.56-13.26,19.69-4.27-1.66-3.55-1.25-1.43-.51-7.69-2.73-1.3-.76-6-5.39,1.09-1.81,10.18-15.16,8.38-.82v-2.4l-5.94-.41.75-1.13-1.25-.84-.29.45,1.4-27.18.46-7.32-1.15-6.56L282.41,147l-.13,2.37-.72-.17h-.94l-19.81.78L257,148.66Zm-18,14.38L242,144.81l2.07-3.33,11.64,2.16-1.21,4.8-.57.68Zm4,28.52,3.32-7.11,5.21-17.51,6.77,1.48,8.93-1.07,10.87-1.07-.54,9.31h-4.77l-3.19.37,0-.51-12.08,1.93v13.6L272,184.93l.94-13.09.69-10.8,3.33-.38h4.7l.36,11V192.1l1.34-.13-9.51,14.17s-.38.61-1,1.59l-9.67-8.63L244.5,180.79Zm25-13.9-.67,10.52-.71,9.78-7.54-7.6V162.25Zm-56.7,95.65L235.2,204.1l.12-.31-.86-5.1,2.07-.83,7.74-16.59,4.21,4.11-.34,1.12L236.56,214l-16.11,44.79v.05l-.72.28h-4.3Zm15.89,65.47L225,312l-1.71-9-6.8-9.11-5.39-23.12,4.28-6.62v-3.53H220l.12,0L217.59,274l16,39.22.46-.18-3.25-8L246.17,297l-.92,15.93v.18l1.22,2.71-14.57,8.64Zm24.69,26-11.72-1.75-1.86-9.21-8.52-5.6L232.31,326l15-8.92,23.1,25.81-4.09,6.58-11.64-9.36-.94,1.18,11.78,9.46-2.2,3.53Zm14.22,11.49-5.69-4.6,2.2-3.53,6.33,5.09Zm49.33,17-35-2.86-9.62-5.68-2.51-6.69-1-.84,2.84-3,7,5.66,29.1,2.65-.74-14.86,28.8-8.26c.16.54.32,1.07.49,1.6.6,2,1.21,3.92,1.82,5.88l-8.36,2.31.4,1.46,8.4-2.33q2.54,8.18,5.1,16.32Z"/></g><polyline class="cls-7" points="179 270.81 24.02 270.81 24.02 48.63"/><circle class="cls-7" cx="24.02" cy="24.02" r="24.02"/><circle class="cls-8" cx="24.02" cy="24.02" r="14.16"/><circle class="cls-1" cx="337.47" cy="251.37" r="159.3"/></svg>