<svg id="Layer_1" data-name="Layer 1" xmlns="http://www.w3.org/2000/svg" xmlns:xlink="http://www.w3.org/1999/xlink" viewBox="0 0 499.27 413.18"><defs><style>.cls-1,.cls-2,.cls-5,.cls-6{fill:none;}.cls-2,.cls-3,.cls-5,.cls-6{stroke:#82d7c6;stroke-linecap:round;stroke-linejoin:round;}.cls-2,.cls-3{stroke-width:3px;}.cls-3{fill:#007188;}.cls-4{clip-path:url(#clip-path);}.cls-6{stroke-width:2px;}.cls-7{fill:#82d7c6;}</style><clipPath id="clip-path"><circle class="cls-1" cx="338.47" cy="252.37" r="159.3"/></clipPath></defs><circle class="cls-2" cx="338.47" cy="252.37" r="159.3"/><circle class="cls-3" cx="338.47" cy="252.37" r="159.3"/><g class="cls-4"><polyline class="cls-5" points="236.94 286.44 236.94 268.43 335.19 268.43 341.8 255.21 465.34 255.21 440.5 286.44"/><circle class="cls-5" cx="431.55" cy="266.55" r="3.13"/><polygon class="cls-5" points="439.21 248.6 465.34 248.6 465.34 253.16 437.99 252.25 439.21 248.6"/><line class="cls-5" x1="465.34" y1="255.21" x2="464.6" y2="253.16"/><line class="cls-5" x1="293.48" y1="233.58" x2="293.48" y2="268.43"/><path class="cls-5" d="M462.89,248.6l-1.33-3.94s-15.14,0-20.33-1.2-8.47-4-10.16-7.62l-22.79-4.59L404,223.66H392.25l-4.6,7.8H363.92l-4.7-7.8h-9.73l-4.06,7.05h-5l-2.57,2.57h-44"/><rect class="cls-5" x="297.22" y="239.8" width="3.63" height="5.67"/><rect class="cls-5" x="305.67" y="239.8" width="3.63" height="5.67"/><rect class="cls-5" x="314.11" y="239.8" width="3.63" height="5.67"/><polyline class="cls-5" points="305.13 268.43 305.13 253.16 320.85 253.16 331.32 236.49"/><line class="cls-5" x1="333.35" y1="268.43" x2="333.35" y2="233.39"/><line class="cls-5" x1="333.35" y1="236.49" x2="293.59" y2="236.49"/><rect class="cls-5" x="349.66" y="238.05" width="3.3" height="5.75"/><rect class="cls-5" x="361.06" y="238.05" width="3.3" height="5.75"/><rect class="cls-5" x="372.45" y="238.05" width="3.3" height="5.75"/><rect class="cls-5" x="383.85" y="238.05" width="3.3" height="5.75"/><rect class="cls-5" x="395.25" y="238.05" width="3.3" height="5.75"/><polyline class="cls-5" points="315.93 233.39 315.93 221 333.35 221 333.35 233.39"/><rect class="cls-5" x="262.52" y="240.93" width="7.46" height="27.51"/><rect class="cls-5" x="263.31" y="226.04" width="5.87" height="14.88"/><line class="cls-5" x1="266.25" y1="226.04" x2="266.25" y2="240.93"/><polygon class="cls-5" points="349.49 223.66 344.45 212.47 409.69 212.47 404 223.66 349.49 223.66"/><polyline class="cls-5" points="363.92 231.46 345.48 231.46 345.13 230.71"/><line class="cls-5" x1="387.65" y1="231.46" x2="408.28" y2="231.46"/><line class="cls-5" x1="353.7" y1="212.47" x2="355.35" y2="223.66"/><line class="cls-5" x1="361.77" y1="212.47" x2="363.42" y2="223.66"/><line class="cls-5" x1="369.93" y1="212.47" x2="371.58" y2="223.66"/><line class="cls-5" x1="381.72" y1="212.47" x2="380.9" y2="223.66"/><line class="cls-5" x1="389.58" y1="212.47" x2="388.76" y2="223.66"/><line class="cls-5" x1="399.6" y1="212.47" x2="397.56" y2="223.66"/><polyline class="cls-5" points="344.45 212.47 346.32 208.9 406.23 208.9 409.69 212.47"/><path class="cls-5" d="M374.08,183.56h0a1,1,0,0,1,1,1v24.3a0,0,0,0,1,0,0H373a0,0,0,0,1,0,0V184.6a1,1,0,0,1,1-1Z"/><path class="cls-5" d="M380.26,193.33h0a1,1,0,0,1,1,1V208.9a0,0,0,0,1,0,0h-2.09a0,0,0,0,1,0,0V194.37A1,1,0,0,1,380.26,193.33Z"/><circle class="cls-5" cx="342.6" cy="189.06" r="4.87"/><line class="cls-5" x1="343.7" y1="193.93" x2="347.47" y2="208.9"/><line class="cls-5" x1="346.29" y1="192.24" x2="356.17" y2="208.9"/><polyline class="cls-5" points="339.34 192.67 329.67 192.67 329.67 191.1 338.18 191.1"/><line class="cls-5" x1="337.15" y1="197.83" x2="335.09" y2="192.67"/><polyline class="cls-5" points="336.3 198.93 338.45 204.31 339.56 203.86 337.59 198.93"/><line class="cls-5" x1="333.79" y1="192.67" x2="335.86" y2="197.83"/><polyline class="cls-5" points="334.46 191.1 332.07 185.13 331.97 185.16 331.97 185.13 326.95 185.13 326.95 185.97 331.11 185.97 333.17 191.1"/><path class="cls-5" d="M337.59,198.93h-2.75a.55.55,0,0,1-.55-.55h0a.55.55,0,0,1,.55-.55h22.92a.55.55,0,0,1,.55.55h0a.55.55,0,0,1-.55.55H337.59"/><rect class="cls-5" x="344.45" y="204.37" width="16.69" height="1.1" rx="0.55"/><rect class="cls-5" x="359.47" y="200.57" width="0.69" height="3.8"/><rect class="cls-5" x="360.16" y="200.57" width="3.8" height="2.43"/><rect class="cls-5" x="353.7" y="193.93" width="0.69" height="3.8"/><rect class="cls-5" x="354.39" y="193.93" width="3.8" height="2.43"/><path class="cls-5" d="M392.52,200h0A1.08,1.08,0,0,1,393.6,201v7.87a0,0,0,0,1,0,0h-2.15a0,0,0,0,1,0,0V201A1.08,1.08,0,0,1,392.52,200Z"/><path class="cls-5" d="M393.6,202.5s7.26-4.65,6.54-2.66-6.54,4.38-6.54,4.38"/><path class="cls-5" d="M391.45,202.5s-7.26-4.65-6.54-2.66,6.54,4.38,6.54,4.38"/><polyline class="cls-5" points="461.56 244.66 343.7 249.41 341.8 255.21"/><rect class="cls-5" x="264.8" y="223.66" width="3.06" height="2.39"/><path class="cls-5" d="M267,223.67l20.13.61a.53.53,0,0,0,.22,0l21.29-5.09a.84.84,0,0,0,.65-.82h0a.85.85,0,0,0-.81-.85l-20.79-.9a.69.69,0,0,0-.25,0L266.79,222a.85.85,0,0,0-.22,1.55l0,0A.93.93,0,0,0,267,223.67Z"/><path class="cls-5" d="M303.41,220.76l-14.34,13.06a1.05,1.05,0,0,0,0,1.57h0a1.05,1.05,0,0,0,1.23.09l18.24-11.32a1,1,0,0,0-.13-1.83l-3.9-1.75A1,1,0,0,0,303.41,220.76Z"/><path class="cls-5" d="M242,268.43l-12.48-40.72a1.28,1.28,0,0,0-1.21-.89h-4.47a1.27,1.27,0,0,1-1.24-1.53h0a1.26,1.26,0,0,1,1.24-1H230a1.28,1.28,0,0,1,1.17.76L250,268.43"/><polyline class="cls-5" points="245.3 257.54 248.66 257.54 256.04 268.43"/><polyline class="cls-5" points="223.25 224.29 221.78 221.12 228.63 221.12 228.63 224.29"/><line class="cls-5" x1="233.98" y1="242.22" x2="237.87" y2="240.45"/><line class="cls-5" x1="236.46" y1="249.73" x2="240.94" y2="247.7"/><path class="cls-5" d="M516,284.4a9.16,9.16,0,0,0-4.71,1.57,5.52,5.52,0,0,1-6,0h0a9.94,9.94,0,0,0-10.89,0,5.52,5.52,0,0,1-6,0h0a10,10,0,0,0-10.9,0h0a5.52,5.52,0,0,1-6,0,9.94,9.94,0,0,0-10.9,0h0a5.52,5.52,0,0,1-6,0,10,10,0,0,0-10.9,0,5.52,5.52,0,0,1-6,0,10,10,0,0,0-10.9,0h0a5.5,5.5,0,0,1-6,0,10,10,0,0,0-10.9,0,5.52,5.52,0,0,1-6,0,10,10,0,0,0-10.9,0,5.52,5.52,0,0,1-6,0,9.94,9.94,0,0,0-10.9,0,5.54,5.54,0,0,1-6,0,10,10,0,0,0-10.9,0,5.5,5.5,0,0,1-6,0,9.94,9.94,0,0,0-10.9,0,5.52,5.52,0,0,1-6,0,10,10,0,0,0-10.9,0,5.52,5.52,0,0,1-6,0,10,10,0,0,0-10.9,0,5.52,5.52,0,0,1-6,0,10,10,0,0,0-10.9,0,5.52,5.52,0,0,1-6,0,10,10,0,0,0-10.89,0h0a5.52,5.52,0,0,1-6,0,9.94,9.94,0,0,0-10.9,0,5.52,5.52,0,0,1-6,0h0a10,10,0,0,0-10.9,0,5.52,5.52,0,0,1-6,0h0a10,10,0,0,0-10.9,0,5.52,5.52,0,0,1-6,0,10,10,0,0,0-10.9,0h0a5.5,5.5,0,0,1-6,0,10,10,0,0,0-10.9,0,5.52,5.52,0,0,1-6,0,9.94,9.94,0,0,0-10.9,0,5.54,5.54,0,0,1-6,0,10,10,0,0,0-10.9,0,5.52,5.52,0,0,1-6,0,10.13,10.13,0,0,0-8.43-1.24v290.2H516Z"/></g><polyline class="cls-6" points="180 271.81 25.02 271.81 25.02 49.63"/><circle class="cls-6" cx="25.02" cy="25.02" r="24.02"/><circle class="cls-7" cx="25.02" cy="25.02" r="14.16"/></svg>