<svg id="Layer_1" data-name="Layer 1" xmlns="http://www.w3.org/2000/svg" xmlns:xlink="http://www.w3.org/1999/xlink" viewBox="0 0 499.27 413.18"><defs><style>.cls-1,.cls-3,.cls-5,.cls-8{fill:none;}.cls-2{clip-path:url(#clip-path);}.cls-3,.cls-5,.cls-6,.cls-8{stroke:#82d7c6;stroke-linecap:round;stroke-linejoin:round;}.cls-4{clip-path:url(#clip-path-2);}.cls-5,.cls-6{stroke-width:3px;}.cls-6{fill:#007188;}.cls-7{clip-path:url(#clip-path-3);}.cls-8{stroke-width:2px;}.cls-9{fill:#82d7c6;}</style><clipPath id="clip-path"><circle class="cls-1" cx="-181.8" cy="-181.8" r="159.3"/></clipPath><clipPath id="clip-path-2"><circle class="cls-1" cx="-181.8" cy="251.37" r="159.3"/></clipPath><clipPath id="clip-path-3"><circle class="cls-1" cx="337.47" cy="251.37" r="159.3"/></clipPath></defs><g class="cls-2"><path class="cls-3" d="M6.19-222.31a8.52,8.52,0,0,0-4.39,1.47,5.15,5.15,0,0,1-5.64,0h0a9.29,9.29,0,0,0-10.16,0,5.14,5.14,0,0,1-5.63,0h0a9.29,9.29,0,0,0-10.17,0h0a5.14,5.14,0,0,1-5.63,0,9.29,9.29,0,0,0-10.17,0h0a5.16,5.16,0,0,1-5.63,0,9.29,9.29,0,0,0-10.17,0,5.14,5.14,0,0,1-5.63,0,9.27,9.27,0,0,0-10.16,0h0a5.15,5.15,0,0,1-5.64,0,9.27,9.27,0,0,0-10.16,0,5.16,5.16,0,0,1-5.63,0,9.29,9.29,0,0,0-10.17,0,5.14,5.14,0,0,1-5.63,0,9.29,9.29,0,0,0-10.17,0,5.14,5.14,0,0,1-5.63,0,9.29,9.29,0,0,0-10.17,0,5.14,5.14,0,0,1-5.63,0,9.29,9.29,0,0,0-10.17,0,5.14,5.14,0,0,1-5.63,0,9.27,9.27,0,0,0-10.16,0,5.17,5.17,0,0,1-5.64,0,9.27,9.27,0,0,0-10.16,0,5.14,5.14,0,0,1-5.63,0,9.29,9.29,0,0,0-10.17,0,5.14,5.14,0,0,1-5.63,0,9.31,9.31,0,0,0-10.17,0h0a5.14,5.14,0,0,1-5.63,0,9.29,9.29,0,0,0-10.17,0,5.14,5.14,0,0,1-5.63,0h0a9.27,9.27,0,0,0-10.16,0,5.17,5.17,0,0,1-5.64,0h0a9.27,9.27,0,0,0-10.16,0,5.15,5.15,0,0,1-5.64,0,9.27,9.27,0,0,0-10.16,0h0a5.14,5.14,0,0,1-5.63,0,9.31,9.31,0,0,0-10.17,0,5.14,5.14,0,0,1-5.63,0,9.29,9.29,0,0,0-10.17,0,5.14,5.14,0,0,1-5.63,0,9.29,9.29,0,0,0-10.17,0,5.16,5.16,0,0,1-5.63,0,9.43,9.43,0,0,0-7.86-1.16V48.6H6.19Z"/></g><g class="cls-4"><path class="cls-3" d="M54.31,302.62a11,11,0,0,0-5.64,1.88,6.59,6.59,0,0,1-7.23,0h0a11.93,11.93,0,0,0-13,0,6.63,6.63,0,0,1-7.23,0h0a11.91,11.91,0,0,0-13,0h0a6.61,6.61,0,0,1-7.24,0,11.93,11.93,0,0,0-13,0h0a6.63,6.63,0,0,1-7.23,0,11.91,11.91,0,0,0-13,0,6.59,6.59,0,0,1-7.23,0,11.93,11.93,0,0,0-13.05,0h0a6.65,6.65,0,0,1-7.24,0,11.91,11.91,0,0,0-13.05,0,6.59,6.59,0,0,1-7.23,0,11.93,11.93,0,0,0-13,0,6.63,6.63,0,0,1-7.23,0,11.93,11.93,0,0,0-13.06,0,6.59,6.59,0,0,1-7.23,0,11.93,11.93,0,0,0-13,0,6.63,6.63,0,0,1-7.23,0,11.91,11.91,0,0,0-13,0,6.61,6.61,0,0,1-7.24,0,11.93,11.93,0,0,0-13,0,6.63,6.63,0,0,1-7.23,0,11.91,11.91,0,0,0-13,0,6.59,6.59,0,0,1-7.23,0,12,12,0,0,0-13.06,0,6.63,6.63,0,0,1-7.23,0,11.91,11.91,0,0,0-13.05,0h0a6.59,6.59,0,0,1-7.23,0,11.93,11.93,0,0,0-13.05,0,6.65,6.65,0,0,1-7.24,0h0a11.91,11.91,0,0,0-13.05,0,6.59,6.59,0,0,1-7.23,0h0a11.93,11.93,0,0,0-13,0,6.63,6.63,0,0,1-7.23,0,11.91,11.91,0,0,0-13.05,0h0a6.61,6.61,0,0,1-7.24,0,11.93,11.93,0,0,0-13.05,0,6.63,6.63,0,0,1-7.23,0,11.91,11.91,0,0,0-13.05,0,6.59,6.59,0,0,1-7.23,0,12,12,0,0,0-13.06,0,6.61,6.61,0,0,1-7.23,0,12.15,12.15,0,0,0-10.09-1.49V650.44H54.31Z"/></g><circle class="cls-5" cx="337.47" cy="251.37" r="159.3"/><circle class="cls-6" cx="337.47" cy="251.37" r="159.3"/><g class="cls-7"><path class="cls-3" d="M573.58,302.62a11,11,0,0,0-5.64,1.88,6.59,6.59,0,0,1-7.23,0h0a11.93,11.93,0,0,0-13.05,0,6.63,6.63,0,0,1-7.23,0h0a11.91,11.91,0,0,0-13,0h0a6.61,6.61,0,0,1-7.24,0,11.93,11.93,0,0,0-13.05,0h0a6.63,6.63,0,0,1-7.23,0,11.91,11.91,0,0,0-13.05,0,6.59,6.59,0,0,1-7.23,0,12,12,0,0,0-13.06,0h0a6.63,6.63,0,0,1-7.23,0,11.91,11.91,0,0,0-13.05,0,6.59,6.59,0,0,1-7.23,0,11.93,11.93,0,0,0-13.05,0,6.65,6.65,0,0,1-7.24,0,11.91,11.91,0,0,0-13.05,0,6.59,6.59,0,0,1-7.23,0,11.93,11.93,0,0,0-13.05,0,6.63,6.63,0,0,1-7.23,0,11.93,11.93,0,0,0-13.06,0,6.59,6.59,0,0,1-7.23,0,11.93,11.93,0,0,0-13.05,0,6.63,6.63,0,0,1-7.23,0,11.91,11.91,0,0,0-13,0,6.61,6.61,0,0,1-7.24,0,11.93,11.93,0,0,0-13.05,0,6.63,6.63,0,0,1-7.23,0,11.91,11.91,0,0,0-13,0h0a6.59,6.59,0,0,1-7.23,0,11.93,11.93,0,0,0-13.05,0,6.65,6.65,0,0,1-7.24,0h0a11.91,11.91,0,0,0-13,0,6.59,6.59,0,0,1-7.23,0h0a11.93,11.93,0,0,0-13,0,6.63,6.63,0,0,1-7.23,0,11.93,11.93,0,0,0-13.06,0h0a6.59,6.59,0,0,1-7.23,0,11.93,11.93,0,0,0-13,0,6.63,6.63,0,0,1-7.23,0,11.91,11.91,0,0,0-13,0,6.61,6.61,0,0,1-7.24,0,11.93,11.93,0,0,0-13.05,0,6.61,6.61,0,0,1-7.23,0,12.15,12.15,0,0,0-10.09-1.49V650.44H573.58Z"/><line class="cls-3" x1="478.26" y1="264.51" x2="406.06" y2="264.51"/><path class="cls-3" d="M362.24,290.76s-11.63,0-12.41,7.75v4.09"/><line class="cls-3" x1="406.06" y1="256.63" x2="478.99" y2="256.63"/><line class="cls-3" x1="479.5" y1="251.01" x2="401.02" y2="251.01"/><polyline class="cls-3" points="491.52 279.71 487.77 238.8 480.62 238.8 476.56 283.13"/><polyline class="cls-3" points="401.02 251.01 401.02 255.47 406.06 255.47 406.06 270.23"/><polyline class="cls-3" points="378.92 269.5 378.92 239.96 401.02 239.96 401.02 251.01"/><path class="cls-3" d="M491.52,279.71h81.67l6.59-11.83h28.31l1.16,19-247,3.88s-2.71-16.29-14.73-22.11L434,271l3.49,10.86,39.09,1.29"/><polyline class="cls-3" points="476.56 283.13 484.39 283.39 489.43 279.71 491.52 279.71"/><path class="cls-3" d="M374.57,238v-9.69a.31.31,0,0,0-.31-.31.3.3,0,0,0-.3.31v9.58"/><path class="cls-3" d="M365.43,238v-9.69a.31.31,0,0,0-.62,0V238"/><path class="cls-3" d="M197.81,305.35a278,278,0,0,1,17.05-39.45c8.57-16,19.33-30.56,33.22-40.26a56.16,56.16,0,0,1,23.17-9.59,63,63,0,0,1,26.38,1.62,97,97,0,0,1,25.88,11.5,128.62,128.62,0,0,1,20.8,15.94"/><path class="cls-3" d="M345.05,244.65a132.41,132.41,0,0,0-17.86-20.3,105.92,105.92,0,0,0-25.31-17.75,78.06,78.06,0,0,0-31.52-8.19,76.62,76.62,0,0,0-33.24,6.49,115.09,115.09,0,0,0-28.35,17.83c-2.25,1.69-4.05,3.65-6.11,5.49s-4.11,3.7-5.89,5.7l-5.5,6-2.74,3L186,246c-13.68,16.55-24.89,34.46-35,52.72"/><rect class="cls-3" x="391.04" y="245.79" width="3.05" height="6.96" transform="translate(785.12 498.54) rotate(-180)"/><rect class="cls-3" x="385.16" y="245.79" width="3.05" height="6.96" transform="translate(773.37 498.54) rotate(-180)"/><path class="cls-3" d="M338.76,252.94l5.3-3-2.13-3.38,4.65-2.92,3,4.81h12.64V238h5.82v10.47h2.71V238h5.82v10.47h2.33v5H367.29l-4.06,8.6,2.15,6.52H347.51l-6.84-.51a5.62,5.62,0,0,1-4.8-5.56v-4.73A5.65,5.65,0,0,1,338.76,252.94Z"/></g><polyline class="cls-8" points="179 270.81 24.02 270.81 24.02 48.63"/><circle class="cls-8" cx="24.02" cy="24.02" r="24.02"/><circle class="cls-9" cx="24.02" cy="24.02" r="14.16"/><line class="cls-3" x1="357.86" y1="278.91" x2="436.53" y2="278.91"/></svg>