<svg id="Layer_1" data-name="Layer 1" xmlns="http://www.w3.org/2000/svg" xmlns:xlink="http://www.w3.org/1999/xlink" viewBox="0 0 499.27 413.18"><defs><style>.cls-1,.cls-3,.cls-4,.cls-7{fill:none;}.cls-2{clip-path:url(#clip-path);}.cls-3,.cls-4,.cls-5,.cls-7{stroke:#82d7c6;stroke-linecap:round;stroke-linejoin:round;}.cls-4,.cls-5{stroke-width:3px;}.cls-5{fill:#007188;}.cls-6{clip-path:url(#clip-path-2);}.cls-7{stroke-width:2px;}.cls-8{fill:#82d7c6;}</style><clipPath id="clip-path"><circle class="cls-1" cx="338.47" cy="-180.8" r="159.3"/></clipPath><clipPath id="clip-path-2"><circle class="cls-1" cx="337.47" cy="251.37" r="159.3"/></clipPath></defs><g class="cls-2"><path class="cls-3" d="M516-148.78a9.25,9.25,0,0,0-4.71,1.57,5.52,5.52,0,0,1-6,0h0a9.92,9.92,0,0,0-10.89,0,5.52,5.52,0,0,1-6,0h0a10,10,0,0,0-10.9,0h0a5.52,5.52,0,0,1-6,0,10,10,0,0,0-10.9,0h0a5.52,5.52,0,0,1-6,0,9.94,9.94,0,0,0-10.9,0,5.54,5.54,0,0,1-6,0,10,10,0,0,0-10.9,0h0a5.5,5.5,0,0,1-6,0,9.94,9.94,0,0,0-10.9,0,5.52,5.52,0,0,1-6,0,10,10,0,0,0-10.9,0,5.52,5.52,0,0,1-6,0,10,10,0,0,0-10.9,0,5.52,5.52,0,0,1-6,0,10,10,0,0,0-10.9,0,5.5,5.5,0,0,1-6,0,10,10,0,0,0-10.9,0,5.52,5.52,0,0,1-6,0,9.94,9.94,0,0,0-10.9,0,5.52,5.52,0,0,1-6,0,10,10,0,0,0-10.9,0,5.52,5.52,0,0,1-6,0,9.94,9.94,0,0,0-10.9,0,5.52,5.52,0,0,1-6,0,9.94,9.94,0,0,0-10.89,0h0a5.52,5.52,0,0,1-6,0,10,10,0,0,0-10.9,0,5.52,5.52,0,0,1-6,0h0a9.94,9.94,0,0,0-10.9,0,5.54,5.54,0,0,1-6,0h0a10,10,0,0,0-10.9,0,5.52,5.52,0,0,1-6,0,9.94,9.94,0,0,0-10.9,0h0a5.5,5.5,0,0,1-6,0,10,10,0,0,0-10.9,0,5.52,5.52,0,0,1-6,0,10,10,0,0,0-10.9,0,5.52,5.52,0,0,1-6,0,10,10,0,0,0-10.9,0,5.52,5.52,0,0,1-6,0,10.13,10.13,0,0,0-8.43-1.24v290.2H516Z"/></g><circle class="cls-4" cx="337.47" cy="251.37" r="159.3"/><circle class="cls-5" cx="337.47" cy="251.37" r="159.3"/><g class="cls-6"><line class="cls-3" x1="198.68" y1="136.62" x2="549.53" y2="136.62"/><line class="cls-3" x1="213.71" y1="144.58" x2="541.57" y2="144.58"/><line class="cls-3" x1="424.2" y1="156.15" x2="469.71" y2="156.15"/><line class="cls-3" x1="380.09" y1="156.15" x2="414.09" y2="156.15"/><line class="cls-3" x1="335.55" y1="156.15" x2="371.29" y2="156.15"/><line class="cls-3" x1="318.72" y1="156.15" x2="323.42" y2="156.15"/><line class="cls-3" x1="283.68" y1="156.15" x2="303.93" y2="156.15"/><line class="cls-3" x1="117.94" y1="262.49" x2="551.61" y2="262.49"/><line class="cls-3" x1="409.82" y1="276.96" x2="551.61" y2="276.96"/><line class="cls-3" x1="111.83" y1="276.96" x2="377.99" y2="276.96"/><line class="cls-3" x1="409.82" y1="278.96" x2="551.61" y2="278.96"/><line class="cls-3" x1="111.83" y1="278.96" x2="377.99" y2="278.96"/><polyline class="cls-3" points="283.94 262.49 335.55 156.15 335.55 144.58 277.19 262.49"/><line class="cls-3" x1="269.49" y1="262.49" x2="329.29" y2="144.58"/><line class="cls-3" x1="414.09" y1="156.15" x2="377.99" y2="262.49"/><line class="cls-3" x1="418.02" y1="144.58" x2="414.09" y2="156.15"/><polyline class="cls-3" points="389.27 262.49 424.2 156.15 423.9 144.58 383.87 262.49"/><polyline class="cls-3" points="350.94 262.49 380.09 156.15 380.09 144.58 344.19 262.49"/><line class="cls-3" x1="337.61" y1="262.49" x2="374.96" y2="144.58"/><path class="cls-3" d="M270.7,280.26c-4.87,9-17.92,33.68-17.52,39,.48,6.52,8.21,9.42,8.21,9.42v7.73a116.59,116.59,0,0,1-11.11-8.7c-1.54-1.45-2.2-4.08-2.42-6.81a28.3,28.3,0,0,1,2.58-13.95l12.77-28"/><path class="cls-3" d="M273.18,284.22c1.11-2,2.05-3.74,2.75-5"/><path class="cls-3" d="M254.17,322.64c2.44-7.22,10.61-22.89,16.53-33.85"/><path class="cls-3" d="M247.81,321.4c-.16,3.83.16,8.68,2.47,10.85a116.59,116.59,0,0,0,11.11,8.7v-7.73"/><path class="cls-3" d="M333.88,279l-10.77,34.77a46.93,46.93,0,0,1-3.71,8.73l-.94,1.72a20.84,20.84,0,0,1-9.7,9c-3.62,1.62-6.87,3.25-6.87,3.25V340s2.32-.5,5.46-1.47a25.27,25.27,0,0,0,16.28-15.36L340,279"/><path class="cls-3" d="M346.17,279,324,328.45a26.19,26.19,0,0,1-16,14.29c-3.45,1.09-6.08,1.67-6.08,1.67V340"/><line class="cls-3" x1="271.47" y1="335.55" x2="270.46" y2="338.14"/><rect class="cls-3" x="270.46" y="338.14" width="3.08" height="6.35"/><polyline class="cls-3" points="271.47 335.55 274.54 335.55 274.54 341.9 273.53 344.49"/><line class="cls-3" x1="273.53" y1="338.14" x2="274.54" y2="335.55"/><line class="cls-3" x1="280.61" y1="336.48" x2="279.6" y2="339.07"/><rect class="cls-3" x="279.6" y="339.07" width="3.08" height="6.35"/><polyline class="cls-3" points="280.61 336.48 283.68 336.48 283.68 342.83 282.67 345.42"/><line class="cls-3" x1="282.67" y1="339.07" x2="283.68" y2="336.48"/><line class="cls-3" x1="290.44" y1="336.48" x2="289.43" y2="339.07"/><rect class="cls-3" x="289.43" y="339.07" width="3.08" height="6.35"/><polyline class="cls-3" points="290.44 336.48 293.51 336.48 293.51 342.83 292.5 345.42"/><line class="cls-3" x1="292.5" y1="339.07" x2="293.51" y2="336.48"/><path class="cls-3" d="M164.89,279h2.48a0,0,0,0,1,0,0v15.56a1.24,1.24,0,0,1-1.24,1.24h0a1.24,1.24,0,0,1-1.24-1.24V279A0,0,0,0,1,164.89,279Z"/><path class="cls-3" d="M185,279h2.48a0,0,0,0,1,0,0v15.56a1.24,1.24,0,0,1-1.24,1.24h0a1.24,1.24,0,0,1-1.24-1.24V279A0,0,0,0,1,185,279Z"/><path class="cls-3" d="M205.12,279h2.48a0,0,0,0,1,0,0v15.56a1.24,1.24,0,0,1-1.24,1.24h0a1.24,1.24,0,0,1-1.24-1.24V279A0,0,0,0,1,205.12,279Z"/><path class="cls-3" d="M225.23,279h2.48a0,0,0,0,1,0,0v15.56a1.24,1.24,0,0,1-1.24,1.24h0a1.24,1.24,0,0,1-1.24-1.24V279a0,0,0,0,1,0,0Z"/><path class="cls-3" d="M270.7,288.79V279h2.48v15.55a1.23,1.23,0,0,1-1.24,1.24h0a1.24,1.24,0,0,1-1.24-1.24v-5.72"/><path class="cls-3" d="M296.9,279h2.48a0,0,0,0,1,0,0v15.56a1.24,1.24,0,0,1-1.24,1.24h0a1.24,1.24,0,0,1-1.24-1.24V279A0,0,0,0,1,296.9,279Z"/><path class="cls-3" d="M323.11,279h2.48a0,0,0,0,1,0,0v15.56a1.24,1.24,0,0,1-1.24,1.24h0a1.24,1.24,0,0,1-1.24-1.24V279A0,0,0,0,1,323.11,279Z"/><path class="cls-3" d="M349.31,279h2.48a0,0,0,0,1,0,0v15.56a1.24,1.24,0,0,1-1.24,1.24h0a1.24,1.24,0,0,1-1.24-1.24V279A0,0,0,0,1,349.31,279Z"/><path class="cls-3" d="M418.93,279h2.48a0,0,0,0,1,0,0v15.56a1.24,1.24,0,0,1-1.24,1.24h0a1.24,1.24,0,0,1-1.24-1.24V279a0,0,0,0,1,0,0Z"/><path class="cls-3" d="M444.26,279h2.48a0,0,0,0,1,0,0v15.56a1.24,1.24,0,0,1-1.24,1.24h0a1.24,1.24,0,0,1-1.24-1.24V279a0,0,0,0,1,0,0Z"/><path class="cls-3" d="M469.58,279h2.48a0,0,0,0,1,0,0v15.56a1.24,1.24,0,0,1-1.24,1.24h0a1.24,1.24,0,0,1-1.24-1.24V279A0,0,0,0,1,469.58,279Z"/><path class="cls-3" d="M497.38,279v11.81a1.23,1.23,0,0,1-1.24,1.24h0a1.24,1.24,0,0,1-1.24-1.24V279"/><path class="cls-3" d="M141.8,279h2.48a0,0,0,0,1,0,0v15.56a1.24,1.24,0,0,1-1.24,1.24h0a1.24,1.24,0,0,1-1.24-1.24V279A0,0,0,0,1,141.8,279Z"/><path class="cls-3" d="M121.56,279v11.81a1.23,1.23,0,0,1-1.24,1.24h0a1.24,1.24,0,0,1-1.24-1.24V279"/><path class="cls-3" d="M125.88,509.17s40.56-111.79,68.26-129.6,46-66.29,46-66.29l15.53-34"/><polyline class="cls-3" points="266.18 262.49 285.24 220.71 318.72 156.15 318.72 144.58 313.35 156.15 283.68 217.81 263.41 262.27"/><path class="cls-3" d="M127.43,512.06S168,400.27,195.69,382.46s46-66.28,46-66.28l16.85-36.95"/><polyline class="cls-3" points="254.17 262.49 303.95 156.15 309.78 144.58"/><path class="cls-3" d="M117.94,503.23l46.56-96.37a103.85,103.85,0,0,1,25.13-33c8.47-7.42,18.11-16.08,22.81-21,8.19-8.62,27.78-51.4,32.77-62.43L250.36,279"/><polyline class="cls-3" points="377.99 303.06 377.99 272.04 406.3 272.04 406.3 303.06 377.99 303.06"/><polyline class="cls-3" points="381.5 264.86 409.82 264.86 409.82 295.88 406.3 303.06"/><line class="cls-3" x1="381.5" y1="264.86" x2="377.99" y2="272.04"/><line class="cls-3" x1="406.3" y1="272.04" x2="409.82" y2="264.86"/><rect class="cls-3" x="383.87" y="276.41" width="2.07" height="5.79"/><rect class="cls-3" x="391.11" y="276.41" width="2.07" height="5.79"/><rect class="cls-3" x="398.34" y="276.41" width="2.07" height="5.79"/><path class="cls-3" d="M373.69,279.31S361,324,370.34,344.41h0a43.19,43.19,0,0,1,.1,23.41l-21.13,76.36-23.72,78.37"/><path class="cls-3" d="M377.87,289.08c-3.16,14.33-7.58,40.9-.95,55.33h0a43.19,43.19,0,0,1,.11,23.41L355.9,444.18l-23.72,78.37"/><path class="cls-3" d="M378,303.06c-2.18,14-3,30.74,1.87,41.35h0a43.19,43.19,0,0,1,.11,23.41l-21.13,76.36-23.73,78.37"/><path class="cls-3" d="M421.42,136.62S431,114,451.05,100.89,499,20.18,499,20.18"/><path class="cls-3" d="M425.93,136.62s9.54-22.67,29.63-35.73,47.89-80.71,47.89-80.71"/><path class="cls-3" d="M430.82,136.62s9.54-22.67,29.63-35.73,47.89-80.71,47.89-80.71"/><path class="cls-3" d="M555.59,89.05s-29.94,1.09-52.14,13.57l-29.25,34"/><path class="cls-3" d="M460.76,262.49l-.58-2.53c-1.54-9.22-9.85-20.07-13.44-29.3s6.3-12.48,9-27.12,13.83-47.39,13.83-47.39,8.77-7.79,17.73-7.79,13.67,3.24,19.15,1,19.64-2.24,19.64-2.24"/><path class="cls-3" d="M461.9,279.31s-2.64,5.38,3.14,10.91-7.24,12.78-3.74,24.6,13,23,10.76,29.59S476.13,358,487.46,358s14,1.21,19.3,3.38,9.4,2.89,17.12,1.21,13.5,16.63,33,10.12,61.49,28.46,61.49,28.46"/><path class="cls-3" d="M334.77,42.48s-29.42,19.57-32.88,46.57A306.44,306.44,0,0,1,292,136.62"/><path class="cls-3" d="M180.22,279.31s-19.62,32.95-32.37,48.15-27,15.21-41.69,22.07-45.13,67.69-49,78l-3.92,10.3"/><path class="cls-3" d="M156.26,217.49l49.44,2.29a8.29,8.29,0,0,1,6,13.62c-6.15,7.29-13,15.44-14.72,17.91-3.42,4.79-10.68,8.89-10.68,8.89l-4,2.29"/><path class="cls-3" d="M182.26,233.5s-17.16-3.28-26,0-20,11.16-9.49,12.8a175.13,175.13,0,0,1,23.29,4.92c6.89,2,9.18,1.64,10.16-3.61s-.42-5.07,6-7.62S182.26,233.5,182.26,233.5Z"/><path class="cls-3" d="M467.07,215.46s-14.84,8.24-6.38,18.27a86.62,86.62,0,0,0,16.83,15.47s68.11-1.68,71.87,1.67,3.35-5.44-5.85-14.63-7.52-17.13-5.85-18.39-24.43-5.43-29.35-5S487.51,207.5,467.07,215.46Z"/><path class="cls-3" d="M492.89,170.19a22.23,22.23,0,0,0-23.11,15.45,38.31,38.31,0,0,1-2.29,5.89c-2.93,5.43-7.27,11.7-2.8,13.79s8.65-5,24.53-5.43,50.33,5.81,50.33,5.81-16.48-22.53-8.54-32.14Z"/><path class="cls-3" d="M191,262.49c10.8-3.16,36.7-40,36.7-40h7c9.81-2.46,14.19-18.62,23.88-31.37s25.13-35,25.13-35-6-2.81-10.5-2.81-2-.75-3.69-1.49-9.23-1-13.82-1a118.93,118.93,0,0,1-13.75-1.7,42.66,42.66,0,0,0-9-.54,146.63,146.63,0,0,1-19.25-.25,60.64,60.64,0,0,1-18.29-5.11"/><path class="cls-3" d="M160.92,211.22l69.26,3a5.18,5.18,0,0,0,4.35-2l14.09-18.57a5.18,5.18,0,0,0-3.89-8.3L185,182.61"/><path class="cls-3" d="M193,176.25l55.84,3.3a14.17,14.17,0,0,0,11.41-4.7L271.71,162a1.82,1.82,0,0,0-.47-2.8c-2-1.13-5.26-2.74-7.83-3.08-4.05-.54-17.37,1.07-26.06,0s-15.88.52-29.75-2.65"/></g><polyline class="cls-7" points="179 270.81 24.02 270.81 24.02 48.63"/><circle class="cls-7" cx="24.02" cy="24.02" r="24.02"/><circle class="cls-8" cx="24.02" cy="24.02" r="14.16"/></svg>