<svg id="Layer_1" data-name="Layer 1" xmlns="http://www.w3.org/2000/svg" xmlns:xlink="http://www.w3.org/1999/xlink" viewBox="0 0 499.27 413.18"><defs><style>.cls-1,.cls-3,.cls-5,.cls-6,.cls-9{fill:none;}.cls-2{clip-path:url(#clip-path);}.cls-3,.cls-5,.cls-6,.cls-7,.cls-9{stroke:#82d7c6;}.cls-3,.cls-6,.cls-7,.cls-9{stroke-linecap:round;stroke-linejoin:round;}.cls-4{clip-path:url(#clip-path-2);}.cls-5{stroke-miterlimit:10;}.cls-6,.cls-7{stroke-width:3px;}.cls-7{fill:#007188;}.cls-8{clip-path:url(#clip-path-3);}.cls-9{stroke-width:2px;}.cls-10{fill:#82d7c6;}</style><clipPath id="clip-path"><circle class="cls-1" cx="337.47" cy="-181.8" r="159.3"/></clipPath><clipPath id="clip-path-2"><circle class="cls-1" cx="-181.8" cy="251.37" r="159.3"/></clipPath><clipPath id="clip-path-3"><circle class="cls-1" cx="337.47" cy="251.37" r="159.3"/></clipPath></defs><g class="cls-2"><path class="cls-3" d="M574.94-148.63a10.31,10.31,0,0,0-5.33,1.78,6.26,6.26,0,0,1-6.85,0h0a11.28,11.28,0,0,0-12.35,0,6.24,6.24,0,0,1-6.84,0h0a11.31,11.31,0,0,0-12.36,0h0a6.24,6.24,0,0,1-6.84,0,11.28,11.28,0,0,0-12.35,0h0a6.26,6.26,0,0,1-6.85,0,11.29,11.29,0,0,0-12.35,0,6.24,6.24,0,0,1-6.84,0,11.26,11.26,0,0,0-12.35,0h0a6.28,6.28,0,0,1-6.85,0,11.29,11.29,0,0,0-12.35,0,6.24,6.24,0,0,1-6.84,0,11.26,11.26,0,0,0-12.35,0,6.28,6.28,0,0,1-6.85,0,11.29,11.29,0,0,0-12.35,0,6.24,6.24,0,0,1-6.84,0,11.26,11.26,0,0,0-12.35,0,6.26,6.26,0,0,1-6.85,0,11.29,11.29,0,0,0-12.35,0,6.24,6.24,0,0,1-6.84,0,11.28,11.28,0,0,0-12.35,0,6.26,6.26,0,0,1-6.85,0,11.29,11.29,0,0,0-12.35,0,6.24,6.24,0,0,1-6.84,0,11.29,11.29,0,0,0-12.36,0,6.24,6.24,0,0,1-6.84,0,11.28,11.28,0,0,0-12.35,0h0a6.26,6.26,0,0,1-6.85,0,11.29,11.29,0,0,0-12.35,0,6.24,6.24,0,0,1-6.84,0h0a11.28,11.28,0,0,0-12.35,0,6.26,6.26,0,0,1-6.85,0h0a11.29,11.29,0,0,0-12.35,0,6.24,6.24,0,0,1-6.84,0,11.28,11.28,0,0,0-12.35,0h0a6.26,6.26,0,0,1-6.85,0,11.29,11.29,0,0,0-12.35,0,6.24,6.24,0,0,1-6.84,0,11.28,11.28,0,0,0-12.35,0,6.26,6.26,0,0,1-6.85,0,11.29,11.29,0,0,0-12.35,0,6.24,6.24,0,0,1-6.84,0,11.49,11.49,0,0,0-9.56-1.41V180.53H574.94Z"/></g><g class="cls-4"><path class="cls-5" d="M-142.33,202.18l4.12,27.72,11.57,1.6v-.71l-9.83-2.7,1-6.18,2.62-.71,37.16,10.7-1.11.71,4.64,1.4,4.22-13.64-11.67-3.55-3.81,1.28-.77-1.23L-111,218.1l-.76-3.21,23.06-4.3,21.9,6.15,31,8.8,11.68,3.24,16.47,2.3,37.53-2.65v8.15l-3.58,2.88-43.66,2-.7,1.27,6.74,9.84L-6,258.8s9.42-.7,11.46-2.32,5.41-3.73,5.41-3.73L32,248.6l2.94,10.2-1.53,2.85-34.85,6.29-5.48,1.24-3.95.66,3,.65,33.46-5.91,27.4-4.9,13.66,1.53,1.25.66-3.51-21.48-2.72-4.64v-11l2.58-1.58,7-10.72L75.68,211V184.65S60.54,176.53,40.4,183L27,182.18l2.94-2.36-.12-4.47-5.06-1.53-.94,6.59L20,182.06l2.59-10.24-.94-1.06-2,8L18,181.94l-7.77-.47L13,170.76l-1.3-2.36-22.14-5.89-2.82-2.94.23-2.94h-4.71l-1.76,6.83,3.29,3.06,2.83-1.3L5.9,170.17l2.24,3.77.47,3.18-1,0-.36.84-1.66-.24.71,3.17L4.69,184H-16.22l-4.89-1-4.2-2.73-11.23,2.54-4.6-2.64-.19,1.66-3.52-1.95.1-3.13L-50,174.2l-3.51,5.18,4.88,3.32.59,2.64-13.49,3.71-4.39-8-5.57,1.76,3.32,7.62-3.28,2.46-30.58,5.81-2.53-12.08.69-1.07-1.45-6.5L-107.8,181l3.6,18.12-31.33,6.42v-1.37l-6-.51Z"/><polygon class="cls-5" points="35.72 310.86 41.34 308.19 39.92 306.12 43.86 303.17 43.86 306.01 54.02 306.22 58.83 305.35 61.77 302.07 63.3 298.47 58.09 269.44 55.87 269.71 53.78 275.64 50.22 279.88 52.91 290.15 52.37 294.09 50.48 291.8 -14.97 292.54 -14.97 290.65 -15.64 290.59 -15.64 285.6 -9.24 285.27 44.36 275.17 43.68 272.07 23.83 275.37 23.83 273.89 45.97 269.85 44.22 265.94 -14.22 276.65 -14.02 273.48 -7.36 273.48 50.55 262.91 60.11 263.25 70.55 266.21 68.73 267.49 72.17 294.42 69.54 300.08 72.17 316.78 67.52 317.65 65.84 308.23 63.41 305.4 57.55 307.82 49.41 307.82 49.27 311.86 51.83 312 51.9 309.31 57.15 309.1 63.34 306.88 63.95 312.2 60.18 311.73 51.97 314.09 33.04 313.95 35.72 310.86"/><path class="cls-5" d="M35.63,310.69l-16,1.21-89.09,1.7-23.89,21.89-7,1.46-7.74,7.93-8.9.7-16.43,5.1-5.78.77-4.94,4.61-3.85.63-4.09-1-5.6,1.66-6.08,7.77-6.67,2.16q-3.87-11.75-7.66-23.51c-.17-.52-.33-1-.5-1.57l6-1.88,2.68,8.28,44.41-14.13,8.15,4.49,16.34-9.53,9.28-8.31-3.59-4.87-13.16-8.62h-4l-29.95-17.51,3.71-3.85,6.47-7,3.76,1.92,3.58-3.14,4.11-2.26-3.46-6.3,2.92-.82,4.87-4.27-3.79-3.67-6.55,2.91-5.47-13.21,6.07-6.5,28.7,6.82,1.19-3.79-30.11-8.14-10.18,2.08s2.81,14.94,1.95,22.63-2.49,11.27-2.49,11.27l3.35,2.09v1.59l.16.08-6.17,6.68-25.82,26.68-20.26,5.74c-.07-.24-.16-.48-.23-.72a11.53,11.53,0,0,0-1.86-3.32,14.42,14.42,0,0,0-2.73-2.57,20.82,20.82,0,0,0-6.62-3.08l-1.07-.26L-187.91,293l-2.05-1.45-11.28,15.87-3.15-.32-1.74-.18,9.12-16.35-.44-.24-9.22,16.54-1.21-.13a25.77,25.77,0,0,0-3.62-.07v.05a24.36,24.36,0,0,0-3.62.45l3.66-2.82,9.15-16.56,12.23-20.09,10.36-29.32.73.9,7.25-12.69-.94-.72-5.57,8.91-2.91-.79v2.61l0,0-10.06,7.59-.08.06-4.58,7.24-20.65,28.41-3.13,13.16-8.37,1.11,1.37,6.37,5.21,6.15.15,2.51a9.58,9.58,0,0,1-4.23.73,8.52,8.52,0,0,1-1.12-.12c-.36-.06-.75-.16-1.15-.25l-2.37-.53-.08,0h-2.58c-.41,0-.86,0-1.23,0a7.34,7.34,0,0,1-1.15-.1,9.14,9.14,0,0,1-4.2-1.78,9,9,0,0,1-1.65-1.62l-1.57-1.95-3.13-3.89a5.79,5.79,0,0,1-1.39-4.15c0-1.66,0-3.35,0-5a51.21,51.21,0,0,1,1.23-9.76l4.12-19.57a40.53,40.53,0,0,1,1.18-4.77,30.36,30.36,0,0,1,1.89-4.48l4.68-8.79L-219.79,222l.29-.43,12.85-19.1.68.71.66-.57,5.42,2.61,1-1.26,6.26,6.26,21.34,12.42a11.89,11.89,0,0,0,6.26,2.09l1.71-.85,17.5,4.13.85,1.85h3.42l-4.27-29.6L-156,198.88l1.7-2.42-2.56-2.42-5.69,5.69L-164,199l6-6.92-1.28-1.14-11.24,7.92,3.28,3.81,3-1.25-2.13,2.85-6.26-3.28v-3.1l15.51-12-1.71-2-18.64,13.23-5.19-7-4.48-6.76-5.35-.83-5.41-24-3.61-16.66,1.25-3,3.87,17.68.95-.43L-200,135.07l2-2.85,6.5-1.09.08-.95-8.84,1.38-.37-6.21,6.21-2.33-.51-1.17-6.14,2.19-2-4.31-.37-7.82-1.24-3.43,2.27-1.25,12.13,8.26,10.66,33.76,1.54-.59-10.46-35L-205.14,103l-2.54-7.84-2.43-1.88,2.76-1.44-1.08-2.11.6-6.55,2.94,1.12,25.18,15.92,23.3,14.82,6.56,3.82,6.46-2.33,4.13-5.83-1-.63-3.5,4.45-4.76-2.65,5.5-9.32-1.58-1-5.51,8.57-47.12-28.59-.11-1-6.77-3.17,2.54-4-2.33-1.16,3.71-6.46,2.33-1.06,9.72,6.19,2.05-3.49,12.53,7.43.41-.87-8-4.86-.19-1.11-13.59-9.07,6.15-4.14-5.94-2.44-8,10.08s-2.76,4.45-4,5.41-5.62,1.38-5.62,1.38l-.54,3-7-1-10.08,1-3,3a15.38,15.38,0,0,1,.38-6.12c.88-3.79,3-17.64,3-17.64L-244.1,70.32l-23.29-1.55-.29.82,23.75,27.51.48,2.64L-260,79.63l-5-4.79-18.67,15.8,5.26,6,3.23-2.51,3,3.47-3.24,3,7.42,8.62,2.4-.72,3.95,3.59,4.66-3.83.48-1.31,5.87,6.94-6,5.38a16.47,16.47,0,0,0-1.67,3.71c-.6,2-2.28,7.66-2.28,7.66l.23.15-2.86,11.41-12.74-2.36-3.12,5,1.94,3.1,10.92,2.55-5,16.66-13.43,28.78-3,1.22,1.08,6.42-19.82,52.87v7l-4.45,6.89,5.75,24.67,6.77,9.07,1.68,8.88,6.33,10.46,2.74,10,8.44,5.54,2,9.91,12.78,1.91,13.55,10.94-1.34,1.44a6.74,6.74,0,0,0-1.81,4.29L-255,391.19v29.62h1.5V391.22l1.09-23.8a5.17,5.17,0,0,1,1.4-3.33l1.41-1.52.64.52,2.59,6.88,10.87,6.42,36.06,2.95,27.2-8.82c.08.23.15.47.22.7l2.12,6.66,2,6.69,4.08,13.37.05.15.08.15,14.1,25.53,3.07-1.71-14.36-25.21L-165,383.68l-2.14-6.67-2.2-6.64c-.08-.23-.16-.46-.23-.7l7.38-2.39,6.06-7.74,4.19-1.24,3.93.95,5.09-.83,4.92-4.59,5.19-.69,16.36-5.08,9.56-.75,7.87-8.06,6.94-1.44,23.69-21.72,88.19-1.68,16.06-1.22ZM-179,340.78c-1.09-3.44-2.18-6.88-3.24-10.33-.12-.38-.23-.75-.35-1.12l31.77-8.82,13.2,7.27Zm-2.24.67-28.45,8.15-.59-11.85,25.59-7.81.33,1.14Q-182.83,336.29-181.26,341.45Zm12.35,5.27-2.21-6.84,35.31-11.1,8.52,4.69Zm4.09-33.45,21.32-22,30.63,17.9h4l12.56,8.23,2.61,3.55-8.08,7.26-15.53,9.06-33.31-18.35-32.39,9c-.42-1.38-.83-2.75-1.23-4.12-.33-1.12-.63-2.23-.94-3.35l-.31-1.28Zm-22.39,7.66c.3,1.14.59,2.28.91,3.41.38,1.39.77,2.77,1.17,4.15l-25.25,7.71-.45-9,23.35-7.44Zm-66.58-16.41-8.26,4.91-1-2.07,2.39-50.1v-2.2l3.76-6.74c2,1,4.93,2.4,7.95,3.9l-3.13,5.72Zm.62,1.39,16.76,16.47,24.07,4.87.44,8.7-28.55-5.81-20.66-19.52Zm-3-58.91,16-28.62,2-3,7.72,2.74-14.83,27.5-2.92,5.33C-251,249.51-254,248-256.14,247Zm14.7-29.42-16.06,28.77c-.83-.38-1.4-.64-1.59-.7-.86-.29-4.51.58-7.94,1.52.36-.89.78-1.82,1.27-2.8,3.47-6.94,16.11-28.2,20.27-35.18l6,5.37Zm-22.3,19.89-31,11.34,12.47-34.67,11.58-27.47.27-.89,14,13.68,9.75,8.71C-249.81,213.49-258.47,228.06-263.74,237.47Zm-.38.67c-1.26,2.26-2.3,4.19-3,5.56a40,40,0,0,0-1.74,4l-2.09.6-27.28,10.3,3.29-9.15Zm-6.37,11.58,1-.3a22.21,22.21,0,0,0-1.35,8.3l-.9,15.58-25.47,10.44-4-9.77,2.56-13.64Zm-1.27,24.13-1.3,22.55-15.63,8.21L-297,284.2Zm2.44-16.1v-.13s-.31-3.29,1.61-8.7c3.88-1.08,7.52-1.95,8.15-1.84.15,0,.62.26,1.32.59l-3.9,7v2.56l-2.41,50.43,1.2,2.54-8.16,4.84-1-2.22Zm6.87,53.66,21.28,20.12,29.35,6,.62,12.46-36.3-7.88-23.1-25.83Zm51.33,40.11.64,12.83-26.92-2.44-14.34-11.53,4.2-6.76Zm-14.59-51.43L-226.8,295l8-1.06,3.24-13.63L-195,252.07l4.5-7.12,10-7.56,0,.05L-191,267.25l-12.19,20-9.06,16.4-5.33,4.1c-.43.13-.85.28-1.27.43s-1,.39-1.46.59l-.15-2.48ZM-242,256a43.84,43.84,0,0,0-1.23,4.93l-4.12,19.56a52.14,52.14,0,0,0-1.26,10c0,1.71,0,3.35,0,5a9.05,9.05,0,0,0,.06,1.35,7.05,7.05,0,0,0,.31,1.36,7.35,7.35,0,0,0,1.35,2.4l3.14,3.89,1.56,2a10.62,10.62,0,0,0,1.91,1.88,10.8,10.8,0,0,0,4.91,2.08,10,10,0,0,0,1.33.12c.46,0,.85,0,1.28,0h2.41l2.28.52.6.13.63.13a11.23,11.23,0,0,0,1.3.14,11.09,11.09,0,0,0,5.08-.92c.77-.34,1.46-.65,2.2-.92s1.49-.5,2.24-.7a22.81,22.81,0,0,1,4.64-.69v.05a22.34,22.34,0,0,1,3.37.11l3.45.4,3.47.39,1.73.2a8.58,8.58,0,0,1,1.59.35,19.15,19.15,0,0,1,6,2.86,10.63,10.63,0,0,1,3.83,5c0,.21.13.42.18.64l-23.83,7.59-24-4.86-16.62-16.33,1.73-46.31,3-5.46,5.65,2.81Zm6.74-13.61,0,0,0,0-4.71,8.82c-.51,1-1,2-1.37,3l-5.44-2.71,2.89-5.28,15-27.71,3.61,1.28,4.17,1.62Zm-22.87-110.14.82.55,2-.55,21.42,4.38-4.61-18.76,2.34-3,2.35,4.06-.71.16.47,4.38-1.33.31,2,2.74,3,11.73-1.41.07,2.19,5.56,3.91-5.71L-223,140l-4.54,7.9,5.87,21.81,2,4.46,1.64-.63,5.87,10.48-3.6,1.56L-222,175.49a12.14,12.14,0,0,0-1.84,7.63c.44,4.45.89,7,.89,7h5.53l1.27,1.47,1.05,1.21,7.41,8.56-13.26,19.69-4.27-1.66-3.55-1.25-1.43-.51-7.68-2.73-1.31-.76-6-5.39c.66-1.11,1.05-1.77,1.08-1.81L-234,191.78l8.39-.82v-2.4l-6-.41.75-1.13-1.25-.84-.29.45,1.4-27.18.46-7.32-1.15-6.56-5.26,1.38-.13,2.37-.72-.17h-.93l-19.82.78-3.82-1.27Zm-18,14.38-1.11-1.79,2.07-3.33,11.64,2.16-1.21,4.8-.57.68Zm4,28.52,3.32-7.11,5.21-17.51,6.77,1.48,8.94-1.07,10.87-1.07-.55,9.31h-4.77l-3.19.37,0-.51-12.08,1.93v13.6l10.32,10.39.94-13.09.69-10.8,3.33-.38h4.7l.36,11V192.1l1.34-.13-9.51,14.17-1,1.59L-256,199.1l-18.73-18.31Zm25-13.9-.67,10.52-.71,9.78-7.54-7.6V162.25Zm-56.7,95.65,19.78-52.77.12-.31-.86-5.1,2.07-.83,7.74-16.59,4.21,4.11-.34,1.12L-282.7,214l-16.12,44.79v.05l-.71.28h-4.31ZM-288,322.34-294.23,312l-1.71-9-6.79-9.11-5.4-23.12,4.28-6.62v-3.53h4.58l.12,0L-301.68,274l16,39.22.47-.18-3.25-8,15.4-8.09-.92,15.93v.18l1.22,2.71-14.57,8.64Zm24.69,26L-275,346.55l-1.87-9.21-8.52-5.6L-287,326l15-8.92,23.09,25.81-4.09,6.58-11.63-9.36-.95,1.18,11.78,9.46-2.2,3.53ZM-249,359.79l-5.7-4.6,2.2-3.53,6.33,5.09Zm49.32,17-35-2.86-9.61-5.68-2.52-6.69-1-.84,2.84-3,7.05,5.66,29.09,2.65-.74-14.86,28.8-8.26c.17.54.33,1.07.49,1.6.6,2,1.21,3.92,1.82,5.88l-8.36,2.31.4,1.46,8.4-2.33q2.54,8.18,5.1,16.32Z"/></g><circle class="cls-6" cx="337.47" cy="251.37" r="159.3"/><circle class="cls-7" cx="337.47" cy="251.37" r="159.3"/><g class="cls-8"><path class="cls-3" d="M128.2,147.61s56.56-20.12,98-13.12,43.15,24.78,43.15,24.78,2,11.37-7.29,18.66-28.58,28.87-28.58,29.74,7.88-2.33,11.08-7.29,5.54,4.08.88,7.43-29.45,27.56-28,27.27a17,17,0,0,0,9.62-6.42c3.5-4.66,15.16-13.41,16.62-14s2.33-3.79,8.45-8.17c0,0,3.09-2.5,3.59-2.5s2.5-.12,0,5.5-4.75,11.25-3.25,10.12,5.37-10.87,5.37-15-2.62-7.87.13-9.37,4.12.75,4.12-4.5,1.75-11.62,4-12.62a11.63,11.63,0,0,1,7.12-.37c2.12.5,3.37-4.75,6.5-7.38s7.24-3.49,8.12-8,2.75-8.12,5.87-9.62,2.25,2.5,2.25,3.37-3.75,5.12-3.75,8.37.12,6.12-.5,8.62-2.12,5.63-2,8.37.63,3.75-.37,5.75-1.63-.62-1.5,5.37-.13,9-1.25,13-2.75,7.24-2.75,10.49.37,7.87-.38,9.37-4.24,4-5.49,4.5-4.13.13-6.25,3a15.88,15.88,0,0,0-2.62,6.5s2-5.5,5.12-5.87,7.87-1.75,9.37-3.75-.13-5.5,1.25-8.37,3.5-3.88,5.75-3.5,4,7,4.24,8.74,1,8.72-.14,9.83-2.72,1.62-3.22,2.92-4.09,3.65-6.94,5-7.93,5.21-9.41,5.21-5.83,1-7.31,1.11-4.71,2.85-2.48,3.72,10.65-1.61,11.89-1.74,4-3.47,5.21-4,4.33-3,6.93-4.46,4.71-1.24,5.58-2.48.78-2.6,1.13-3.72,0-4,3.83-3.71,8.05,2.6,8.05,6.81-1.36,13.62,2,13.44,3.34-2.54,5.33-2.17,1.36,5.33-1.49,7.69-3.72-1-5.82-.87-4.59-.67-5.08,1.71.25,4.73-1.12,5.85-4.33,1.85-4.33.86,1.61-1.48,1.73-4-.37-3.84-.12-7.06.37-6.45-.75-7.44-2.47.5-2.47,3.22,1.11,7.19-4.09,10.78-8.05,2.48-10.28,2.48-7.69-3.47-10.66-3.84-3.22,0-8.3-.62-5.82-1.49-8.67-1.49-5.45.25-8.18,2.48a59.44,59.44,0,0,0-6.56,5.92c-.62.9-8.25,9-10.54,10.1s-7.91,4.83-10.05,4.67-3.7-1-5.32-.83-3,1.92-4.14,3-3.83,4.76-8.51,4.84-4.52-2.22-9.28-2.54-12.06,2.62-13.57,3.1-9.84,3-12.06,3.57a32,32,0,0,0-5.71,2.46s5.48,2.66,9,1.1,10.37-6,13.15-6,17-2.05,20.87,2c0,0,1.81.61-.12,2.66s-1.69,3-1,2.53,1.21-.84,3.74-3.86,8.45-8,9.17-8,3.38.48,3.62.84a2.43,2.43,0,0,1,.48,1.57,10.7,10.7,0,0,0,.12,1.57s8.43-8.59,15.43-12.18,12.67-6.65,17-6.44,20.61.58,23.45,1,7.37-2.46,6.61.75-3.21,4.92-6.61,7.19-4.73,4.54-4.16,5.11,1.89,1.32,3-1.9,3.78-1.13,5.86-3.4,2.46-4.54,3.41-3.4-.19,4.2-1.7,5.22-5.11,2.91-5.68,4.8-1.89,4.16-.19,4.54,2.84.57,3.41-1.51.75-3,2.64-4,2.65-.37,4.16-1.32S286,283,288.8,283s2.46,1.24,4.54,0,3.59-2.39,5.86-3.71c0,0,4.35-2.46,6.62-4s4.35-.79,6.62-2.85a33.5,33.5,0,0,0,6.8-9.82c1.33-3.21,2.46-11.72,2.65-15.51a20.69,20.69,0,0,0-1.7-9.45c-1.14-2.65-.19-2.08-.95-4.54s-2-3.05-3.2-4.42a27.38,27.38,0,0,1-3-6.08c-.1-.53-2.41-5.81-4-6.63s-2.93-2.29-2.3-3.86,1.26-3.36.42-4.73.52-.94-1.37-1.57-2.2-.42-2.52-4.62a20.3,20.3,0,0,1,2.1-10.38c1.16-2.1,6.19-5.67,6.19-5.67"/><path class="cls-3" d="M203.05,306.93s-1.16,0,.94,1.68,3,2.09,4.09,3.14a4.57,4.57,0,0,0,3.57,1.26c1.36,0,1.68-1.15,3.15,1.79s4.19,8,5.14,10.7,1.15,8.6,2.94,9.65,2.83.31,2.93-2-2-8.56-4.3-11.89-4.51-6.58-5.66-7.84a8.26,8.26,0,0,0-3.47-2.41c-1.67-.74-3-.32-4.72-1.68S204.62,305.77,203.05,306.93Z"/><path class="cls-3" d="M128.74,413.91s-.92-4.06,10.87-8.48l7.37-3.5s3.87-.18,5.16-2-1.29-3.68-5.16-2.58a99.09,99.09,0,0,1-18.26,2.77"/><path class="cls-3" d="M308.7,202.11a5.41,5.41,0,0,0,0,3c.42,1.57.94,1.88,1.57.73s.11-1.47,1.05-3.78,2.21-2.62,2.1-4.93-.72-3.25,0-5.56,1.88-6.29.62-7.66-3.11-1.26-2.5-3.35,2.19-3.57.93-3.78-1.68-.84-2.31.94-1.47,2.42-.84,3.88,2,1.68,2.22,3.15-1.17,5.14-.75,7.24,0,2.73-.74,4.41A33.74,33.74,0,0,0,308.7,202.11Z"/><path class="cls-3" d="M303.44,203.24s-1.35.66-3.45-3.33-3.46-4.09-1.57-6.29,2.41-2.94,2.62-6.19,1.47-2.52-.1-4-1.26,1.68-1.47,3.25-.11,3.15-1,3.78-2.2,1.36-2.2-.95a12.65,12.65,0,0,1,1.89-7.45c1.78-2.93,5.35-4,6.4-6.71s1.89-8.39,1.47-8.81-4.4-7.45-4.83-9.55-.63-5.35-.84-6.61-1.47-6.51-1.78-8.71-1.47-17-.53-18.25,2.63-.63,2.52,1.67-.62,13.43.63,16.37,1.05,4.93,1.89,7.87-.21,6.09,1.89,8.6,3.77,8.92,5.87,9.66,4.41-1.47,5.88-1.68a9.63,9.63,0,0,0,2.83-.95,5.2,5.2,0,0,1-1.89-4.09c0-2.73,1.58-5.77,1.37-8.81a23,23,0,0,0-2-7.24c-.73-1.89-1.47-3-.31-4.72s2.73-2.73,4.72-1.58a15.17,15.17,0,0,1,5.46,7,27.19,27.19,0,0,1,.52,7.77c-.11,2.72-.63,4.93,2.83,5.87s10.25,5.66,12.08,9.33,6.9,9.37,8.08,11.09,1.62,2.91,1.08,4.31.11,4.42,1.72,6.57,7.44,8.3,10.24,12.18,7,6.78,7.75,10.23,12.35,14.46,15.57,23.79,7.56,12.87,7.88,16.41,1.29,6.44-.8,7.57-2.41-1.13-3.86,0a32.21,32.21,0,0,0-6.12,7.56c-1,2.09-2.15,1.28-3.65,4.26s-2.62,5.71-4.55,7-5.47,3.7-6.92,4.18-1.77-.64-3.38,0-5.63,8.37,1.93,5.31,6.28-4.37,9-6,3.06-1.92,4.67-4.66.64-2.89,3.06-4.5,2.41-.81,4-3.54a11.78,11.78,0,0,1,3.05-3.7s2.62-1.61,4.05.48,3.68,1,4,2.25,0,1.45-2.9,4.67-1.12,1.13-3.54,5.31-5.79,4.5-6.27,8.85.64,5.63-2.25,7.72-5,3.7-8.53,4-2.9-1.12-8.05,0-5-.8-9.17,1.61-7.24-.32-8.68,3.22-3.38,6.44,1.12,5.31,5.47-.79,6.28.25.64,3.93-.81,4.58-1.45-1-3.38-1-2.09.48-3.05,2.74,0,3.21-2.17,2.09-1.7-1.13-2-4-.64-4-1.12-2.42-.49,3.06-1.29,4.35-.16.64-1.45,1.12-1.93.46-.32,1.44,3.38,1.46,2.41,3.23-2.09,1.45-3,3.22,0,3.38-2.42,3.7-3.54.8-5.63-1.29-1.29-2.41-4-3.7-3.22-1.61-4.83-.32-2.25,1.77-1.28,2.09-.33-.48,2.89-1.13,2.09-.16,4.67,1.45,2.73.42,2.41,3.19-1.29,4.05-3.38,7.11-6.76,8-6.27,9.33,5,1.29,6.43,0,2.58-1.77,3.7-1.29-.14,3.25-1.64,5.12-2.89,3.89-7.27,5.14-11.9,1.63-15.28,2.38-5,1.25-8.64,4.63a18.91,18.91,0,0,0-5.38,9.14c-.75,2.38-1,3.26-2.51,4.89s-2.5,2.88-1,2.38a26.09,26.09,0,0,0,2.63-1.25c1.5-.63,2-1.38,2.13.25s-2.88,14.65-1.88,14.52,2.38-4,2.51-6.13.75-11.52,1.37-14.53,1.13-5,4.89-7.64a22.83,22.83,0,0,1,11.14-4c3.63-.37,11.77-.87,13.53-.12s.5,1.88,2.13,1.63,1.5-.51,2.25-2,.13-1.63,1.5-.25,1.13,5.39,2.88,6.26,2.26,2.13,2-.12.12-1-2-4.64-4-5.38-2.63-9.64,4.89-8.14,8.77-14,4.51-7.88,9.27-9.89,4.51-.75,4.88.5-3.25,2.76-4.38,4.89-2.63,4-.38,5,3.51-.38,4.26,1.75-.5,5,1.38,6.14,2-.38,2.5,2.5.88,3.38,1.88,4.76-.37,2,.88,3.38,1.25,2.88,2.13-.5.5-.5.88-3.38.62-1.5-.63-5.14-1.63-4.25-1.13-7.89-.75-4.63.38-5.51,2.13-.37,2.38,1.88a17.39,17.39,0,0,0,1.75,6.39c1.13,2.25,1.5,4.63,3.38,5.51s2.13-.5,2.63.88.5,5.38,1.38,6.88-.13,1.88-.13,3.89-.5,1.37-1.12,2.25.12,11.4-2.26,14.15-2.25,1.63-3,3.76-2,4.26-3.13,6.89-1.88,7.26-3.39,9.26-2.88,3.14-2.12,5,1.37,2.38,2.5,0,2.51-4,2.51-2.5-.13,5.89-1.88,7.89-7,1.5-11.78,3.13-3.25.5-8.39,1.5-10.39,4.51-13,6.64-10.27,11.4-9.64,12.52.12,3.51,2.75,0,5.39-8.26,7.89-9.64,2.63,0,4.26-1.88-.88-1.75,3.63-2.88,4.26-1.63,7.64-1.75a34.07,34.07,0,0,0,6.26-.88c2.38-.37,10.27-2.5,11.65-1.88s1.63,2.51,2.75,1.63,2.13.63,1.51-1.63a10.22,10.22,0,0,0-1.38-3.5c-1.13-2.26-2.25-1.76-.88-3.89a20.43,20.43,0,0,0,2.63-7.51c.5-2.75.88-.88.63-4.26s-1.75-1.88.12-4.76,2.51-2.75,3.64-4.88,1.5-4.89,3-5,1.63.38.5,3.13-2.5,2.25-2.25,5.39,1,3.38-.13,5-2.75,3.25-1.5,3.13.75,1.87,2.25-1.51.38-1.5,2-4.38,1-.25,2.5-4.26,1.51-6.64.63-9.77-.5-1.5.12-5.63,1.18-15.16-1.29-20.79a68.46,68.46,0,0,1-3.72-9.77c-1.5-4.63-2.12-4.88-3.38-9.14s-1.25-4.38.38-8.27,1.13-2.88,3.51-5.26,4.13-3.5,5.26-5,1.5-1.87,2-1.12,1,.87-.63,2.75-2.5,2.88-4.25,4.89-3,3.5-3,5.76a10.69,10.69,0,0,1-.38,3.63c-.37,1.88-1.5,3.13.13,3.25s1.13,1.88,2.88-1.37.75-2.26,2.88-4.64,1.88-3,4.51-4.88,4.76-3.38,6.51-6.39,1-1.13,4.63-4.51,8-7.26,9.27-8.64a2,2,0,0,1,3.38.5c.25,1.13.13,2.88,1.63,4.14s2.79,4.49,3.36,5.54.95.42.79-1.11-1.4-1.36,0-1.88,2.48-.58,2.85.73a12.87,12.87,0,0,1,.47,5.14c-.32,1.63-.79,3.52-2.1,3s-1.21-1.21-2.2-.73-2.73.94-3.31,2.25-2.25,13.64-1.22,14.1,1.27-.23,1.27-3.34-.57-7.39.93-8.54,2-2,2.07-.81-.69,0-.34,3.11.11,5.43.92,4.16,1.27,1.5.35-2.89.34-5.07.34-5.07,1.85-1.5,2.43-.58.34,1.73,1.73,3.46,5.54,6.46,5.54,6.46.46,1.27,1.27.35-.46-2.08-2-3.46-4-3.12-4.27-5.2.57-9.23-.47-13.15-.69-1.73-2.3-8.08-2.66-9-2.08-13.85,1.5-10.27,2.88-13.85,2.2-8.19,5.43-10.38,6-.81,7.73-.12,3.35,2.89,3.58,6.23a11.85,11.85,0,0,1-.93,5.66c-2.07,1.38-2.77.8-5.07,3.34s-1.62,3-4,4.27-3,.58-4,2-1.85,2.19,1.38,2,6.81.81,9.58-1.5,3.12-3.35,6.35-4.85,4.27-1.38,5.65-.81,12,7,14.08,9.7a88,88,0,0,1,6.58,10.27A37.73,37.73,0,0,1,467.81,306c-.12,2.08,0,2.31-2.54,3.24s-2,.11-3.7,1.38-2.3,2.31.24,2.19,4.51-.34,6-1.15,1.84-.12,3-3.58.57-2.88,1.15-3.46,1.62-1.39,2.54.92,3.92,9.35,5.19,10.16,1.27-.46,2.66.92,1.38,2.19,3,6.12,5.88,8.31,6.58,11.19.35,5.77,1.44,6.7,1.44,2,1.79-.35,1.27-1.27,0-4.73-1.27-3.12-1.79-5.77.06-4.5,1.67-3.7,1.27,5,2.89,6.24,1.84.34,1.84,3-.57,3.46-1.5,6.11-.23,4.27-1.38,4.39-.12-.81-2-.81a8.19,8.19,0,0,0-5.2,1.39,43.49,43.49,0,0,1-4,2.07c-1.84,2.43-1.38,2.66-3.23,4.27s-2.54,1-4.61,2.43-3.12,1-3.47,1.73.24.92,2.08.58a32,32,0,0,0,6.46-2.66c2.2-1,2.89.46,6.47-1.38s6.58-3.93,11.77-6.12,10.15-1.62,13.73-1.85,10-1.73,12.93-.57,6.11,2.42,8.54,2,3.23-.46,2.42-1.39-2.54-1.38-6.69-2-2.77-1.5-9.23-1.85-11.78-1.73-14.66-4.84-7.16-7.62-8.77-13.39-5.77-16.16-8.2-19.16-1.15-3.81-3.46-6.81a10.86,10.86,0,0,1-2.31-7.61s-1-.93,1.85-1,5.89,1.84,10.62-.23A126.19,126.19,0,0,1,514.2,283c5.42-1.49,10.62-2.07,19-3.57s32.66-8.08,36.12-9.81,3.58-2,5.08-1.27,1.73.73,2,4.12,1.62,12.5,2.89,15.62,3.58,7.73,5.31,9.69,2.19,1.73,2.08,3.92-1.13,5.2,0,4.5,1.37-1,1.95-3.8,1.61-3.58-.58-5.43-5-3.46-5.77-7.5-1.62-4.5-.92-8.77,1.15-6.58-.35-9.58-2.54-5.31-4.85-6.35-3.92.12-2.42-1.73.35-1.5,4.15-2.31,4.85-.8,7.28-1.5,3.46-1.73,6,0,6.34,3.81,8.19,10,3.23,8.89,3.35,12.35-.81,10.39,0,14.31,5,13,7.38,15.58a60.46,60.46,0,0,0,12.35,9.12c3.69,1.85,5.08,3,8.08,2.42s2.19-3.69-1.62-4.5-6-2.19-9.57-4.84-6-1.73-8.2-9.12-2.65-9.58-3.46-13.27-2.19-7.85-.12-9.24,3-1.38,4.27,5.2,2.66,13.5,4.51,15.69,4.61,5.31,6.46,7.62,1.5,2.77,3,2.77,3.11.46-.81-3.69-5.08-4-5.65-8.43-3.7-22-6.47-27.46-7.5-11.43-10.38-15.58-.12-6.12-10.51-8-8.65-2-12.92-2.54-6.23-2.19-2.89-4.61,5.89-2.77,8.43-5.77,1.27-2.77,5-3.7,6.58-1.5,9-3,3.7-1.27,8.77-4a45.66,45.66,0,0,1,10.85-4.73c5.54-1.84,13.62-3.58,13.62-3.58"/><path class="cls-3" d="M630.77,186.19s-14.81-4-17.73-5.39-4.26-1.34-2.24-3.14,2.69-.89,6.28-2.69,4-.9,4.71-3.81-1.12-1.57.45-5.39,2.8-3.58,1.57-3.81-1.09,1.58-1.93,1.44-.28-.84-1-2.38-1.4-1.4-1.12,0a18.93,18.93,0,0,1,.52,3.78c0,1.54,1.08,3.64,0,5.59s-.24,2-3.32,2.66-4.36.56-7.15,2-3.62,2.24-5.44,2.66-3.35,1-5.17.42-13-7.14-16.37-7.7-19.71-5.85-26.78-.68-6.25,9.52-7.34,12.23a97.66,97.66,0,0,1-7.07,12.24c-1.08,1.36-3.53,2.17-4.89,4.62s-3.54,3.26-4.62,5.44-6.26,7.88-7.89,10.87-2.17,2.72-3.8,4.9-4.9,2.72-6.53,4.35-5.71,4.62-7.34,5.16a22.74,22.74,0,0,0-3.81,1.36c-2.44,1.09-2.44.82-4.07,0s-2.45-1.83-2.18.72,2.62,3.63,0,4.72-4.84-1.36-6.47,0,.27,1.09-3.27,2.17-8.7,1.91-16-1.36-20.84-12-23.67-13.93-7.44-5.39-10.26-6.8-20-16.69-27.59-19.38a58.06,58.06,0,0,1-18-10.78c-4.36-3.72-11.48-11.77-15.67-14.62S358,158.06,355.45,154.71s-10.71-22.77-12.22-30.13-11.05-30.12-11.05-30.12"/><path class="cls-3" d="M346.58,92.44s-1.84,28.46,2,28.46,7.53-8.88,10.55-7,1.67,4.18,1.67,4.18"/><path class="cls-3" d="M356.12,128.09s.67,9.21,0,13.73-3,5.36,3.85,11.05,7.54,6.86,7.54,6.86a39.72,39.72,0,0,1-6.4-12.38c-2.48-7.7-2-11.89-3.48-15.57Z"/><path class="cls-3" d="M357.63,131.78s-.67-7.7,0-10,5.36-3.68,7.53-7.86,7-9.21,10.88-13.06,7.37-8,8-8.37"/><path class="cls-3" d="M389.77,93.27s-8,9.71-10.88,12.73-7,4.52-9.71,9.2-1.51,1.34-3,6.53-4.86,17.41-3.18,23.44.16,5.19,3.85,8.54,2.17,5.86,6.53,10,5,5,8.2,7.87,3.51,2,5.52,4.35,9.71,4,14.23,7.54,8.71,7.7,11.39,8.37,4,2.34,8.2,3.34,7.53.34,10.88.84,7.53-.5,10.38-1.17,2.51.33,3.85-1.34-.67-1.84,3-2.18a76.89,76.89,0,0,1,14.23-.33c5.53.5,4.69,2.17,7.87.17a57.45,57.45,0,0,1,6.53-3.85c2.68-1.34,2.84-.67,6-1.51s5.47-2.85,9.68-3.68,5.88,0,8.39-1.51,7.2-.17,11-2.18,6.36-2.34,10.21-5,7.37-5.19,8.38-8.7,0-4.19-1.34-4.52-2.18-2,1-6.2,2.18-7,7.2-8.37,16.24-1.84,19.59-1.67,1.17,1.14,4.85.74,1.51-1.61,5.52,0a60,60,0,0,0,10.38,3.11c3.18.67,2.35,1.34,4.19,1.67s2.51.67,4.69.17a28.94,28.94,0,0,1,11.38.17c4.18,1,8,1.34,14.9,2.34s4.35,3.52,7.7,4,9.54,2,10,3.68"/><path class="cls-3" d="M495.24,93.27a6.26,6.26,0,0,0,4.35,3.47c3.18.64,7.36,1.14,6.19,2.48s-4.64.5-8.76.67-4-2.35-4.8-2.35a30.1,30.1,0,0,0-5.52,1c-2.68.67-8.87-1.27-10.88-1.81s-4.52-3.47-4.52-3.47"/><path class="cls-3" d="M490,267a2.79,2.79,0,0,1-.33-5.14c.44-.22.94-.45,1.49-.68,6.41-2.72,7.38-5.24,12-10.1s10.68-8.93,14.75-14.36,3.5-3.3,6.41-7.77,2.72-2.52,4.46-4.66,4.08-2.52,10.29-9.31,11.46-12.23,14.17-16.89a79,79,0,0,0,5-11.26s-2.33,4.07-5,5.24-4.46.39-2.71-2.53a40.41,40.41,0,0,0,3.88-7.57c1.16-3.1-1.36-2.33,3.88-4.85s5.82-4,10.87-2.66,9.71.72,12.23,3a9.85,9.85,0,0,1,3.5,6c.58,2.33,2.52,2.71,6.6,2.71,4.7,0,7.34-2.06,11.19.66a7,7,0,0,1,2.1,2.48c3.05,5.85,2.59,3.45,6.31,6.85,3.11,2.83,4.66,2.44,2.92,5.54s-7.57,5.63-10.68,8.35-6,7.33-8.35,9.69-2.52,1.57-5.24,4.48-5.24,5.83-5.63,3.3.19-.38-.39-2.52-.77-1.16.58-4.27.39-1.94,4.47-8.15,2.72-5.63,6.6-8.74,6-4.66,5.24-6-1.75-1.16-4.66.39-2.52,2.33-6.6,3.11-11.26-1-9.32-8.93c0,0-1.16,3.46-2.52,3.77s-2.33,1.47-3.69,5.74-2.52,16.31-5.05,20.58-9.31,14.75-10.48,16.11-9.32,13-17.08,16.7-9.13,1.55-16.89,5.24S513.25,265,507.23,267A30.5,30.5,0,0,1,490,267Z"/><path class="cls-3" d="M302.75,342.49c0,1.83.4,6.94,3.35,3.56a10.9,10.9,0,0,0,1.4-3.51c.53-2.06-.15-1-.83-2.29s.84-2.28.5-3.15c-.56-1.44-1.76.29-2.22.73-.83.8-2,1.6-2.21,2.8-.16.86.34,1.62.34,2.48C303.27,342.94,303.06,343,302.75,342.49Z"/><path class="cls-3" d="M263.11,294.55c-2.82,1.52-5.21,4.25-4.24,7.27.09.28.49,2.54.52,2.56.94,1.09,1.26-.93,2-1.36.31-.19.83.35,1.23.08A3.62,3.62,0,0,0,264,301c.36-1.28-.19-2.11-.28-3.18S264.5,295,263.11,294.55Z"/><path class="cls-3" d="M128.93,125.14c5.48-4.46,14.66-5,21.32-6.64,10.28-2.61,20.6-4.89,31.2-5,8.79-.08,17.63-.12,26.48.67,9.12.82,17.38,2.9,26.32,4.18s19.57,2,28.34-1.45c.14.1-.34-.69-.29-.43s0,.27.21.22a6.5,6.5,0,0,0-.28-.76c5.18-3.29,15.55-2.1,21.32-1.38,9,1.12,22.17,4.35,30.32,8.47,4.39,2.23,11.59,6.27,14.29,10.48,2,3.07,2.55,5.49,4.23,8.74,2.07,4,3,8.23,4.81,12.42,1.17,2.68,2.63,5.26,3.9,7.9s2,5.34,3.5,7.69a67.41,67.41,0,0,0,6.45,8.14c2,2.27,3.8,3.83,4.84,6.69a30.8,30.8,0,0,0,3.31,7c2.86,4.21,6.86,7.86,10.1,11.78,2.78,3.36,5.18,7.07,7.78,10.49,3,3.95,6,7.36,8.39,11.78,1.34,2.51,2.79,5,4.15,7.46,1.16,2.13,1.57,4.61,2.7,6.69,1.46,2.69,4.73,3.66,6.77,5.81,1.29,1.37,1.5,2.89,1.59,4.69.05,1.17-.26,3.66,1.17,4.25s1.07-.88.85-1.84c-.34-1.47.41-3.75.34-5.48a12,12,0,0,1,.17-3.55,20.94,20.94,0,0,0,.85-3.45c.07-1.39-.5-2.85-.35-4.22.2-1.74,1.11-2.59-.16-4.34-.48-.67-1.13-.85-1.4-1.64-.59-1.64.51-4.07.38-5.79-.15-2-1-5.21.54-7,1.69-2,3.56,1.47,4.29,3.1,1.33,3,2.1,2,4.9,3.58,3.77,2.13,5.27,8.91,6.74,12.67a54.14,54.14,0,0,0,6.4,11.72c1.14,1.58,1.94,3.26,3.52,4.51a21.81,21.81,0,0,1,1.93,1.33,8.73,8.73,0,0,1,2,3.51.76.76,0,0,1-.64-.07"/><path class="cls-3" d="M229.32,93.83c-1.74-.15,2.86,1.93,3.34,2.12,2.51,1,5.06,1.12,7.67,1.45a60.36,60.36,0,0,0,15.14.23c5.91-.66,11.94-5.89,17.93-4.61,3.84.82,6,3.31,8.87,5.34,2.72,1.91,6.1,2.89,9.26,3.74a49.34,49.34,0,0,1,11.92,4.52c1.88,1,4.94,2.95,7.23,2.39,3.43-.85,3.46-5.37,3.15-8.4s-1.33-4.91-2.75-7.43c-1.53-2.72-2.46-8.5-5.57-9.68"/><path class="cls-3" d="M332,124.34c-1.17,2.71.34,7.2,1.22,9.92.77,2.38,1.79,4.7,2.39,7.1a54.36,54.36,0,0,0,2,7.51c1.33,3.28,4.34,5.59,5.2,9.13.34,1.4.18,2.62.82,4,1,2.17,2.77,3.73,4,5.72s3.5,5.76,6.53,4.29c3.58-1.73-.66-7.36-1.62-9.28-1.36-2.69-1.91-5.42-2.93-8.2s-2.63-3.84-4.06-6.07-1.46-5.35-2-7.87c-.77-3.54-2.31-5.75-4.16-8.74-1.45-2.33-1.2-5.29-3.18-7.28C335.21,123.57,333.34,122.46,332,124.34Z"/><path class="cls-3" d="M295.83,108.85c-1.93,0-9.64-.35-5.94,3.56,1.74,1.84,5.31,1.26,7.62,2,2.07.69,4.39,2.4,6.54,2.6s2.81-1.16,1.56-3c-1.13-1.61-3.69-2.09-5.42-2.92S296.8,109.29,295.83,108.85Z"/><path class="cls-3" d="M315.82,91.38c.59,2,.4,4.19.88,6.21a16.85,16.85,0,0,0,2,4.38c2.51,4.49,1.81,8.41,1.7,13.39s2.8,9.28,5.91,13c1.89,2.27,3.37,3.19,4.14,6.14.53,2.06.72,4.15,1.62,6.05"/><path class="cls-3" d="M371.11,205c1.14,2.6,3.54,3.31,5.86,4.38,1.84.84,3.52,2.45,5.46,3,1.53-3.59-.26-7.83,1.1-11.15,1.85-4.52,7.34-2.38,10.29-.17,1.4,1,2.42,2.56,3.8,3.62,1.63,1.25,3.53,1.76,5.34,2.73,3.92,2.11,9.14,8.36,10.3,12.81.44,1.69.25,3.44,1.11,5,1.33,2.45,3.71,1.92,5.72,3.33s3.75,5.4,4.85,7.71a49,49,0,0,1,2,6.15,34.51,34.51,0,0,0,4.73,10.11c1.56,2.07,2.06,4.28,3.41,6.48,2.68,4.35,8.69,4.78,12.11,8.54a11.71,11.71,0,0,0,2.61,2.65c1.8,1.13,6.38,1.76,6.68,4.3,1.92,2.42,3.42,4.86,6.65,5.27s6.31,1,9.45,1.5c9.77,1.62,19.7,2.79,29.63,1.88a70.06,70.06,0,0,0,12.61-2.52c4-1.14,8.22-1.75,12.18-3.07,1.72-.57,6.15-1.15,7.44-2.51,2.86-3-3.26-4.32-5.15-4.33a24.28,24.28,0,0,0-9,1.94,62.45,62.45,0,0,1-13,3.37c-5.64.83-11.6,1.76-17.3,1.54s-11.75.3-17-1.84c-3.77-1.53-7.63-3.45-10.32-6.54a69.47,69.47,0,0,0-7.74-8.16c-2.3-1.91-5.58-3.31-8.25-4.69-3.23-1.65-5.31-.72-7.63-4.36-1.25-2-2.28-2.48-4.12-3.87a18.57,18.57,0,0,1-4.11-5.2,8.64,8.64,0,0,1-1.64-4.6c0-2.61.83-1.66,2.35-2.7,3.27-2.25.3-10.09-1.27-12.88a31.35,31.35,0,0,0-5.34-6.6c-1.86-1.74-4.46-3-5.83-5.2-1.47-2.37-4.38-3.22-5.94-5.54-1.07-1.6-1.77-3.36-2.9-4.92-1.49-2-3.46-3.28-5-5.21"/><path class="cls-3" d="M465.85,272.38c-.75-1.15-.57-2.49-1.08-3.65-.37-.84-1.67-1.53-1.77-2.47-.37-3.47,4.76,2,3.22-3.42a54.45,54.45,0,0,0-2-5.1c-.55-1.36-.34-3-.91-4.21s-2.54-2-3.58-2.94c-2.27-2-1.16-3.83-1.44-6.49-.22-2.17-1.25-2.67-2.5-4.1-.77-.87-.8-2-1.46-2.76-.14-.16-.88.13-1.12-.07a4.13,4.13,0,0,1-1.42-2.71c-.06-1.22.7-1.83.56-3.05-.25-2.25-1.88-1.63-3.46-1.71a8.71,8.71,0,0,1-6.4-3.78c-1.28-1.94-.76-3.08-2.87-4.13-1.75-.86-2.47-1-3.64-2.87-.34-.54-.36-1.06-.91-1.48s-1.78-.55-2.54-1.2a23.35,23.35,0,0,1-3.2-3.87c-.63-.86-2-3.25-2.93-3.38"/><path class="cls-3" d="M320.76,191.73c1.68,2-1.35,5.09-2.4,6.78-1.16,1.88-1,4,1.72,3.53,2.55-.44,4.17-3.12,5.57-5,1.73-2.31,3.23-4.44,5.75-5.87a14.68,14.68,0,0,0,4.6-3.4c.64-.83.8-1.95,1.43-2.7.88-1,1.64-.49,1.68-2,.14-4.63-10.91-3.59-13.76-2.35-2.45,1.06-2.92,2.42-4,4.54s-1.81,1.92-1.76,4.1Z"/><path class="cls-3" d="M200.11,239.5c-1.5.42-3.37,2.2-3.06,3.89,1.17.22,6.25-3.33,3.34-3.89"/><path class="cls-3" d="M206.82,237.82a2.4,2.4,0,0,0-3.62,1.09c1.13.5,2.08-.13,3,.88.65.7.49,2.27,1.69,2.24,2.41-.07-.13-3.32-1.09-3.79"/><path class="cls-3" d="M129.32,244.26c1.78,2.5,9.72-3.39,11.57-4.62,1.43-.95,7.81-3,7.25-5.18-.43-1.67-2.42-1.55-3.62-1.67-1.76-.18-1.58-1.07-3.12-1.84a12.51,12.51,0,0,0-6-.85c-1.35.07-2.69,0-4,.14a13.5,13.5,0,0,1-2.92.31"/><path class="cls-3" d="M130.16,222.85c1.3-2.13,5.67-.34,7.55-.13,1.59.17,3.46-.69,2.67-2.58s-3.59-1.29-4.69-2.67c-.67-.84-.79-3-1.33-4,1.38-.94.76-3.05-.21-4.12a18.53,18.53,0,0,0-2.45-1.82,4.31,4.31,0,0,0-3.63-.89"/><path class="cls-3" d="M129.46,154.31C133,152.44,137,152,140.75,151s7.28-2.84,11-4.24c7.09-2.66,14.94-2.41,22.11-4.89,6-2.07,11.9-4.34,18.13-5.46a73.57,73.57,0,0,1,10.56-1.4,50.48,50.48,0,0,1,9.45.27c2.14.37,4.41.26,6.5.71a25,25,0,0,0,2.57.57c.3-.09.13-.11.13-.29,2.57-1.12,7,.38,9.49,1.08,3,.84,6,1.58,9,2.32,4,1,7.78,3,11.71,4.29,1.6.54,2.83.84,3.39,2.56.22.66,0,1.8.26,2.32.18.29.92.51,1.21.76a5.08,5.08,0,0,1,1.55,4.69c-.34,1.44-1.31,1.72-2.35,2.37-.62.38-1.83.21-1.54,1-.81,2.28-.68,5.38-3.3,6.63-1.33.64-1.75-.09-3-.48-.9-.29-2.72,0-3.39-.72s.07-1.85,0-2.76a2.62,2.62,0,0,0-1.45-2.54c-1.06-.61-2.43-.49-3.43-1.25-.84-.63-1.19-2.36-2.56-1.8.59,2,4.27,2.57,5.64,4.12,1.54,1.74.49,2.13.92,4,.32,1.38,1.26,1.43,2.5,1.79s2.81.5,2.94,2c.09,1-.95,2.58-1.54,3.32-1.06,1.33-4.11,4-6,3-.13-1.06.21-1.57-.56-2.39a10,10,0,0,0-2.78-1.45c-1.16.39.58,1,.78,1.14,1.38.94,2.31,1.86,1.07,3.63-3.85,5.48-12.49,4.82-18.23,6.21-3.19.77-5.37,3.29-8.69,4-2.46.54-7.78.79-9.49-1.52-.46-.61-.57-1.78-1-2.48a30.78,30.78,0,0,1-1.68-2.58c-.55-1.26-.05-1.79.05-2.91.14-1.47-.32-3-.13-4.52.22-1.74-.15-4.33.88-5.83.72-1,2.1-1.08,2.83-2.09-1.07-1.52-1.77.31-2.52.62-2.42,1-1.26-3.12-3.22-2.47-.23,1.29,1.18,2.79,1.56,4.06.47,1.54,0,2.29-.27,3.72-.17,1.05.81,4.82-.68,4.63-.37,0-1.65-1.63-2-2-1.26-1.15-1.77-2.51-2.88-3.67-.72-.75-1.91-1.16-2.45-2.05s.11-3.47-1.21-3.5c-.38,1.56,1.38,4.1-1.11,3.51-1.35-.32-3-2.1-4.33-1.85.9,2.24,4.1,2.18,6,3a4.84,4.84,0,0,1,2.2,2,7.4,7.4,0,0,0,1.74,1.63,13.62,13.62,0,0,1,2.84,3.18c.77,1.29.52,2.05.77,3.43.45,2.47,5.91,5.76,2.91,7.55-1.2.71-1.68.46-2,1.65-.15.57.34,1,0,1.68s-1.37,1.08-2,1.5c-1,.69-.93,1-1.71,1.82s-2.08,1-3.08,1.27c-2.53.74-5.07,1.43-7.58,2.14-3.84,1.07-5.39,5.16-9.67,4.76-2.5-.24-3-1.48-4.82-3-1.23-1.05-2.86-1.68-4-2.81-.87-.88-1.33-2.06-2.15-3-1.62-1.83-3.13-2.84-3.56-5.33s-1.17-5.29-.16-7.69c-.7-.71-1.42-.1-2.16-.75-.95-.85-.63-2.32-2.07-3-.81.73,2.26,4.14,2.48,5.46.13.78,0,1.64.12,2.35.13,1.26.88,2.84-.32,3.9-.86.76-2.87-.62-3.86-.8-1.41-.27-2.41,0-3.57-.89s-2.41-3.17-4.34-2.48c.19,1,1.84,1.11,2.55,1.72s1.06,1.77,2,2.23c1.27.62,2.88.18,4.23.79a15.19,15.19,0,0,1,4,2.77c1.87,1.82,1.76,4.39,3.33,6.32,2.2,2.69,7.34,4.82,7.2,9-.06,2-1.7,1.53-2.87,2.47-1,.79-.61,1.41-.63,2.39,0,1.4.08,2.34-1.13,3.11-1.94,1.24-6.47,2.57-8.58,1.57a10,10,0,0,1-4.19-3.79c-1.3-2.39-2.76-5-5-6.75-.28,1.42,1.61,2.1,2.32,3.22.92,1.44.89,3.3,1.93,4.62.45.57,3.83,2.8,2.9,3.65-.39.36-1.18-.25-1.6-.36-2.42-.63-5.25-.27-7.72-1.13-1.66-.57-2.76-1.71-4.11-2.69a8.64,8.64,0,0,0-4.49-1.44c-1-.11-.73.1-1.52-.59s-1.38-1.76-2.49-2.28a19.55,19.55,0,0,0-3.4-.8"/><path class="cls-3" d="M161.13,213.68c5,6,12.3,2.76,18.51,5.09,2.4.9,4.52,2.28,7,3a99.73,99.73,0,0,1,10.31,3.16c5.77,2.36,12.88,2.72,19.08,2.4,2-.1,6.76.92,8.26-.7"/><path class="cls-3" d="M229.13,226.86a44.28,44.28,0,0,0,14.21.46c2.44-.39,4.49-1.72,6.83-2.31,2-.51,4.16-.13,6.21-.34,3.32-.34,6.53-.88,9.18-3a33.09,33.09,0,0,1,4.72-3.4c3.59-1.82,7.29-2.54,10.61-4.92,1.31-.93,5.39-3.58,4.22-5.5"/><path class="cls-3" d="M270.54,183.15c-1.48-.1-1.08.76-1.37,1.76,0-.12-.12,2.94-.27,2.65,1.57,2.92,4.08-.73,4.88-2.06,1.12-1.87.71-1.1,2.68-2.08,2.57-1.28,1.48-2.47,1.69-4.4-1.84-.31-.72,1.37-1.4,1.77-1,.6-1.78-.37-2.53-.07-1.59.61-1.61,2.6-3.22,3.12Z"/><path class="cls-3" d="M272.36,178.16c0,1.75,1.23,1.65,2.54,2,.48.13,1.15.67,1.66.58"/><path class="cls-3" d="M278.38,181.72c.16.5.21,1,.7,1.25s1.44-.15,2.08-.13a9.26,9.26,0,0,1,3.46,1.4,4.35,4.35,0,0,1,2.19,2.24c.27.75.25,1.86.73,2.45"/></g><polyline class="cls-9" points="179 270.81 24.02 270.81 24.02 48.63"/><circle class="cls-9" cx="24.02" cy="24.02" r="24.02"/><circle class="cls-10" cx="24.02" cy="24.02" r="14.16"/></svg>