<svg id="Layer_1" data-name="Layer 1" xmlns="http://www.w3.org/2000/svg" xmlns:xlink="http://www.w3.org/1999/xlink" viewBox="0 0 499.27 413.18"><defs><style>.cls-1,.cls-2,.cls-5,.cls-7{fill:none;}.cls-2,.cls-3,.cls-5,.cls-7{stroke:#82d7c6;stroke-linecap:round;stroke-linejoin:round;}.cls-2,.cls-3{stroke-width:3px;}.cls-3{fill:#007188;}.cls-4{clip-path:url(#clip-path);}.cls-6{fill:#82d7c6;}.cls-7{stroke-width:2px;}</style><clipPath id="clip-path"><circle class="cls-1" cx="337.47" cy="251.37" r="159.3"/></clipPath></defs><circle class="cls-2" cx="337.47" cy="251.37" r="159.3"/><circle class="cls-3" cx="337.47" cy="251.37" r="159.3"/><g class="cls-4"><polyline class="cls-5" points="210.38 284.35 210.38 256.32 476.67 256.32 447.59 286.3"/><path class="cls-5" d="M574.94,284.54a10.32,10.32,0,0,0-5.33,1.79,6.28,6.28,0,0,1-6.85,0h0a11.29,11.29,0,0,0-12.35,0,6.24,6.24,0,0,1-6.84,0h0a11.27,11.27,0,0,0-12.36,0h0a6.24,6.24,0,0,1-6.84,0,11.29,11.29,0,0,0-12.35,0h0a6.26,6.26,0,0,1-6.85,0,11.28,11.28,0,0,0-12.35,0,6.24,6.24,0,0,1-6.84,0,11.29,11.29,0,0,0-12.35,0h0a6.26,6.26,0,0,1-6.85,0,11.28,11.28,0,0,0-12.35,0,6.24,6.24,0,0,1-6.84,0,11.28,11.28,0,0,0-12.35,0,6.26,6.26,0,0,1-6.85,0,11.29,11.29,0,0,0-12.35,0,6.24,6.24,0,0,1-6.84,0,11.28,11.28,0,0,0-12.35,0,6.26,6.26,0,0,1-6.85,0,11.29,11.29,0,0,0-12.35,0,6.24,6.24,0,0,1-6.84,0,11.28,11.28,0,0,0-12.35,0,6.26,6.26,0,0,1-6.85,0,11.29,11.29,0,0,0-12.35,0,6.24,6.24,0,0,1-6.84,0,11.29,11.29,0,0,0-12.36,0,6.24,6.24,0,0,1-6.84,0,11.29,11.29,0,0,0-12.35,0h0a6.26,6.26,0,0,1-6.85,0,11.28,11.28,0,0,0-12.35,0,6.24,6.24,0,0,1-6.84,0h0a11.29,11.29,0,0,0-12.35,0,6.26,6.26,0,0,1-6.85,0h0a11.26,11.26,0,0,0-12.35,0,6.26,6.26,0,0,1-6.84,0,11.29,11.29,0,0,0-12.35,0h0a6.26,6.26,0,0,1-6.85,0,11.26,11.26,0,0,0-12.35,0,6.26,6.26,0,0,1-6.84,0,11.29,11.29,0,0,0-12.35,0,6.26,6.26,0,0,1-6.85,0,11.28,11.28,0,0,0-12.35,0,6.24,6.24,0,0,1-6.84,0,11.53,11.53,0,0,0-9.56-1.4V613.7H574.94Z"/><path class="cls-6" d="M294.85,275.72V264h3.61a5.53,5.53,0,0,1,2.77.69,4.9,4.9,0,0,1,1.9,2,6.1,6.1,0,0,1,.69,2.93v.53a6.24,6.24,0,0,1-.67,2.91,4.83,4.83,0,0,1-1.9,2,5.66,5.66,0,0,1-2.76.71Zm2.42-9.78v7.83h1.17a2.61,2.61,0,0,0,2.16-.92,4.18,4.18,0,0,0,.77-2.65v-.62a4.25,4.25,0,0,0-.74-2.71,2.62,2.62,0,0,0-2.17-.93Z"/><path class="cls-6" d="M312.63,270.92H308v4.8h-2.41V264h7.63v1.95H308v3h4.64Z"/><path class="cls-6" d="M314.61,275.72V264h3.61a5.53,5.53,0,0,1,2.77.69,4.92,4.92,0,0,1,1.91,2,6.21,6.21,0,0,1,.68,2.93v.53a6.12,6.12,0,0,1-.67,2.91,4.83,4.83,0,0,1-1.9,2,5.63,5.63,0,0,1-2.76.71Zm2.42-9.78v7.83h1.17a2.61,2.61,0,0,0,2.17-.92,4.18,4.18,0,0,0,.76-2.65v-.62a4.19,4.19,0,0,0-.74-2.71,2.61,2.61,0,0,0-2.17-.93Z"/><path class="cls-6" d="M331.42,272.64a1.23,1.23,0,0,0-.48-1.05,6,6,0,0,0-1.74-.78,12.5,12.5,0,0,1-2-.8,3.26,3.26,0,0,1-2-2.91,2.79,2.79,0,0,1,.54-1.69,3.47,3.47,0,0,1,1.53-1.17,5.8,5.8,0,0,1,2.26-.42,5.37,5.37,0,0,1,2.24.46,3.55,3.55,0,0,1,1.52,1.28,3.35,3.35,0,0,1,.55,1.89h-2.42a1.57,1.57,0,0,0-.51-1.25,2.07,2.07,0,0,0-1.42-.45,2.22,2.22,0,0,0-1.38.37,1.18,1.18,0,0,0-.49,1,1.14,1.14,0,0,0,.57,1,6.65,6.65,0,0,0,1.7.73,7.27,7.27,0,0,1,3,1.53,3.09,3.09,0,0,1,1,2.29,2.82,2.82,0,0,1-1.16,2.39,5,5,0,0,1-3.1.87,6,6,0,0,1-2.46-.5,3.89,3.89,0,0,1-1.7-1.36,3.45,3.45,0,0,1-.58-2h2.42c0,1.29.78,1.94,2.32,1.94a2.28,2.28,0,0,0,1.35-.35A1.15,1.15,0,0,0,331.42,272.64Z"/><path class="cls-6" d="M345.67,272.64a1.23,1.23,0,0,0-.48-1.05,6,6,0,0,0-1.74-.78,12.5,12.5,0,0,1-2-.8,3.26,3.26,0,0,1-2-2.91,2.79,2.79,0,0,1,.54-1.69,3.44,3.44,0,0,1,1.54-1.17,5.78,5.78,0,0,1,2.25-.42,5.34,5.34,0,0,1,2.24.46,3.55,3.55,0,0,1,1.52,1.28,3.35,3.35,0,0,1,.55,1.89h-2.42a1.57,1.57,0,0,0-.51-1.25,2.05,2.05,0,0,0-1.42-.45,2.24,2.24,0,0,0-1.38.37,1.18,1.18,0,0,0-.49,1,1.14,1.14,0,0,0,.57,1,6.65,6.65,0,0,0,1.7.73,7.31,7.31,0,0,1,3,1.53,3.12,3.12,0,0,1,.94,2.29A2.84,2.84,0,0,1,347,275a5.06,5.06,0,0,1-3.11.87,6,6,0,0,1-2.46-.5,3.89,3.89,0,0,1-1.7-1.36,3.45,3.45,0,0,1-.58-2h2.42c0,1.29.78,1.94,2.32,1.94a2.28,2.28,0,0,0,1.35-.35A1.15,1.15,0,0,0,345.67,272.64Z"/><path class="cls-6" d="M356.79,270.62h-4.64v3.15h5.45v2h-7.87V264h7.85v1.95h-5.43v2.8h4.64Z"/><path class="cls-6" d="M365.64,273.3H361.4l-.81,2.42H358L362.39,264h2.24L369,275.72h-2.57Zm-3.59-2H365L363.51,267Z"/><path class="cls-6" d="M378.94,272.33l1.58-8.34h2.41l-2.6,11.73h-2.44L376,267.87l-1.91,7.85h-2.43L369,264h2.41l1.58,8.33L375,264h2Z"/><path class="cls-6" d="M390.51,273.3h-4.24l-.81,2.42H382.9L387.26,264h2.24l4.39,11.73h-2.57Zm-3.59-2h2.94L388.38,267Z"/><path class="cls-6" d="M397.82,269.27l2.45-5.28h2.64l-3.85,7.47v4.26H396.6v-4.26L392.75,264h2.65Z"/><path class="cls-6" d="M409.93,272.64a1.23,1.23,0,0,0-.48-1.05,6,6,0,0,0-1.74-.78,12.5,12.5,0,0,1-2-.8,3.26,3.26,0,0,1-2-2.91,2.79,2.79,0,0,1,.54-1.69,3.44,3.44,0,0,1,1.54-1.17,5.71,5.71,0,0,1,2.25-.42,5.34,5.34,0,0,1,2.24.46,3.55,3.55,0,0,1,1.52,1.28,3.35,3.35,0,0,1,.55,1.89h-2.42a1.57,1.57,0,0,0-.51-1.25,2.07,2.07,0,0,0-1.42-.45,2.24,2.24,0,0,0-1.38.37,1.18,1.18,0,0,0-.49,1,1.14,1.14,0,0,0,.57,1,6.65,6.65,0,0,0,1.7.73,7.31,7.31,0,0,1,3,1.53,3.12,3.12,0,0,1,.94,2.29,2.84,2.84,0,0,1-1.15,2.39,5.06,5.06,0,0,1-3.11.87,6,6,0,0,1-2.46-.5,3.89,3.89,0,0,1-1.7-1.36,3.45,3.45,0,0,1-.58-2h2.42c0,1.29.78,1.94,2.32,1.94a2.28,2.28,0,0,0,1.35-.35A1.15,1.15,0,0,0,409.93,272.64Z"/><path class="cls-5" d="M240.13,213.23l17.35-23.92H416.71V199H435v50a7.24,7.24,0,0,0,7.24,7.24H456"/><line class="cls-5" x1="230.42" y1="256.32" x2="230.42" y2="226.61"/><rect class="cls-5" x="454.08" y="249.46" width="2.92" height="6.86"/><line class="cls-5" x1="454.08" y1="252.38" x2="457" y2="252.38"/><rect class="cls-5" x="469.46" y="243.62" width="1.75" height="12.7"/><polyline class="cls-5" points="230.42 226.61 230.42 213.23 240.13 213.23"/><polyline class="cls-5" points="290.16 189.31 301.69 168.26 310.7 168.26 324.03 189.31"/><circle class="cls-5" cx="305.83" cy="178.71" r="3.96"/><path class="cls-5" d="M308.46,161.59h0a.9.9,0,0,1,.9.9v5.77a0,0,0,0,1,0,0h-1.8a0,0,0,0,1,0,0v-5.77a.9.9,0,0,1,.9-.9Z"/><path class="cls-5" d="M303.75,161.59h0a.9.9,0,0,1,.9.9v5.77a0,0,0,0,1,0,0h-1.8a0,0,0,0,1,0,0v-5.77A.9.9,0,0,1,303.75,161.59Z"/><path class="cls-5" d="M339.46,182.68h0a1.7,1.7,0,0,1,1.7,1.7v4.93a0,0,0,0,1,0,0h-3.41a0,0,0,0,1,0,0v-4.93A1.7,1.7,0,0,1,339.46,182.68Z"/><path class="cls-5" d="M352.93,176.18h0a1.17,1.17,0,0,1,1.17,1.17v12a0,0,0,0,1,0,0h-2.35a0,0,0,0,1,0,0v-12A1.17,1.17,0,0,1,352.93,176.18Z"/><polyline class="cls-5" points="382.34 189.31 387.8 174.82 391.35 174.82 397.64 188.9"/><polyline class="cls-5" points="387.8 174.82 387.8 171.26 395.37 171.26 391.35 174.82"/><polyline class="cls-5" points="388.86 171.26 388.86 168.26 385.83 168.26 385.83 167.25 390.75 167.25 390.75 171.26"/><line class="cls-5" x1="390.75" y1="174.82" x2="390.75" y2="189.31"/><path class="cls-5" d="M409.33,166.12h0a1.32,1.32,0,0,1,1.32,1.32v21.87a0,0,0,0,1,0,0H408a0,0,0,0,1,0,0V167.44A1.32,1.32,0,0,1,409.33,166.12Z"/><polyline class="cls-5" points="416.71 189.31 423.75 179.21 439.96 179.21 442.68 181.41 442.68 196.93 435.01 204.42"/><polyline class="cls-5" points="442.68 184.44 427.39 184.44 427.39 187.54 442.68 187.54"/><line class="cls-5" x1="439.92" y1="184.44" x2="439.92" y2="187.54"/><line class="cls-5" x1="436.66" y1="184.44" x2="436.66" y2="187.54"/><line class="cls-5" x1="433.41" y1="184.44" x2="433.41" y2="187.54"/><line class="cls-5" x1="430.15" y1="184.44" x2="430.15" y2="187.54"/><line class="cls-5" x1="416.71" y1="195.72" x2="442.68" y2="195.72"/><line class="cls-5" x1="442.68" y1="194.2" x2="416.71" y2="194.2"/><path class="cls-5" d="M435,213.23l-57.67,0a3,3,0,0,0-2.26,1.06l-2.85,3.42a3.15,3.15,0,0,1-2.42,1.13H327.08a3.14,3.14,0,0,1-2.41-1.12l-2.8-3.34a3.15,3.15,0,0,0-2.4-1.12H240.13"/><line class="cls-5" x1="230.42" y1="239.95" x2="251.28" y2="213.23"/><line class="cls-5" x1="245.76" y1="220.3" x2="230.42" y2="220.3"/><line class="cls-5" x1="230.42" y1="222.82" x2="243.8" y2="222.82"/><line class="cls-5" x1="238.6" y1="229.47" x2="230.42" y2="229.47"/><line class="cls-5" x1="230.42" y1="231.87" x2="236.33" y2="231.87"/><rect class="cls-5" x="262.15" y="191.82" width="1.7" height="3.9"/><rect class="cls-5" x="265.67" y="191.82" width="1.7" height="3.9"/><rect class="cls-5" x="269.2" y="191.82" width="1.7" height="3.9"/><rect class="cls-5" x="272.72" y="191.82" width="1.7" height="3.9"/><rect class="cls-5" x="256.01" y="219.84" width="1.7" height="3.9"/><rect class="cls-5" x="259.53" y="219.84" width="1.7" height="3.9"/><rect class="cls-5" x="263.06" y="219.84" width="1.7" height="3.9"/><rect class="cls-5" x="266.58" y="219.84" width="1.7" height="3.9"/><rect class="cls-5" x="277.65" y="219.84" width="1.7" height="3.9"/><rect class="cls-5" x="281.17" y="219.84" width="1.7" height="3.9"/><rect class="cls-5" x="284.7" y="219.84" width="1.7" height="3.9"/><rect class="cls-5" x="288.22" y="219.84" width="1.7" height="3.9"/><rect class="cls-5" x="301.42" y="219.84" width="1.7" height="3.9"/><rect class="cls-5" x="304.94" y="219.84" width="1.7" height="3.9"/><rect class="cls-5" x="308.47" y="219.84" width="1.7" height="3.9"/><rect class="cls-5" x="311.99" y="219.84" width="1.7" height="3.9"/><rect class="cls-5" x="279.65" y="191.82" width="1.7" height="3.9"/><rect class="cls-5" x="282.93" y="191.82" width="1.7" height="3.9"/><rect class="cls-5" x="286.22" y="191.82" width="1.7" height="3.9"/><rect class="cls-5" x="258.86" y="244.48" width="1.7" height="3.9"/><rect class="cls-5" x="262.15" y="244.48" width="1.7" height="3.9"/><rect class="cls-5" x="265.43" y="244.48" width="1.7" height="3.9"/><rect class="cls-5" x="268.59" y="244.48" width="1.7" height="3.9"/><rect class="cls-5" x="271.87" y="244.48" width="1.7" height="3.9"/><rect class="cls-5" x="275.15" y="244.48" width="1.7" height="3.9"/><rect class="cls-5" x="334.94" y="231.68" width="1.7" height="3.9"/><rect class="cls-5" x="338.22" y="231.68" width="1.7" height="3.9"/><rect class="cls-5" x="341.51" y="231.68" width="1.7" height="3.9"/><rect class="cls-5" x="344.67" y="231.68" width="1.7" height="3.9"/><rect class="cls-5" x="347.95" y="231.68" width="1.7" height="3.9"/><rect class="cls-5" x="351.23" y="231.68" width="1.7" height="3.9"/><rect class="cls-5" x="363.68" y="231.68" width="1.7" height="3.9"/><rect class="cls-5" x="366.84" y="231.68" width="1.7" height="3.9"/><rect class="cls-5" x="370.13" y="231.68" width="1.7" height="3.9"/><rect class="cls-5" x="373.41" y="231.68" width="1.7" height="3.9"/><rect class="cls-5" x="301.84" y="244.48" width="1.7" height="3.9"/><rect class="cls-5" x="305" y="244.48" width="1.7" height="3.9"/><rect class="cls-5" x="308.29" y="244.48" width="1.7" height="3.9"/><rect class="cls-5" x="311.57" y="244.48" width="1.7" height="3.9"/><rect class="cls-5" x="338.95" y="244.48" width="1.7" height="3.9"/><rect class="cls-5" x="342.11" y="244.48" width="1.7" height="3.9"/><rect class="cls-5" x="345.4" y="244.48" width="1.7" height="3.9"/><rect class="cls-5" x="348.68" y="244.48" width="1.7" height="3.9"/><rect class="cls-5" x="364.16" y="244.48" width="1.7" height="3.9"/><rect class="cls-5" x="367.32" y="244.48" width="1.7" height="3.9"/><rect class="cls-5" x="370.61" y="244.48" width="1.7" height="3.9"/><rect class="cls-5" x="373.89" y="244.48" width="1.7" height="3.9"/><rect class="cls-5" x="282.93" y="244.48" width="1.7" height="3.9"/><rect class="cls-5" x="286.22" y="244.48" width="1.7" height="3.9"/><rect class="cls-5" x="289.5" y="244.48" width="1.7" height="3.9"/><rect class="cls-5" x="300.17" y="191.82" width="1.7" height="3.9"/><rect class="cls-5" x="303.49" y="191.82" width="1.7" height="3.9"/><rect class="cls-5" x="306.9" y="191.82" width="1.7" height="3.9"/><rect class="cls-5" x="310.31" y="191.82" width="1.7" height="3.9"/><rect class="cls-5" x="313.71" y="191.82" width="1.7" height="3.9"/><rect class="cls-5" x="317.12" y="191.82" width="1.7" height="3.9"/><rect class="cls-5" x="244.59" y="244.48" width="1.7" height="3.9"/><rect class="cls-5" x="247.99" y="244.48" width="1.7" height="3.9"/><circle class="cls-5" cx="257.77" cy="233.63" r="1.23"/><circle class="cls-5" cx="269.2" cy="233.63" r="1.23"/><circle class="cls-5" cx="280.62" cy="233.63" r="1.23"/><circle class="cls-5" cx="292.05" cy="233.63" r="1.23"/><circle class="cls-5" cx="383.58" cy="245.71" r="1.23"/><circle class="cls-5" cx="391.58" cy="245.71" r="1.23"/><circle class="cls-5" cx="399.58" cy="245.71" r="1.23"/><circle class="cls-5" cx="407.58" cy="245.71" r="1.23"/><circle class="cls-5" cx="415.59" cy="245.71" r="1.23"/><circle class="cls-5" cx="423.59" cy="245.71" r="1.23"/><circle class="cls-5" cx="383.58" cy="232.4" r="1.23"/><circle class="cls-5" cx="391.58" cy="232.4" r="1.23"/><circle class="cls-5" cx="399.58" cy="232.4" r="1.23"/><circle class="cls-5" cx="407.58" cy="232.4" r="1.23"/><circle class="cls-5" cx="415.59" cy="232.4" r="1.23"/><circle class="cls-5" cx="423.59" cy="232.4" r="1.23"/><circle class="cls-5" cx="383.58" cy="219.08" r="1.23"/><circle class="cls-5" cx="391.58" cy="219.08" r="1.23"/><circle class="cls-5" cx="399.58" cy="219.08" r="1.23"/><circle class="cls-5" cx="407.58" cy="219.08" r="1.23"/><circle class="cls-5" cx="415.59" cy="219.08" r="1.23"/><circle class="cls-5" cx="423.59" cy="219.08" r="1.23"/><circle class="cls-5" cx="383.58" cy="205.77" r="1.23"/><circle class="cls-5" cx="391.58" cy="205.77" r="1.23"/><circle class="cls-5" cx="399.58" cy="205.77" r="1.23"/><circle class="cls-5" cx="407.58" cy="205.77" r="1.23"/><circle class="cls-5" cx="415.59" cy="205.77" r="1.23"/><circle class="cls-5" cx="423.59" cy="205.77" r="1.23"/><circle class="cls-5" cx="303.48" cy="233.63" r="1.23"/><circle class="cls-5" cx="314.9" cy="233.63" r="1.23"/><circle class="cls-5" cx="257.77" cy="204.42" r="1.23"/><circle class="cls-5" cx="267.43" cy="204.42" r="1.23"/><circle class="cls-5" cx="277.1" cy="204.42" r="1.23"/><circle class="cls-5" cx="286.76" cy="204.42" r="1.23"/><circle class="cls-5" cx="296.43" cy="204.42" r="1.23"/><circle class="cls-5" cx="306.09" cy="204.42" r="1.23"/><circle class="cls-5" cx="315.76" cy="204.42" r="1.23"/><line class="cls-5" x1="321.87" y1="214.35" x2="375.11" y2="214.35"/><line class="cls-5" x1="251.28" y1="197.86" x2="416.71" y2="197.86"/><line class="cls-5" x1="402.66" y1="197.86" x2="402.66" y2="256.32"/></g><polyline class="cls-7" points="179 270.81 24.02 270.81 24.02 48.63"/><circle class="cls-7" cx="24.02" cy="24.02" r="24.02"/><circle class="cls-6" cx="24.02" cy="24.02" r="14.16"/></svg>