<?xml version="1.0" encoding="utf-8"?>
<!-- Generator: Adobe Illustrator 25.2.2, SVG Export Plug-In . SVG Version: 6.00 Build 0)  -->
<svg version="1.1" id="Laag_1" xmlns="http://www.w3.org/2000/svg" xmlns:xlink="http://www.w3.org/1999/xlink" x="0px" y="0px"
	 viewBox="0 0 210.4 113.4" style="enable-background:new 0 0 210.4 113.4;" xml:space="preserve">
<style type="text/css">
	.st0{fill:#174373;}
	.st1{fill:#FFFFFF;}
	.st2{fill:#010202;}
</style>
<rect x="3.1" y="4.2" class="st0" width="35" height="105"/>
<path class="st1" d="M21.2,93.3h-0.6v-1.7h0.6V93.3z M24,85.9h-0.6v-1.7H24V85.9z M12.7,83c0,0-0.4,0-0.4,0.1c0,0.1,0.1,0,0.4,0.1
	c0.5,0.1,0.7,0.3,1,0.3c0.3,0,0.6-0.2,0.5-0.7c0-0.1-0.1-0.1-0.1,0c0,0.2-0.3,0.3-0.6,0.3C13.3,83.1,13.2,83,12.7,83 M9.3,84.6
	c0.1,0.1,0.6,0.8-0.3,1.1c0,0-0.1,0.1,0,0.1c0.7,0.3,1-0.2,1-0.2c0.3,0.7-0.2,1.2-0.2,1.2c0.1,0.1,0.4,0.4,0.9,0.5
	c0.2-0.1,0.4-0.3,0.5-0.6c0,0,0.1,0.3,0,0.6c1.3,0.1,1.8-0.9,2.8-0.8c0,0,0,0,0,0c0-0.7-0.4-1.9-1.7-2.1c-1.3-0.2-0.9-0.8-0.9-0.8
	c0.5,0,0.8,0.2,0.8,0.2c0.1-0.2,0-0.3,0-0.3c0.1-0.1,0.1-0.3,0.1-0.3c-0.6,0-0.8-0.1-0.8-0.1c-0.1-0.4,0.2-0.9,1-0.3
	c0.2-0.2,0.2-0.5,0.2-0.5c0.1,0,0.1-0.1,0.1-0.2c0-0.1-0.7-0.5-0.9-0.6c0-0.2-0.3-0.5-1.2-0.4c-0.4,0-0.7-0.1-0.5-0.3c0,0,0,0-0.1,0
	c-0.1,0.1-0.2,0.4,0.1,0.5c0.4,0.2,0.4,0.6,0.4,0.6c0,0.1-0.1,0.1-0.1,0c-0.2-0.7-1.1-0.8-1.6-0.4c0,0.3,0.4,0.6,0.6,0.6
	c0.1,0,0.3-0.1,0.3-0.3c0-0.1,0-0.1,0.1,0c0.1,0.2-0.3,0.7-0.8,0.4c-0.5,0.5-0.3,1.2-0.3,1.4c0.1,0.4-0.1,0.8-0.5,0.6c0,0,0,0,0,0
	C8.6,84.6,8.9,84.9,9.3,84.6 M12.2,82c-0.2,0.3-0.6,0.2-0.7-0.2C12,81.8,12.2,81.8,12.2,82 M27.6,83.1c-0.3,0-0.5-0.1-0.6-0.3
	c0-0.1-0.1-0.1-0.1,0c-0.1,0.4,0.2,0.7,0.5,0.7c0.3,0,0.5-0.2,1-0.3c0.2,0,0.4,0,0.4-0.1c0-0.1-0.3-0.1-0.4-0.1
	C28,83,28,83.1,27.6,83.1 M32.6,84.3C32.6,84.3,32.6,84.3,32.6,84.3c-0.4,0.2-0.6-0.2-0.5-0.7c0.1-0.2,0.3-0.9-0.3-1.4
	c-0.5,0.3-0.9-0.2-0.8-0.4c0-0.1,0.1-0.1,0.1,0c0,0.2,0.2,0.3,0.3,0.3c0.2,0,0.6-0.2,0.6-0.6c-0.5-0.3-1.4-0.2-1.6,0.4
	c0,0.1-0.1,0.1-0.1,0c0-0.1,0-0.4,0.4-0.6c0.3-0.2,0.2-0.4,0.1-0.5c0,0-0.1,0-0.1,0c0.1,0.2-0.2,0.3-0.5,0.3
	c-0.8-0.1-1.1,0.2-1.2,0.4c-0.2,0-0.9,0.4-0.9,0.6c0,0,0,0.2,0.1,0.2c0,0,0,0.3,0.2,0.5c0.9-0.5,1.1,0,1,0.3c0,0-0.2,0.1-0.8,0.1
	c0,0,0,0.2,0.1,0.3c0,0-0.1,0.2,0,0.3c0,0,0.3-0.2,0.8-0.2c0,0,0.3,0.5-0.9,0.8c-1.3,0.2-1.7,1.4-1.7,2.1c0,0,0,0.1,0,0
	c1-0.2,1.5,0.9,2.8,0.8c-0.1-0.3,0-0.6,0-0.6c0.1,0.3,0.4,0.5,0.5,0.6c0.5-0.1,0.8-0.3,0.9-0.5c0,0-0.5-0.4-0.2-1.2
	c0,0,0.3,0.5,1,0.2c0.1,0,0-0.1,0-0.1c-0.9-0.3-0.3-1-0.3-1.1C32.3,84.9,32.6,84.6,32.6,84.3 M29.8,81.8c-0.1,0.4-0.5,0.5-0.7,0.2
	C29,81.8,29.3,81.8,29.8,81.8 M20.4,74.3c0,0.1,0,0.2,0.1,0.3c0.1,0.1,0.1,0.2,0,0.2s-0.1,0-0.2,0c-0.1,0-0.2-0.1-0.3-0.1
	c-0.2,0-0.3,0.1-0.3,0.2c0,0.1,0.1,0.2,0.3,0.2c0.1,0,0.2,0,0.3-0.1c0.1-0.1,0.2-0.1,0.2,0c0,0,0,0.4-0.1,0.7
	c-0.3,0.1-0.5,0.3-0.5,0.5c0,0.4,0.4,0.6,0.6,0.7c0.2-0.1,0.6-0.3,0.6-0.7c0-0.1-0.2-0.4-0.5-0.5c0-0.3-0.1-0.7-0.1-0.7
	c0,0,0.1,0,0.2,0c0.1,0,0.2,0.1,0.3,0.1c0.2,0,0.3-0.1,0.3-0.2c0-0.1-0.1-0.2-0.3-0.2c-0.1,0-0.2,0-0.3,0.1c-0.1,0.1-0.2,0.1-0.2,0
	c0,0,0-0.1,0-0.2c0-0.1,0.1-0.2,0.1-0.3c0-0.2-0.1-0.3-0.2-0.3C20.5,74,20.4,74.1,20.4,74.3 M20.6,77.2c-0.3,0-0.5,0.2-0.5,0.5
	s0.2,0.5,0.5,0.5c0.3,0,0.5-0.2,0.5-0.5S20.9,77.2,20.6,77.2 M20.6,81.6c1.9,0,2.9,0.4,2.9,0.4c0-0.9,0-1.5,0.5-1.4
	c-0.3-0.8,1-1.1,1-2.1c0-0.7-0.5-0.8-0.6-0.8c-0.4,0-0.4,0.3-0.7,0.3c0,0-0.1,0-0.1,0c0,0.1,0.1,0.3,0.3,0.3c0.2,0,0.2-0.2,0.4-0.2
	c0.1,0,0.2,0.1,0.2,0.3c0,0.4-0.3,0.9-0.6,1.3c-0.1-0.1-0.2-0.2-0.3-0.2c-0.2,0-0.4,0.2-0.4,0.5c0,0.1,0,0.2,0.1,0.2
	c-0.1,0.1-0.2,0.1-0.3,0.1c-0.2,0-0.4-0.1-0.4-0.4c0-0.7,1-1.4,1-2.4c0-0.5-0.3-0.9-0.9-0.9c-0.7,0-0.6,0.6-1.1,0.6c0,0,0,0,0,0
	c0,0,0.1,0.4,0.4,0.4c0.3,0,0.4-0.6,0.7-0.6c0.1,0,0.3,0.1,0.3,0.4c0,0.3-0.1,0.8-0.4,1.2c-0.1-0.1-0.2-0.1-0.3-0.1
	c-0.3,0-0.4,0.2-0.4,0.5c0,0.2,0.1,0.4,0.2,0.5c-0.1,0.2-0.3,0.3-0.5,0.3c-0.4,0-0.6-0.2-0.6-0.5c0-0.3,0.5-0.4,0.5-0.8
	c0-0.3-0.2-0.5-0.4-0.5c-0.2,0-0.3,0.1-0.3,0.1c0,0-0.1-0.1-0.3-0.1c-0.2,0-0.4,0.2-0.4,0.5c0,0.4,0.5,0.5,0.5,0.8
	c0,0.3-0.2,0.5-0.6,0.5c-0.2,0-0.4-0.2-0.5-0.3c0.1-0.1,0.2-0.3,0.2-0.5c0-0.3-0.2-0.5-0.4-0.5c-0.1,0-0.2,0.1-0.3,0.1
	c-0.2-0.5-0.4-0.9-0.4-1.2c0-0.4,0.2-0.4,0.3-0.4c0.3,0,0.4,0.6,0.7,0.6c0.3,0,0.4-0.3,0.4-0.4c0,0,0,0,0,0c-0.6,0-0.5-0.6-1.1-0.6
	c-0.6,0-0.9,0.5-0.9,0.9c0,0.9,1,1.6,1,2.4c0,0.3-0.2,0.4-0.4,0.4c-0.1,0-0.2,0-0.3-0.1c0-0.1,0-0.2,0-0.2c0-0.3-0.2-0.5-0.4-0.5
	c-0.1,0-0.2,0.1-0.3,0.2c-0.3-0.4-0.6-0.9-0.6-1.3c0-0.2,0.1-0.3,0.2-0.3c0.2,0,0.2,0.2,0.4,0.2c0.2,0,0.3-0.2,0.3-0.3
	c0,0,0,0-0.1,0c-0.4,0-0.3-0.3-0.7-0.3c-0.1,0-0.6,0.1-0.6,0.8c0,1,1.3,1.3,1,2.1c0.5-0.1,0.5,0.4,0.5,1.4
	C17.7,82,18.7,81.6,20.6,81.6 M17.2,83c-0.5,0.1-0.9,0.2-1,0.3c0-0.2,0.1-0.4,0.3-0.5c0,0,0,0,0-0.1c-0.5-0.3-0.7,0.3-0.7,0.3
	c-0.2,0-0.4,0-0.4,0.3c0,0.6-1.5,1-1.8,1.1c0.6,0.2,0.9,1,0.9,1c0.4-0.4,1-0.8,1.1-0.8c0.1,0,0.2,0.1,0.2,0.2c0,0,0,0,0,0
	c0.2-0.3,0.1-0.4,0.1-0.5c0-0.1,0-0.4,0.3-0.3v4.3l-0.2,0c-0.1,0-0.7-0.5-1.4-1c-0.7-0.5-1.1-0.2-1.9,0.2c-1.1,0.6-2.2,0.1-2.2,0.1
	c-0.9,0.7-1.2,2.6-1.2,2.6c-0.2,0.1-0.5,0.2-0.8,0.2c-0.7,0-0.8-0.4-0.8-0.7c0-1.1,1.4-1.6,1.4-2.7c0-0.3-0.1-1.3-1.4-1.3
	c-0.2,0-1.2,0-1.2,0c-0.5,0-0.6-0.4-0.7-0.5c0-0.1-0.1,0-0.1,0c0,0.1-0.1,0.2-0.1,0.5c0,0.4,0.3,0.7,0.7,0.7c0.2,0,0.4-0.1,0.5-0.1
	c0,0,0.1,0,0,0c-0.2,0.2-0.2,0.7-0.1,0.8c0,0,0,0,0.1,0c0.1-0.5,0.6-0.9,1.1-0.9c0.7,0,0.7,0.6,0.7,0.8c0,0.9-1.5,1.5-1.5,2.7
	c0,1.2,1.3,1.5,2.1,1.3c0,1.2-1.5,1.6-1.5,0.8c0,0,0-0.1-0.1,0c-0.2,0.4-0.1,0.8,0.4,0.9c0,0,0,0,0,0.1c-0.5,0.3-0.2,1.7-0.2,2.1
	c0,0.6-0.5,0.5-0.6,0.5c0,0,0,0,0,0c0.4,0.5,0.9,0,0.9,0c0.4,0.1,0.1,0.4-0.1,0.6c0,0,0,0.1,0,0.1c0.1,0,0.6,0.1,0.7-0.4
	c0.3,0.3,0.6,0.2,0.7,0.2c0.1-0.1,0.7-0.3,0.7,0.4c0,0,0,0,0,0c0.4-0.5,0-0.8-0.3-0.9c0,0,0.4-0.3,0.7,0.1c0,0,0,0,0,0
	c0-0.7-0.5-0.7-0.9-0.4c0-0.1-0.1-0.4,0.4-0.4c0,0,0,0,0,0c-0.4-0.4-0.7,0-0.8,0.1c-0.2,0.2-0.6,0.1-0.7,0.1
	c0.1-2.3,2.2-1.5,2.4-2.6c0-0.1,0,0,0,0c0.1,0.3,0.8,0.3,0.9-0.2c0,0,0-0.1,0,0c-0.6,0.6-1.9-1.2-0.1-2.7c1.5-1.3,2.9-0.6,3.4-0.1
	c0,0.2-0.1,0.2-0.2,0.3c0,0,0,0,0,0c0.1,0.1,0.4,0,0.4-0.1c0.3,0.2,0,0.5-0.1,0.6c0,0,0,0,0,0c0.3,0.1,0.6-0.3,0.6-0.4l0.1,0v1.3
	c0,1.9,2.1,2.1,4.5,3.7c2.4-1.6,4.5-1.8,4.5-3.7v-1.3l0.1,0c0,0.2,0.3,0.5,0.6,0.4c0,0,0,0,0,0c-0.1-0.1-0.4-0.4-0.1-0.6
	c0.1,0.1,0.3,0.2,0.4,0.1c0,0,0,0,0,0c-0.1,0-0.2-0.1-0.2-0.3c0.5-0.4,1.9-1.1,3.4,0.1c1.8,1.5,0.5,3.3-0.1,2.7c0,0,0,0,0,0
	c0.1,0.5,0.8,0.5,0.9,0.2c0,0,0,0,0,0c0.3,1.1,2.3,0.3,2.4,2.6c0,0-0.5,0.1-0.7-0.1c-0.1-0.1-0.4-0.5-0.8-0.1c0,0,0,0,0,0
	c0.5,0,0.4,0.4,0.4,0.4c-0.3-0.3-0.9-0.2-0.9,0.4c0,0.1,0,0,0,0c0.3-0.4,0.6-0.1,0.7-0.1c-0.2,0-0.7,0.4-0.3,0.9c0,0,0,0.1,0,0
	c0.1-0.6,0.6-0.4,0.7-0.4c0.1,0,0.5,0.2,0.7-0.2c0.1,0.5,0.7,0.4,0.7,0.4c0,0,0,0,0-0.1c-0.3-0.2-0.5-0.5-0.1-0.6c0,0,0.5,0.5,0.9,0
	c0,0,0-0.1,0,0c0,0-0.6,0.1-0.6-0.5c0-0.4,0.3-1.8-0.2-2.1c0,0-0.1,0,0-0.1c0.5-0.1,0.6-0.5,0.4-0.9c0-0.1-0.1,0-0.1,0
	c0,0.9-1.5,0.5-1.5-0.8c0.8,0.2,2.1-0.1,2.1-1.3c0-1.2-1.5-1.9-1.5-2.7c0-0.1,0-0.8,0.7-0.8c0.6,0,1,0.4,1.1,0.9c0,0,0,0,0.1,0
	c0.1-0.1,0.1-0.6-0.1-0.8c0,0,0-0.1,0,0c0.1,0,0.3,0.1,0.5,0.1c0.5,0,0.7-0.3,0.7-0.7c0-0.3-0.1-0.4-0.1-0.5c0,0,0-0.1-0.1,0
	c-0.1,0.1-0.2,0.5-0.7,0.5c0,0-1,0-1.2,0c-1.3,0-1.4,1.1-1.4,1.3c0,1.1,1.4,1.6,1.4,2.7c0,0.3-0.1,0.7-0.8,0.7
	c-0.3,0-0.6-0.1-0.8-0.2c0,0-0.3-1.9-1.2-2.6c0,0-1.1,0.5-2.2-0.1c-0.8-0.4-1.2-0.7-1.9-0.2c-0.7,0.5-1.4,1-1.4,1l-0.2,0v-4.3
	c0.3,0,0.4,0.3,0.3,0.3c0,0.1-0.1,0.2,0.1,0.5c0,0,0,0,0,0c0-0.1,0.1-0.2,0.2-0.2c0.1,0,0.6,0.4,1.1,0.8c0,0,0.3-0.8,0.9-1
	c-0.3-0.1-1.8-0.4-1.8-1.1c0-0.2-0.2-0.3-0.4-0.3c0,0-0.2-0.6-0.7-0.3c0,0,0,0.1,0,0.1c0.2,0,0.3,0.3,0.3,0.5
	c-0.4-0.1-2.3-0.6-4.5-0.6c-1.1,0-2,0.1-2.8,0.3v1.5h-0.6V83 M13.2,98.4c-0.2-0.1-0.3-0.2-0.3-0.4v-0.9c-0.3-0.1-1-0.4-2.5-0.4
	c-1.2,0-1.6,0.3-1.6,0.4l-0.3,1.8c0,0,0.5-0.4,2.2-0.3c2.1,0.1,4.3,1.4,4.3,0.1v-0.8C13.4,97.8,13.2,98.3,13.2,98.4 M26.2,97.8v0.8
	c0,1.3,2.2,0.1,4.3-0.1c1.8-0.1,2.2,0.3,2.2,0.3l-0.3-1.8c0-0.1-0.4-0.4-1.6-0.4c-1.5,0-2.2,0.3-2.5,0.4V98c0,0.2-0.1,0.3-0.3,0.4
	C28.1,98.3,27.8,97.8,26.2,97.8 M20.6,97c3.4,0,6.9,0.2,7.3,0.7c0,0,0.1,0,0.1,0l0-1.8c0-0.5-3.6-0.8-7.4-0.8
	c-3.8,0-7.4,0.3-7.4,0.8l0,1.8c0,0,0,0.1,0.1,0C13.8,97.2,17.2,97,20.6,97 M17.6,88.5l-0.3-0.1l0,0l-0.4-0.2c0,0,0.3,0,0.4,0
	c0,0,0,0,0,0c-0.2-0.2-0.3-0.3-0.3-0.3s0.2,0.1,0.4,0.1c0,0,0,0,0,0c-0.1-0.2-0.3-0.4-0.3-0.4s0.3,0.2,0.4,0.3c0,0,0,0,0,0
	c-0.1-0.2-0.2-0.5-0.2-0.5l0.4,0.3c0,0,0,0,0,0c0-0.2-0.1-0.5-0.1-0.5l0.3,0.4c0,0,0,0,0,0c0-0.1,0-0.4,0-0.4s0.1,0.2,0.2,0.4
	c0,0,0,0,0,0c0,0,0.1-0.3,0.1-0.3l0,0.4l-0.1,0l-0.1,0.5c0.5-0.1,1.2-1,1.6-1c0.6,0,0.8,0.7,1.9,0.3c0.3,0.4,0.4,0.8,0.5,1.2
	c0.4,0.4,1,0.3,1-0.2c0-0.6-0.6-0.7-0.6-1.2c0-0.3,0.2-0.6,0.7-0.6c0.3,0,0.6,0.1,0.9,0.1c0.3,0,0.3-0.2,0.3-0.3c0-0.1,0.1,0,0.1,0
	c0,0.1,0,0.1,0,0.3c0,0.4-0.5,0.4-0.6,0.4c0,0,0,0,0,0c0.1,0.1,0.1,0.3,0,0.4c0,0,0,0,0,0c-0.1-0.3-0.4-0.6-0.6-0.6
	c-0.1,0-0.3,0.1-0.3,0.3c0,0.3,0.7,0.6,0.7,1.3c0,0.7-0.7,0.9-1.4,0.7c0,0.7,1,1.1,1.1,0.6c0,0,0,0,0,0c0.2,0.2,0.1,0.4-0.1,0.4
	c0.2,0.1,0.2,0.4,0.3,0.6c0.1,0.3,0.4,0.1,0.4,0.1c0,0,0,0,0,0c-0.1,0.3-0.5,0.2-0.5,0.2c-0.2,0.1,0,0.2,0.2,0.3c0,0,0,0,0,0
	c-0.1,0-0.4,0.1-0.5-0.1C22.9,92,22.7,92,22.7,92c-0.1,0-0.2,0.1-0.2,0.3c0,0,0,0,0,0c-0.3-0.2-0.1-0.4,0-0.5c0,0-0.2-0.1-0.3,0.1
	c0,0,0,0,0,0c-0.1-0.4,0.2-0.5,0.4-0.4c0-0.1-0.1-0.2-0.4-0.2c0,0,0,0,0,0c0-0.1,0.2-0.3,0.4-0.1c0.1,0.1,0.4,0,0.4,0
	c-0.5-0.9-1.3-0.1-1.5-0.9c0,0,0,0,0,0c0,0.2-0.4,0.2-0.5-0.1c0,0,0,0,0,0c0.1,0.1,0.2,0.1,0.3-0.1c0.1-0.2,0.1-0.4,0.1-0.5
	c0-0.5-0.5-1.5-1.4-1.5c-0.5,0-1.1,0.2-1.5,0.5l0.4,0.1c0,0.4-0.4,0.6-0.8,0.5l0.1-0.5c-0.1,0-0.2,0.1-0.3,0.2c0,0,0,0,0,0
	c-0.1-0.3,0.1-0.4,0.2-0.4c0,0,0,0,0,0c-0.2,0-0.3,0.1-0.3,0.2c0,0,0,0,0,0C17.5,88.7,17.5,88.6,17.6,88.5 M18.8,91.6
	c-0.2,0.2-0.3,0-0.5,0c-0.2,0-0.2,0.2-0.2,0.2c0,0,0,0,0,0c-0.2-0.3,0-0.5,0.2-0.5c0,0-0.2-0.2-0.4,0c0,0,0,0,0,0
	c0-0.4,0.3-0.4,0.5-0.2c0-0.1-0.1-0.2-0.2-0.2c0,0,0,0,0,0c0.1-0.1,0.1-0.1,0.2-0.1c0.2,0,0.2,0.3,0.4,0.3c0.2,0,0.5-0.3,0.5-0.3
	c0,0-0.2-0.5-0.2-0.8c0,0,0,0,0,0c-0.1,0.1-0.3,0.1-0.3-0.2c0,0,0,0,0,0c0.1,0.1,0.3,0,0.4-0.1c0.1-0.1,0.6-0.8,1.3-0.8
	c0.1,0,0.3,0.1,0.5,0.2c-0.2,0.3,0,0.5,0.2,0.5c0,0,0,0,0,0c-0.9,0.3-1.3,0.5-1.3,1.2c0,0.4,0.1,0.6,0.4,0.5c0,0,0,0,0,0
	c-0.1,0.1-0.2,0.1-0.3,0.1c-0.2,0-0.2-0.1-0.3-0.1c-0.1,0-0.4,0.2-0.4,0.4c0,0.1,0,0.1,0.2,0.2c0,0,0,0,0,0
	C19.1,91.8,18.8,91.9,18.8,91.6 M21.1,84.4c-0.3,0-0.5,0-0.4,0.1C20.8,84.7,21,84.7,21.1,84.4 M20.1,85.1c0.2,0,0.4,0,0.4,0
	c0,0,0,0.1,0,0.1c-0.4,0.1-0.4,0.2-0.7,0.2c-0.2,0-0.4-0.2-0.3-0.4c0,0,0,0,0,0C19.6,85.1,19.8,85.2,20.1,85.1 M14.8,94.1
	c0.3,0.3,0.5,0,0.9,0c0.2,0,0.4,0.1,0.4,0.4c0,0,0,0,0,0c0.4-0.5-0.1-0.8-0.3-0.9c0.1,0,0.4-0.3,0.7,0.1c0,0,0,0,0,0
	c0-0.7-0.5-0.7-0.9-0.4c-0.1-0.3,0.1-0.4,0.4-0.4c0,0,0,0,0,0c-0.4-0.5-0.8,0.1-0.9,0.2c-0.2,0.2-0.8-0.2-1.1-0.5
	c0,0,0.6-0.6,0.6-1.1c0,0,0-0.1,0-0.1c0,0,0,0,0,0c0.1,0,0.1,0.1,0.2,0.1c0.1,0,0.4,0,0.4-0.5c0,0,0,0,0,0C15.2,91,15.2,91,15.1,91
	c-0.5,0-1.4-1.5-2.5-1.5c-0.3,0-0.8,0.2-1.1,0.5c0.1,0.1,0.2,0.2,0.1,0.4c0,0.2-0.2,0.3-0.3,0.3c0,0,0,0,0,0
	c0.6,0.2,1.6,0.6,1.8,0.8c0.3,0.2,0.2,0.7,0.1,1.3c-0.2,0.6-0.5,0.5-0.6,0.5c0,0,0,0,0,0c0.1,0.2,0.3,0.2,0.5,0.2
	c0.3,0,0.4-0.2,0.6-0.2c0.3,0,0.8,0.4,0.8,0.6c0,0.2-0.1,0.3-0.3,0.4c0,0,0,0,0,0C14.2,94.5,14.7,94.6,14.8,94.1 M27.1,94.5
	C27.2,94.5,27.2,94.5,27.1,94.5c-0.1-0.1-0.3-0.3-0.3-0.4c0-0.3,0.5-0.6,0.8-0.6c0.2,0,0.3,0.2,0.6,0.2c0.2,0,0.3-0.1,0.5-0.2
	c0,0,0,0,0,0c-0.1,0-0.5,0.1-0.6-0.5c-0.2-0.6-0.2-1.1,0.1-1.3c0.2-0.2,1.3-0.6,1.8-0.8c0,0,0,0,0,0c-0.2,0-0.3-0.1-0.3-0.3
	c0-0.1,0-0.3,0.1-0.4c-0.3-0.3-0.8-0.5-1.1-0.5c-1.1,0-2.1,1.5-2.5,1.5c-0.1,0-0.1,0-0.2-0.1c0,0,0,0,0,0c0,0.5,0.2,0.5,0.4,0.5
	c0.1,0,0.2,0,0.2-0.1c0,0,0,0,0,0c0,0,0,0.1,0,0.1c0,0.5,0.6,1.1,0.6,1.1c-0.3,0.3-0.9,0.7-1.1,0.5c-0.1-0.1-0.4-0.7-0.9-0.2
	c0,0,0,0,0,0c0.3,0,0.4,0.2,0.4,0.4c-0.4-0.3-0.9-0.2-0.9,0.4c0,0,0,0,0,0c0.2-0.3,0.6-0.1,0.7-0.1c-0.3,0-0.7,0.3-0.3,0.9
	c0,0,0,0,0,0c0-0.3,0.2-0.4,0.4-0.4c0.4,0,0.6,0.3,0.9,0C26.5,94.6,27,94.5,27.1,94.5 M18.1,85.8c0,0-0.2,0-0.2,0c0,0,0,0,0,0
	c0,0.1,0.1,0.3,0.3,0.3c0.1,0,0.2,0,0.2-0.1c0,0,0.7,0.2,1,0.3c-0.1,0.2-0.2,0.4-0.2,0.6c-0.3-0.2-1.3-0.7-1.3-0.7l-0.3,0.4
	c-0.1,0.1-0.3-0.1-0.3-0.2l0.2-0.3c-0.1-0.1-0.3,0-0.3,0c0,0,0,0,0,0c0-0.1,0.2-0.3,0.5-0.2c0-0.2-0.3-0.1-0.4-0.1c0,0,0,0,0,0
	c0.1-0.1,0.3-0.3,0.6-0.1l0.1-0.2l-0.2-0.2l0.1-0.2l0.2,0.2l1.2-1.7c0,0,0.3-0.1,0.4-0.1c0,0.1,0,0.3,0,0.4l-1.2,1.7l0.3,0.1
	l-0.1,0.2l-0.3-0.1L18.1,85.8z M22.4,85.5c0,0.2,0.1,0.4,0.3,0.3c0,0,0,0,0,0c0,0.2-0.3,0.3-0.5,0.1c-0.1,0.3-0.1,0.5,0.2,0.6
	c0,0,0,0,0,0c-0.2,0.1-0.4,0.1-0.5-0.1c-0.2,0.2-0.2,0.5-0.1,0.6c0,0-0.6,0.4-1.1,0.1c-0.4-0.2-0.7-0.4-1.1-0.4
	c0.1-0.7,0.4-0.8,1-0.9c0.5-0.1,0.5-0.3,0.5-0.5c-0.2,0-0.5,0.1-0.5,0.1c-0.1-0.1,0-0.2,0-0.2c0,0,0-0.2,0-0.2
	c0.3,0,0.4-0.1,0.4-0.1c0.1-0.3-0.3-0.4-0.6-0.2c-0.1-0.1-0.1-0.3-0.1-0.3c0,0-0.1-0.1-0.1-0.1c0-0.1,0.4-0.3,0.5-0.3
	c0-0.1,0.2-0.3,0.6-0.2c0.1-0.1,0-0.5-0.1-0.6c0,0,0-0.1,0,0c0.1,0.1,0.3,0.4,0.4,0.4c0,0,0.5-0.2,0.5-0.2c0,0,0.1,0.5,0.1,0.5
	c0.1,0.1,0.4,0,0.6,0.1c0,0,0,0,0,0.1c-0.1,0-0.5,0.2-0.6,0.3C22.5,84.9,22.4,85.4,22.4,85.5"/>
<path class="st2" d="M51.4,84.6c-0.1,0-0.3,0.1-0.5,0.1c-0.1,0-0.2,0-0.3,0c-0.1,0-0.2-0.1-0.3-0.1c-0.1-0.1-0.2-0.1-0.3-0.2
	c-0.1-0.1-0.2-0.2-0.3-0.4l-1.4-2.2h-0.5V84l0.7,0.2v0.2c-0.2,0.1-0.4,0.1-0.6,0.1c-0.2,0-0.4,0.1-0.7,0.1c-0.2,0-0.4,0-0.5,0
	c-0.2,0-0.3,0-0.5-0.1v-0.2c0.2-0.1,0.4-0.2,0.5-0.3c0.1-0.1,0.2-0.3,0.2-0.6v-5.4l-0.7-0.2v-0.2c0.2,0,0.3-0.1,0.5-0.1
	c0.2,0,0.3,0,0.5-0.1c0.2,0,0.4,0,0.6,0c0.2,0,0.4,0,0.6,0c0.8,0,1.4,0.2,1.8,0.5c0.4,0.3,0.6,0.8,0.6,1.4c0,0.3,0,0.5-0.1,0.7
	c-0.1,0.2-0.2,0.4-0.3,0.6c-0.1,0.2-0.3,0.3-0.5,0.4c-0.2,0.1-0.4,0.2-0.7,0.3l1.5,2.1c0.1,0.2,0.3,0.3,0.5,0.5
	c0.2,0.1,0.4,0.2,0.6,0.3v0.2C51.6,84.5,51.5,84.6,51.4,84.6 M49.3,78.4c-0.3-0.3-0.6-0.4-1.1-0.4c-0.1,0-0.2,0-0.2,0
	c-0.1,0-0.2,0-0.2,0v3.1h0.4c0.2,0,0.4,0,0.6-0.1c0.2-0.1,0.3-0.2,0.5-0.3c0.1-0.1,0.3-0.3,0.3-0.5c0.1-0.2,0.1-0.5,0.1-0.7
	C49.7,79,49.6,78.7,49.3,78.4"/>
<path class="st2" d="M54,84.5c-0.1,0-0.2,0-0.3,0.1c-0.1,0-0.2,0-0.3,0c-0.1,0-0.2,0-0.4,0c-0.1,0-0.3,0-0.4,0c-0.2,0-0.3,0-0.4-0.1
	v-0.2c0.1,0,0.1-0.1,0.2-0.1c0.1,0,0.1-0.1,0.2-0.1c0.1,0,0.1-0.1,0.1-0.2c0-0.1,0-0.1,0-0.2V80L52,79.7v-0.2
	c0.3-0.1,0.5-0.1,0.7-0.2c0.2,0,0.4-0.1,0.6-0.1h0.3l-0.1,0.6V84l0.6,0.2v0.2C54.1,84.5,54,84.5,54,84.5 M53.8,77.9
	c0,0.1-0.1,0.2-0.1,0.2c-0.1,0.1-0.1,0.1-0.2,0.1c-0.1,0-0.2,0.1-0.2,0.1c-0.1,0-0.2,0-0.2,0c-0.1,0-0.1-0.1-0.2-0.1
	c0-0.1-0.1-0.1-0.1-0.2c0-0.1,0-0.2,0-0.3c0-0.1,0-0.2,0-0.2c0-0.1,0.1-0.1,0.1-0.2c0.1-0.1,0.1-0.1,0.2-0.1c0.1,0,0.2-0.1,0.3-0.1
	c0.1,0,0.2,0,0.2,0c0.1,0,0.1,0.1,0.2,0.1c0.1,0,0.1,0.1,0.1,0.2c0,0.1,0,0.2,0,0.2C53.8,77.7,53.8,77.8,53.8,77.9"/>
<path class="st2" d="M56.5,79.9v4.9c0,0.4,0,0.8-0.1,1.1c-0.1,0.3-0.2,0.5-0.3,0.7c-0.1,0.2-0.2,0.3-0.4,0.4
	c-0.2,0.1-0.3,0.1-0.5,0.1c-0.1,0-0.2,0-0.3-0.1c-0.1,0-0.2-0.1-0.3-0.2v-0.2c0.1,0,0.2,0,0.4-0.1c0.1-0.1,0.2-0.2,0.3-0.3
	c0.1-0.1,0.2-0.3,0.2-0.5c0.1-0.2,0.1-0.4,0.1-0.7v-5l-0.7-0.3v-0.2c0.3-0.1,0.5-0.1,0.7-0.2c0.2,0,0.4-0.1,0.6-0.1h0.4L56.5,79.9z
	 M56.6,77.9c0,0.1-0.1,0.2-0.1,0.2c-0.1,0.1-0.1,0.1-0.2,0.1c-0.1,0-0.2,0.1-0.2,0.1c-0.1,0-0.2,0-0.2,0c-0.1,0-0.1-0.1-0.2-0.1
	c-0.1-0.1-0.1-0.1-0.1-0.2c0-0.1,0-0.2,0-0.3c0-0.1,0-0.2,0-0.2c0-0.1,0.1-0.1,0.1-0.2c0.1-0.1,0.1-0.1,0.2-0.1
	c0.1,0,0.2-0.1,0.3-0.1c0.1,0,0.1,0,0.2,0c0.1,0,0.1,0.1,0.2,0.1c0.1,0,0.1,0.1,0.1,0.2c0,0.1,0,0.2,0,0.2
	C56.7,77.7,56.7,77.8,56.6,77.9"/>
<path class="st2" d="M62.2,84.5c-0.1,0-0.3,0.1-0.4,0.1c-0.2,0-0.3,0-0.4-0.1c-0.1-0.1-0.2-0.2-0.3-0.3l-1.8-2.3V84l0.6,0.2v0.2
	c-0.1,0-0.2,0.1-0.3,0.1c-0.1,0-0.2,0-0.3,0.1c-0.1,0-0.2,0-0.3,0c-0.1,0-0.2,0-0.3,0c-0.1,0-0.3,0-0.4,0c-0.2,0-0.3,0-0.4-0.1v-0.2
	c0.1,0,0.2-0.1,0.2-0.1c0.1,0,0.1-0.1,0.2-0.1c0.1,0,0.1-0.1,0.1-0.2c0-0.1,0-0.1,0-0.2v-6.3l-0.7-0.3v-0.2c0.3-0.1,0.5-0.1,0.7-0.2
	c0.2,0,0.4,0,0.6,0h0.4l-0.1,0.6v4.4l0.6-0.5c0.1-0.1,0.3-0.3,0.4-0.4c0.1-0.2,0.3-0.3,0.4-0.5c0.1-0.2,0.2-0.3,0.2-0.5
	c0.1-0.2,0.1-0.3,0.1-0.4c0.1,0,0.2-0.1,0.3-0.1c0.1,0,0.2,0,0.3,0c0.1,0,0.2,0,0.2,0c0.1,0,0.1,0,0.2,0.1c0,0.1,0,0.3-0.1,0.4
	c-0.1,0.2-0.2,0.3-0.3,0.5c-0.1,0.2-0.3,0.3-0.5,0.5c-0.2,0.2-0.4,0.4-0.7,0.5l-0.4,0.3l1.7,2c0.2,0.2,0.3,0.3,0.4,0.4
	c0.1,0.1,0.3,0.1,0.4,0.1v0.2C62.5,84.5,62.3,84.5,62.2,84.5"/>
<path class="st2" d="M66.2,83.7c-0.1,0.2-0.2,0.4-0.4,0.5c-0.2,0.2-0.4,0.3-0.6,0.4c-0.2,0.1-0.5,0.1-0.8,0.1c-0.5,0-0.8-0.1-1-0.2
	c-0.2-0.1-0.3-0.4-0.3-0.7c0-0.1,0-0.2,0-0.2c0-0.1,0-0.1,0.1-0.2c0.2,0.2,0.5,0.4,0.7,0.5c0.3,0.1,0.5,0.2,0.8,0.2
	c0.3,0,0.5-0.1,0.7-0.2c0.2-0.1,0.2-0.3,0.2-0.5c0-0.1,0-0.2,0-0.3c0-0.1-0.1-0.2-0.2-0.2c-0.1-0.1-0.2-0.1-0.3-0.2
	c-0.1-0.1-0.3-0.1-0.4-0.2l-0.5-0.2c-0.3-0.1-0.6-0.3-0.7-0.5c-0.2-0.2-0.3-0.5-0.3-0.8c0-0.2,0-0.4,0.1-0.6
	c0.1-0.2,0.2-0.4,0.4-0.5c0.2-0.1,0.4-0.3,0.6-0.3c0.2-0.1,0.5-0.1,0.8-0.1c0.2,0,0.4,0,0.6,0.1c0.2,0,0.3,0.1,0.4,0.1
	c0.1,0.1,0.2,0.1,0.2,0.2c0,0.1,0.1,0.2,0.1,0.3c0,0.1,0,0.2,0,0.2c0,0.1,0,0.2,0,0.2c-0.2-0.1-0.4-0.2-0.6-0.3
	c-0.2-0.1-0.4-0.1-0.6-0.1c-0.2,0-0.3,0-0.5,0.1c-0.1,0-0.2,0.1-0.3,0.1c-0.1,0.1-0.2,0.1-0.2,0.2c0,0.1-0.1,0.2-0.1,0.3
	c0,0.1,0,0.2,0,0.3c0,0.1,0.1,0.2,0.1,0.2c0.1,0.1,0.2,0.1,0.3,0.2c0.1,0.1,0.3,0.1,0.4,0.2l0.6,0.2c0.2,0.1,0.4,0.2,0.5,0.3
	c0.1,0.1,0.3,0.2,0.3,0.3c0.1,0.1,0.1,0.2,0.2,0.4c0,0.1,0.1,0.3,0.1,0.4C66.4,83.3,66.3,83.5,66.2,83.7"/>
<polygon class="st2" points="74,79.8 72.2,84.6 71.7,84.7 70.5,80.6 70.5,80.6 69.2,84.6 68.7,84.7 67.1,79.9 66.7,79.6 66.7,79.3 
	68.8,79.3 68.8,79.6 68.1,79.8 69.1,83.3 69.1,83.3 70.2,79.8 69.6,79.6 69.6,79.3 71.5,79.3 71.5,79.6 71.1,79.8 72.1,83.3 
	72.1,83.3 73.3,79.9 72.6,79.6 72.6,79.3 74.3,79.3 74.3,79.6 "/>
<path class="st2" d="M78.4,84.4c-0.1,0.1-0.3,0.2-0.4,0.3c-0.1-0.1-0.2-0.1-0.3-0.2c-0.1-0.1-0.2-0.2-0.2-0.3
	c-0.1,0.1-0.2,0.1-0.3,0.2c-0.1,0.1-0.2,0.1-0.4,0.2c-0.1,0.1-0.3,0.1-0.4,0.1c-0.1,0-0.3,0-0.4,0c-0.2,0-0.4,0-0.6-0.1
	c-0.2-0.1-0.3-0.1-0.4-0.3c-0.1-0.1-0.2-0.2-0.3-0.4c-0.1-0.1-0.1-0.3-0.1-0.5c0-0.2,0.1-0.5,0.2-0.7c0.1-0.2,0.3-0.4,0.6-0.6
	c0.2-0.2,0.5-0.3,0.9-0.4c0.3-0.1,0.8-0.1,1.2-0.1v-0.3c0-0.3,0-0.5-0.1-0.7c0-0.2-0.1-0.3-0.2-0.4C77.2,80.1,77.1,80,77,80
	c-0.1,0-0.3-0.1-0.4-0.1c-0.3,0-0.6,0.1-0.9,0.2c-0.3,0.1-0.5,0.3-0.8,0.5c0-0.1,0-0.2,0-0.3c0-0.2,0-0.3,0.1-0.5
	c0.1-0.1,0.2-0.3,0.3-0.3c0.1-0.1,0.3-0.2,0.6-0.2c0.2-0.1,0.5-0.1,0.8-0.1c0.3,0,0.5,0,0.7,0.1c0.2,0.1,0.4,0.2,0.5,0.3
	c0.2,0.1,0.3,0.3,0.3,0.5c0.1,0.2,0.1,0.4,0.1,0.6c0,0.1,0,0.1,0,0.2c0,0.1,0,0.2,0,0.3c0,0.1,0,0.2,0,0.3c0,0.1,0,0.2,0,0.3l0,1.8
	c0,0.1,0.1,0.2,0.2,0.3c0.1,0.1,0.2,0.2,0.3,0.3C78.7,84.2,78.6,84.3,78.4,84.4 M77.5,82.2c-0.3,0-0.6,0-0.8,0.1
	c-0.2,0.1-0.4,0.1-0.6,0.2c-0.2,0.1-0.3,0.2-0.4,0.4c-0.1,0.1-0.1,0.3-0.1,0.4c0,0.2,0.1,0.4,0.2,0.5c0.1,0.1,0.3,0.2,0.6,0.2
	c0.1,0,0.2,0,0.3,0c0.1,0,0.2,0,0.3-0.1c0.1,0,0.2-0.1,0.3-0.1c0.1,0,0.2-0.1,0.2-0.1V82.2z"/>
<path class="st2" d="M81.4,84.6c-0.4,0-0.8-0.1-1-0.4c-0.2-0.2-0.3-0.6-0.3-1.2c0-0.3,0-0.5,0-0.8c0-0.3,0-0.5,0-0.8l0-1.5h-0.6
	v-0.4l1.2-1.2l0.4,0l0,1h1.4l-0.1,0.6H81l0,1.4c0,0.2,0,0.4,0,0.7v0.6c0,0.2,0,0.4,0,0.6c0,0.2,0.1,0.3,0.1,0.4
	c0.1,0.1,0.1,0.2,0.2,0.2c0.1,0,0.2,0.1,0.3,0.1c0.2,0,0.3,0,0.4-0.1c0.1-0.1,0.3-0.1,0.4-0.2l0.1,0C82.5,84.3,82.2,84.6,81.4,84.6"
	/>
<path class="st2" d="M87.3,82H84c0,0.3,0,0.6,0.1,0.8c0.1,0.2,0.2,0.4,0.4,0.6c0.1,0.2,0.3,0.3,0.5,0.4c0.2,0.1,0.4,0.1,0.6,0.1
	c0.1,0,0.3,0,0.4,0c0.1,0,0.3-0.1,0.4-0.1c0.1,0,0.3-0.1,0.4-0.1c0.1-0.1,0.2-0.1,0.3-0.2c0,0,0,0.1,0,0.1c0,0.1,0,0.1,0,0.2
	c0,0.1,0,0.3-0.1,0.4c-0.1,0.1-0.2,0.2-0.4,0.3c-0.2,0.1-0.4,0.2-0.6,0.2c-0.2,0.1-0.5,0.1-0.8,0.1c-0.3,0-0.6-0.1-0.9-0.2
	c-0.3-0.1-0.5-0.3-0.7-0.5c-0.2-0.2-0.4-0.5-0.5-0.8c-0.1-0.3-0.2-0.7-0.2-1c0-0.5,0.1-0.9,0.2-1.3c0.1-0.4,0.3-0.7,0.5-0.9
	c0.2-0.2,0.4-0.4,0.7-0.6c0.3-0.1,0.6-0.2,0.8-0.2c0.3,0,0.6,0,0.8,0.1c0.2,0.1,0.4,0.2,0.6,0.4c0.2,0.2,0.3,0.4,0.4,0.6
	c0.1,0.3,0.1,0.5,0.1,0.9v0.3C87.3,81.7,87.3,81.8,87.3,82 M86.3,80.7c-0.1-0.2-0.1-0.4-0.2-0.5c-0.1-0.1-0.2-0.2-0.3-0.3
	c-0.1-0.1-0.3-0.1-0.4-0.1c-0.2,0-0.3,0-0.4,0.1c-0.2,0.1-0.3,0.2-0.4,0.3c-0.1,0.1-0.2,0.3-0.3,0.5c-0.1,0.2-0.1,0.4-0.1,0.6h2.3
	C86.4,81.1,86.4,80.9,86.3,80.7"/>
<path class="st2" d="M91.4,80c0,0.1-0.1,0.2-0.1,0.3c-0.1-0.1-0.2-0.1-0.3-0.2c-0.1,0-0.2-0.1-0.4-0.1c-0.3,0-0.7,0.2-1,0.4V84
	l0.8,0.2v0.2c-0.1,0-0.2,0.1-0.3,0.1c-0.1,0-0.2,0-0.3,0.1c-0.1,0-0.2,0-0.3,0c-0.1,0-0.3,0-0.4,0c-0.2,0-0.3,0-0.5,0
	c-0.2,0-0.3,0-0.4-0.1v-0.2c0.1,0,0.1-0.1,0.2-0.1c0.1,0,0.1-0.1,0.2-0.1c0.1,0,0.1-0.1,0.1-0.2c0-0.1,0-0.1,0-0.2V80L88,79.7v-0.2
	c0.3-0.1,0.5-0.1,0.7-0.2c0.2,0,0.4,0,0.6,0h0.3v0.8h0l0.3-0.3c0.1-0.2,0.3-0.3,0.5-0.4c0.2-0.1,0.3-0.1,0.5-0.1
	c0.4,0,0.6,0.2,0.6,0.5C91.4,79.8,91.4,79.9,91.4,80"/>
<path class="st2" d="M95.2,83.7c-0.1,0.2-0.2,0.4-0.4,0.5c-0.2,0.2-0.4,0.3-0.6,0.4c-0.2,0.1-0.5,0.1-0.8,0.1c-0.5,0-0.8-0.1-1-0.2
	c-0.2-0.1-0.3-0.4-0.3-0.7c0-0.1,0-0.2,0-0.2c0-0.1,0-0.1,0.1-0.2c0.2,0.2,0.5,0.4,0.7,0.5C93,84,93.2,84,93.5,84
	c0.3,0,0.5-0.1,0.7-0.2c0.2-0.1,0.2-0.3,0.2-0.5c0-0.1,0-0.2,0-0.3c0-0.1-0.1-0.2-0.2-0.2c-0.1-0.1-0.2-0.1-0.3-0.2
	c-0.1-0.1-0.3-0.1-0.4-0.2L93,82.2c-0.3-0.1-0.6-0.3-0.7-0.5c-0.2-0.2-0.3-0.5-0.3-0.8c0-0.2,0-0.4,0.1-0.6c0.1-0.2,0.2-0.4,0.4-0.5
	c0.2-0.1,0.4-0.3,0.6-0.3c0.2-0.1,0.5-0.1,0.8-0.1c0.2,0,0.4,0,0.6,0.1c0.2,0,0.3,0.1,0.4,0.1c0.1,0.1,0.2,0.1,0.2,0.2
	c0,0.1,0.1,0.2,0.1,0.3c0,0.1,0,0.2,0,0.2c0,0.1,0,0.2,0,0.2c-0.2-0.1-0.4-0.2-0.6-0.3c-0.2-0.1-0.4-0.1-0.6-0.1
	c-0.2,0-0.3,0-0.5,0.1c-0.1,0-0.2,0.1-0.3,0.1c-0.1,0.1-0.2,0.1-0.2,0.2c0,0.1-0.1,0.2-0.1,0.3c0,0.1,0,0.2,0,0.3
	c0,0.1,0.1,0.2,0.1,0.2c0.1,0.1,0.2,0.1,0.3,0.2c0.1,0.1,0.3,0.1,0.4,0.2l0.6,0.2c0.2,0.1,0.4,0.2,0.5,0.3c0.1,0.1,0.3,0.2,0.3,0.3
	c0.1,0.1,0.1,0.2,0.2,0.4c0,0.1,0.1,0.3,0.1,0.4C95.3,83.3,95.3,83.5,95.2,83.7"/>
<path class="st2" d="M97.8,84.6c-0.4,0-0.8-0.1-1-0.4c-0.2-0.2-0.3-0.6-0.3-1.2c0-0.3,0-0.5,0-0.8c0-0.3,0-0.5,0-0.8l0-1.5H96v-0.4
	l1.2-1.2l0.4,0l0,1H99l-0.1,0.6h-1.4l0,1.4c0,0.2,0,0.4,0,0.7v0.6c0,0.2,0,0.4,0,0.6c0,0.2,0.1,0.3,0.1,0.4c0.1,0.1,0.1,0.2,0.2,0.2
	c0.1,0,0.2,0.1,0.3,0.1c0.2,0,0.3,0,0.4-0.1c0.1-0.1,0.3-0.1,0.4-0.2l0.1,0C99,84.3,98.6,84.6,97.8,84.6"/>
<path class="st2" d="M103.3,84.4c-0.1,0.1-0.3,0.2-0.4,0.3c-0.1-0.1-0.2-0.1-0.3-0.2c-0.1-0.1-0.2-0.2-0.2-0.3
	c-0.1,0.1-0.2,0.1-0.3,0.2c-0.1,0.1-0.2,0.1-0.4,0.2c-0.1,0.1-0.3,0.1-0.4,0.1c-0.1,0-0.3,0-0.4,0c-0.2,0-0.4,0-0.6-0.1
	c-0.2-0.1-0.3-0.1-0.4-0.3c-0.1-0.1-0.2-0.2-0.3-0.4c-0.1-0.1-0.1-0.3-0.1-0.5c0-0.2,0.1-0.5,0.2-0.7c0.1-0.2,0.3-0.4,0.6-0.6
	c0.2-0.2,0.5-0.3,0.9-0.4c0.3-0.1,0.8-0.1,1.2-0.1v-0.3c0-0.3,0-0.5-0.1-0.7c0-0.2-0.1-0.3-0.2-0.4c-0.1-0.1-0.2-0.2-0.3-0.2
	c-0.1,0-0.3-0.1-0.4-0.1c-0.3,0-0.6,0.1-0.9,0.2c-0.3,0.1-0.5,0.3-0.8,0.5c0-0.1,0-0.2,0-0.3c0-0.2,0-0.3,0.1-0.5
	c0.1-0.1,0.2-0.3,0.3-0.3c0.1-0.1,0.3-0.2,0.6-0.2c0.2-0.1,0.5-0.1,0.8-0.1c0.3,0,0.5,0,0.7,0.1c0.2,0.1,0.4,0.2,0.5,0.3
	c0.2,0.1,0.3,0.3,0.3,0.5c0.1,0.2,0.1,0.4,0.1,0.6c0,0.1,0,0.1,0,0.2c0,0.1,0,0.2,0,0.3c0,0.1,0,0.2,0,0.3c0,0.1,0,0.2,0,0.3l0,1.8
	c0,0.1,0.1,0.2,0.2,0.3c0.1,0.1,0.2,0.2,0.3,0.3C103.5,84.2,103.4,84.3,103.3,84.4 M102.3,82.2c-0.3,0-0.6,0-0.8,0.1
	c-0.2,0.1-0.4,0.1-0.6,0.2c-0.2,0.1-0.3,0.2-0.4,0.4c-0.1,0.1-0.1,0.3-0.1,0.4c0,0.2,0.1,0.4,0.2,0.5c0.1,0.1,0.3,0.2,0.6,0.2
	c0.1,0,0.2,0,0.3,0c0.1,0,0.2,0,0.3-0.1c0.1,0,0.2-0.1,0.3-0.1c0.1,0,0.2-0.1,0.2-0.1V82.2z"/>
<path class="st2" d="M108.1,84.4c-0.1,0.1-0.3,0.2-0.4,0.3c-0.1-0.1-0.2-0.1-0.3-0.2c-0.1-0.1-0.2-0.2-0.2-0.3
	c-0.1,0.1-0.2,0.1-0.3,0.2c-0.1,0.1-0.2,0.1-0.4,0.2c-0.1,0.1-0.3,0.1-0.4,0.1c-0.1,0-0.3,0-0.4,0c-0.2,0-0.4,0-0.6-0.1
	c-0.2-0.1-0.3-0.1-0.4-0.3c-0.1-0.1-0.2-0.2-0.3-0.4c-0.1-0.1-0.1-0.3-0.1-0.5c0-0.2,0.1-0.5,0.2-0.7c0.1-0.2,0.3-0.4,0.6-0.6
	c0.2-0.2,0.5-0.3,0.9-0.4c0.3-0.1,0.8-0.1,1.2-0.1v-0.3c0-0.3,0-0.5-0.1-0.7c0-0.2-0.1-0.3-0.2-0.4c-0.1-0.1-0.2-0.2-0.3-0.2
	c-0.1,0-0.3-0.1-0.4-0.1c-0.3,0-0.6,0.1-0.9,0.2c-0.3,0.1-0.5,0.3-0.8,0.5c0-0.1,0-0.2,0-0.3c0-0.2,0-0.3,0.1-0.5
	c0.1-0.1,0.2-0.3,0.3-0.3c0.1-0.1,0.3-0.2,0.6-0.2c0.2-0.1,0.5-0.1,0.8-0.1c0.3,0,0.5,0,0.7,0.1c0.2,0.1,0.4,0.2,0.5,0.3
	c0.2,0.1,0.3,0.3,0.3,0.5c0.1,0.2,0.1,0.4,0.1,0.6c0,0.1,0,0.1,0,0.2c0,0.1,0,0.2,0,0.3c0,0.1,0,0.2,0,0.3c0,0.1,0,0.2,0,0.3l0,1.8
	c0,0.1,0.1,0.2,0.2,0.3c0.1,0.1,0.2,0.2,0.3,0.3C108.4,84.2,108.3,84.3,108.1,84.4 M107.2,82.2c-0.3,0-0.6,0-0.8,0.1
	c-0.2,0.1-0.4,0.1-0.6,0.2c-0.2,0.1-0.3,0.2-0.4,0.4c-0.1,0.1-0.1,0.3-0.1,0.4c0,0.2,0.1,0.4,0.2,0.5c0.1,0.1,0.4,0.2,0.6,0.2
	c0.1,0,0.2,0,0.3,0c0.1,0,0.2,0,0.3-0.1c0.1,0,0.2-0.1,0.3-0.1c0.1,0,0.2-0.1,0.2-0.1V82.2z"/>
<path class="st2" d="M111.1,84.6c-0.4,0-0.8-0.1-1-0.4c-0.2-0.2-0.3-0.6-0.3-1.2c0-0.3,0-0.5,0-0.8c0-0.3,0-0.5,0-0.8l0-1.5h-0.6
	v-0.4l1.2-1.2l0.4,0l0,1h1.4l-0.1,0.6h-1.4l0,1.4c0,0.2,0,0.4,0,0.7v0.6c0,0.2,0,0.4,0,0.6c0,0.2,0.1,0.3,0.1,0.4
	c0.1,0.1,0.1,0.2,0.2,0.2c0.1,0,0.2,0.1,0.3,0.1c0.2,0,0.3,0,0.4-0.1c0.1-0.1,0.3-0.1,0.4-0.2l0.1,0
	C112.3,84.3,111.9,84.6,111.1,84.6"/>
<path class="st2" d="M47.1,96.9c-0.1,0-0.3,0-0.5,0c-0.1,0-0.3,0-0.4,0c-0.1,0-0.3,0-0.4-0.1v-0.2c0.1,0,0.2-0.1,0.2-0.2
	c0.1-0.1,0.1-0.2,0.1-0.3l1.4-5.8L47,90.3V90c0.1,0,0.2,0,0.3-0.1c0.1,0,0.2,0,0.3,0c0.1,0,0.2,0,0.3,0c0.1,0,0.2,0,0.3,0h0.4l1,5.2
	h0l1.8-5.2h0.3h0.2c0.1,0,0.2,0,0.3,0c0.1,0,0.2,0,0.3,0c0.1,0,0.2,0,0.3,0v0.3l-0.5,0.1l0.3,6.1l0.6,0.2v0.2
	c-0.2,0.1-0.3,0.1-0.4,0.1c-0.1,0-0.3,0-0.4,0c-0.2,0-0.4,0-0.6,0c-0.1,0-0.3,0-0.4-0.1v-0.2c0.1,0,0.2-0.1,0.2-0.2
	c0.1-0.1,0.1-0.2,0.1-0.4l-0.1-4.8h0l-2,5.7L49,97L48,91.2h0l-1,5.1l0.6,0.2v0.2C47.4,96.8,47.2,96.9,47.1,96.9"/>
<path class="st2" d="M53.8,96.8c-0.1-0.1-0.1-0.2-0.1-0.4c0-0.1,0-0.2,0-0.3c0-0.1,0-0.2,0-0.4c0-0.1,0-0.3,0.1-0.4
	c0-0.1,0-0.3,0-0.4l0.3-2.2l0.1-0.6l-0.7-0.2v-0.2c0.2-0.1,0.3-0.1,0.5-0.1c0.2,0,0.4,0,0.6,0c0.1,0,0.2,0,0.3,0
	c0.1,0,0.2,0,0.2,0.1l-0.5,3.2c0,0.1,0,0.2,0,0.3c0,0.1,0,0.2,0,0.3c0,0.1,0,0.2,0,0.3V96c0,0.2,0,0.3,0.1,0.4
	c0.1,0.1,0.2,0.2,0.3,0.2v0.2c-0.1,0.1-0.2,0.1-0.4,0.1c-0.1,0-0.3,0-0.4,0C54.1,97,53.9,96.9,53.8,96.8 M55.4,90.1
	c0,0.1-0.1,0.2-0.1,0.2c-0.1,0.1-0.1,0.1-0.2,0.1c-0.1,0-0.2,0.1-0.2,0.1c-0.2,0-0.3,0-0.4-0.1c-0.1-0.1-0.1-0.2-0.1-0.4
	c0-0.1,0-0.2,0-0.3c0-0.1,0.1-0.2,0.1-0.2c0.1-0.1,0.1-0.1,0.2-0.2c0.1,0,0.2-0.1,0.2-0.1c0.1,0,0.3,0.1,0.4,0.2
	c0.1,0.1,0.1,0.2,0.1,0.4C55.5,89.9,55.5,90,55.4,90.1"/>
<path class="st2" d="M60,92.8c0,0.1,0,0.2,0,0.4c0,0.1,0,0.2-0.1,0.4c0,0.1,0,0.2-0.1,0.4l-0.2,1.2c0,0.1,0,0.1,0,0.2
	c0,0.1,0,0.2,0,0.2c0,0.1,0,0.2,0,0.2c0,0.1,0,0.2,0,0.2c0,0.2,0,0.3,0.1,0.4c0.1,0.1,0.2,0.1,0.4,0.2v0.2c-0.1,0.1-0.3,0.1-0.4,0.2
	c-0.1,0-0.3,0.1-0.5,0.1s-0.3,0-0.4-0.1c-0.1-0.1-0.1-0.2-0.1-0.4c0-0.1,0-0.2,0-0.3c0-0.1,0-0.2,0-0.3c0-0.1,0-0.2,0-0.3
	c0-0.1,0-0.2,0-0.3L59,94c0-0.1,0-0.2,0-0.3c0-0.1,0-0.2,0-0.3c0-0.1,0-0.2,0-0.3c0-0.1,0-0.2,0-0.3c0-0.1,0-0.2,0-0.3
	c0-0.1-0.1-0.2-0.1-0.2c0,0-0.1-0.1-0.2-0.1c-0.1,0-0.1,0-0.2,0c-0.2,0-0.3,0.1-0.5,0.2c-0.2,0.1-0.3,0.3-0.5,0.6
	c-0.2,0.2-0.3,0.5-0.4,0.9c-0.1,0.3-0.2,0.7-0.2,1.1l-0.1,1.8h-0.9l0.5-4.7L56,91.9v-0.2c0.2-0.1,0.3-0.1,0.5-0.1c0.2,0,0.4,0,0.6,0
	c0.1,0,0.1,0,0.2,0c0.1,0,0.2,0,0.2,0.1l-0.3,1.7h0c0.1-0.3,0.3-0.5,0.4-0.7c0.2-0.2,0.3-0.4,0.5-0.6c0.2-0.2,0.3-0.3,0.5-0.4
	c0.2-0.1,0.4-0.1,0.5-0.1c0.1,0,0.2,0,0.3,0.1c0.1,0,0.2,0.1,0.3,0.2c0.1,0.1,0.1,0.2,0.2,0.3c0,0.1,0.1,0.3,0.1,0.4
	C60,92.6,60,92.7,60,92.8"/>
<path class="st2" d="M61.3,96.8c-0.1-0.1-0.1-0.2-0.1-0.4c0-0.1,0-0.2,0-0.3c0-0.1,0-0.2,0-0.4c0-0.1,0-0.3,0.1-0.4
	c0-0.1,0-0.3,0-0.4l0.3-2.2l0.1-0.6L61,91.9v-0.2c0.2-0.1,0.3-0.1,0.5-0.1c0.2,0,0.4,0,0.6,0c0.1,0,0.2,0,0.3,0c0.1,0,0.2,0,0.2,0.1
	l-0.5,3.2c0,0.1,0,0.2,0,0.3c0,0.1,0,0.2,0,0.3c0,0.1,0,0.2,0,0.3V96c0,0.2,0,0.3,0.1,0.4c0.1,0.1,0.2,0.2,0.3,0.2v0.2
	c-0.1,0.1-0.2,0.1-0.4,0.1c-0.1,0-0.3,0-0.4,0C61.5,97,61.3,96.9,61.3,96.8 M62.9,90.1c0,0.1-0.1,0.2-0.1,0.2
	c-0.1,0.1-0.1,0.1-0.2,0.1c-0.1,0-0.2,0.1-0.2,0.1c-0.2,0-0.3,0-0.4-0.1c-0.1-0.1-0.1-0.2-0.1-0.4c0-0.1,0-0.2,0-0.3
	c0-0.1,0.1-0.2,0.1-0.2c0.1-0.1,0.1-0.1,0.2-0.2c0.1,0,0.2-0.1,0.2-0.1c0.1,0,0.3,0.1,0.4,0.2c0.1,0.1,0.1,0.2,0.1,0.4
	C62.9,89.9,62.9,90,62.9,90.1"/>
<path class="st2" d="M66.3,92.4c0,0.1-0.1,0.2-0.1,0.3c-0.2-0.2-0.3-0.3-0.6-0.4c-0.2-0.1-0.4-0.1-0.6-0.1c-0.3,0-0.4,0.1-0.6,0.2
	c-0.1,0.1-0.2,0.3-0.2,0.4c0,0.1,0,0.2,0,0.2c0,0.1,0.1,0.1,0.1,0.2c0.1,0.1,0.1,0.2,0.2,0.3c0.1,0.1,0.2,0.2,0.3,0.3l0.4,0.4
	c0.1,0.1,0.2,0.2,0.3,0.3c0.1,0.1,0.2,0.2,0.2,0.3C66,94.8,66,94.9,66,95c0,0.1,0,0.2,0,0.3c0,0.2,0,0.4-0.2,0.6
	c-0.1,0.2-0.2,0.4-0.4,0.5c-0.2,0.1-0.4,0.3-0.6,0.3C64.6,97,64.3,97,64,97c-0.3,0-0.6-0.1-0.8-0.2c-0.2-0.1-0.2-0.3-0.2-0.5
	c0-0.1,0-0.2,0.1-0.3c0-0.1,0.1-0.1,0.1-0.2c0.2,0.2,0.3,0.3,0.5,0.3c0.2,0.1,0.4,0.1,0.6,0.1c0.1,0,0.3,0,0.4-0.1
	c0.1,0,0.2-0.1,0.3-0.2c0.1-0.1,0.2-0.1,0.2-0.2c0-0.1,0.1-0.2,0.1-0.3c0-0.1,0-0.2,0-0.3c0-0.1-0.1-0.2-0.1-0.2
	C65,95,64.9,95,64.9,94.9c-0.1-0.1-0.2-0.2-0.3-0.3l-0.4-0.3c-0.1-0.1-0.2-0.2-0.3-0.3c-0.1-0.1-0.2-0.2-0.2-0.3
	c-0.1-0.1-0.1-0.2-0.1-0.3c0-0.1,0-0.2,0-0.3c0-0.2,0-0.4,0.1-0.5c0.1-0.2,0.2-0.3,0.3-0.5c0.2-0.1,0.3-0.2,0.5-0.3
	c0.2-0.1,0.4-0.1,0.7-0.1c0.4,0,0.7,0.1,0.9,0.2c0.2,0.1,0.3,0.3,0.3,0.4C66.4,92.2,66.4,92.3,66.3,92.4"/>
<path class="st2" d="M69.4,92.1c-0.1,0.1-0.4,0.2-0.7,0.2h-0.3l-0.2,1.1c0,0.1,0,0.3-0.1,0.4c0,0.2,0,0.3-0.1,0.5
	c0,0.2,0,0.3-0.1,0.5c0,0.2,0,0.3,0,0.4c0,0.2,0,0.3,0.1,0.5c0,0.1,0.1,0.2,0.2,0.3c0.1,0.1,0.2,0.2,0.3,0.2c0.1,0,0.2,0.1,0.3,0.1
	c0.1,0,0.2,0,0.2,0c0.1,0,0.1,0,0.2-0.1v0.2c0,0.1-0.1,0.1-0.1,0.2c-0.1,0.1-0.1,0.1-0.2,0.2c-0.1,0.1-0.2,0.1-0.3,0.1
	c-0.1,0-0.2,0-0.4,0c-0.4,0-0.6-0.1-0.8-0.3c-0.2-0.2-0.3-0.6-0.3-1c0-0.2,0-0.4,0-0.6c0-0.2,0-0.4,0.1-0.7c0-0.2,0.1-0.5,0.1-0.7
	c0-0.2,0.1-0.5,0.1-0.7l0.1-0.7c-0.1,0-0.2,0-0.3,0c-0.1,0-0.2,0-0.3,0v-0.1c0.2-0.3,0.4-0.5,0.7-0.7c0.3-0.2,0.5-0.4,0.8-0.6h0.2
	l-0.2,0.9h0.3c0.2,0,0.3,0,0.4,0c0.1,0,0.3,0,0.4-0.1C69.6,91.8,69.5,92,69.4,92.1"/>
<path class="st2" d="M72.9,95.9c0,0,0,0.1,0,0.2c0,0.1,0,0.3-0.1,0.4c-0.1,0.1-0.2,0.2-0.3,0.3c-0.1,0.1-0.3,0.2-0.5,0.2
	C71.7,97,71.5,97,71.3,97c-0.2,0-0.4,0-0.6-0.1c-0.2-0.1-0.3-0.2-0.5-0.3c-0.1-0.2-0.2-0.4-0.3-0.6c-0.1-0.2-0.1-0.5-0.1-0.8
	c0-0.6,0.1-1.1,0.2-1.6c0.1-0.5,0.3-0.8,0.5-1.1c0.2-0.3,0.5-0.5,0.7-0.7c0.3-0.1,0.5-0.2,0.8-0.2c0.4,0,0.7,0.1,0.9,0.3
	c0.2,0.2,0.3,0.5,0.3,0.8c0,0.3-0.1,0.6-0.2,0.9c-0.2,0.3-0.3,0.5-0.6,0.7c-0.3,0.2-0.5,0.3-0.8,0.4c-0.3,0.1-0.6,0.1-1,0.1
	c0,0.3,0,0.6,0.1,0.8c0,0.2,0.1,0.4,0.2,0.5c0.1,0.1,0.2,0.2,0.3,0.3c0.1,0,0.3,0.1,0.4,0.1c0.1,0,0.2,0,0.3,0
	c0.1,0,0.2-0.1,0.3-0.1c0.1-0.1,0.2-0.1,0.3-0.2C72.6,95.9,72.7,95.9,72.9,95.9C72.8,95.8,72.8,95.8,72.9,95.9 M72.2,92.3
	c-0.1-0.1-0.2-0.2-0.4-0.2c-0.1,0-0.3,0-0.4,0.2c-0.1,0.1-0.3,0.2-0.4,0.4c-0.1,0.2-0.2,0.4-0.3,0.7c-0.1,0.3-0.1,0.5-0.1,0.9
	c0.2,0,0.5,0,0.7-0.1c0.2-0.1,0.4-0.2,0.5-0.3c0.2-0.1,0.3-0.3,0.3-0.4c0.1-0.2,0.1-0.4,0.1-0.6C72.3,92.6,72.3,92.4,72.2,92.3"/>
<path class="st2" d="M73.7,91.7c0.2-0.1,0.3-0.1,0.5-0.1c0.2,0,0.4,0,0.5,0c0.1,0,0.2,0,0.2,0c0.1,0,0.2,0,0.2,0.1l-0.3,1.6h0l0.6-1
	c0.1-0.2,0.3-0.4,0.4-0.5c0.2-0.1,0.3-0.2,0.5-0.2c0.1,0,0.2,0,0.3,0.1c0.1,0.1,0.1,0.2,0.1,0.3c0,0.1,0,0.2,0,0.3
	c0,0.1,0,0.2-0.1,0.3c-0.1,0-0.1,0-0.2,0c-0.1,0-0.1,0-0.2,0c-0.2,0-0.3,0.1-0.5,0.2c-0.2,0.1-0.3,0.3-0.4,0.5
	c-0.1,0.2-0.3,0.5-0.3,0.9c-0.1,0.4-0.1,0.8-0.2,1.3l-0.1,1.6h-0.9l0.5-4.7l-0.7-0.2V91.7z"/>
<path class="st2" d="M77.2,96.8c-0.1-0.1-0.1-0.2-0.1-0.4c0-0.1,0-0.2,0-0.3c0-0.1,0-0.2,0-0.4c0-0.1,0-0.3,0.1-0.4
	c0-0.1,0-0.3,0-0.4l0.3-2.2l0.1-0.6L77,91.9v-0.2c0.2-0.1,0.3-0.1,0.5-0.1c0.2,0,0.4,0,0.6,0c0.1,0,0.2,0,0.3,0c0.1,0,0.2,0,0.2,0.1
	l-0.5,3.2c0,0.1,0,0.2,0,0.3c0,0.1,0,0.2,0,0.3c0,0.1,0,0.2,0,0.3V96c0,0.2,0,0.3,0.1,0.4c0.1,0.1,0.2,0.2,0.3,0.2v0.2
	c-0.1,0.1-0.2,0.1-0.4,0.1c-0.1,0-0.3,0-0.4,0C77.4,97,77.3,96.9,77.2,96.8 M78.8,90.1c0,0.1-0.1,0.2-0.1,0.2
	c-0.1,0.1-0.1,0.1-0.2,0.1c-0.1,0-0.2,0.1-0.2,0.1c-0.2,0-0.3,0-0.4-0.1c-0.1-0.1-0.1-0.2-0.1-0.4c0-0.1,0-0.2,0-0.3
	c0-0.1,0.1-0.2,0.1-0.2c0.1-0.1,0.1-0.1,0.2-0.2c0.1,0,0.2-0.1,0.2-0.1c0.1,0,0.3,0.1,0.4,0.2c0.1,0.1,0.1,0.2,0.1,0.4
	C78.9,89.9,78.8,90,78.8,90.1"/>
<path class="st2" d="M82.4,95.9c0,0,0,0.1,0,0.2c0,0.1,0,0.3-0.1,0.4c-0.1,0.1-0.2,0.2-0.3,0.3c-0.1,0.1-0.3,0.2-0.5,0.2
	C81.3,97,81.1,97,80.9,97c-0.2,0-0.4,0-0.6-0.1c-0.2-0.1-0.4-0.2-0.5-0.3c-0.1-0.2-0.2-0.4-0.3-0.6c-0.1-0.2-0.1-0.5-0.1-0.8
	c0-0.6,0.1-1.1,0.2-1.6c0.1-0.5,0.3-0.8,0.5-1.1c0.2-0.3,0.5-0.5,0.7-0.7c0.3-0.1,0.5-0.2,0.8-0.2c0.4,0,0.7,0.1,0.9,0.3
	c0.2,0.2,0.3,0.5,0.3,0.8c0,0.3-0.1,0.6-0.2,0.9c-0.2,0.3-0.4,0.5-0.6,0.7c-0.3,0.2-0.5,0.3-0.8,0.4c-0.3,0.1-0.6,0.1-1,0.1
	c0,0.3,0,0.6,0.1,0.8c0,0.2,0.1,0.4,0.2,0.5c0.1,0.1,0.2,0.2,0.3,0.3c0.1,0,0.3,0.1,0.4,0.1c0.1,0,0.2,0,0.3,0
	c0.1,0,0.2-0.1,0.3-0.1c0.1-0.1,0.2-0.1,0.3-0.2C82.2,95.9,82.3,95.9,82.4,95.9C82.4,95.8,82.4,95.8,82.4,95.9 M81.8,92.3
	c-0.1-0.1-0.2-0.2-0.4-0.2c-0.1,0-0.3,0-0.4,0.2c-0.1,0.1-0.3,0.2-0.4,0.4c-0.1,0.2-0.2,0.4-0.3,0.7c-0.1,0.3-0.1,0.5-0.1,0.9
	c0.2,0,0.5,0,0.7-0.1c0.2-0.1,0.4-0.2,0.5-0.3c0.2-0.1,0.3-0.3,0.3-0.4c0.1-0.2,0.1-0.4,0.1-0.6C81.9,92.6,81.9,92.4,81.8,92.3"/>
<path class="st2" d="M86.4,96.1c0.2-0.2,0.4-0.5,0.5-0.8c0.2-0.3,0.3-0.6,0.4-0.9c0.1-0.3,0.2-0.6,0.3-1c0.1-0.3,0.1-0.6,0.1-0.9
	c0-0.2,0-0.3-0.1-0.4c-0.1-0.1-0.2-0.2-0.3-0.2v-0.2c0.1-0.1,0.2-0.1,0.3-0.1c0.1,0,0.2,0,0.4,0c0.2,0,0.3,0.1,0.4,0.2
	c0.1,0.1,0.2,0.3,0.2,0.5c0,0.2,0,0.4-0.1,0.6c-0.1,0.3-0.1,0.5-0.2,0.8c-0.1,0.3-0.2,0.5-0.4,0.8c-0.1,0.3-0.3,0.6-0.4,0.8
	c-0.2,0.3-0.3,0.5-0.5,0.8c-0.2,0.2-0.3,0.4-0.5,0.6c-0.1,0.1-0.2,0.2-0.3,0.2C86.1,96.9,86,97,85.9,97h-0.2l-0.4-4.9l-0.5-0.2v-0.2
	c0.2-0.1,0.3-0.1,0.5-0.1c0.1,0,0.3,0,0.4,0c0.2,0,0.3,0,0.4,0.1L86.4,96.1L86.4,96.1z"/>
<path class="st2" d="M92.5,94.1c0,0.2-0.1,0.4-0.1,0.6c0,0.2,0,0.4-0.1,0.6c0,0.2,0,0.3,0,0.4c0,0.2,0,0.3,0,0.4
	c0,0.1,0.1,0.2,0.1,0.3c0,0.1,0.1,0.1,0.2,0.1c0.1,0,0.2,0.1,0.3,0.1v0.2c-0.1,0.1-0.3,0.1-0.5,0.1c-0.2,0-0.3,0-0.5,0
	c-0.1,0-0.2,0-0.2,0c-0.1,0-0.2,0-0.2-0.1l0.3-1.6h0c-0.1,0.3-0.2,0.5-0.4,0.7c-0.1,0.2-0.3,0.4-0.4,0.6c-0.1,0.2-0.3,0.3-0.4,0.4
	C90.3,97,90.1,97,90,97c-0.1,0-0.3,0-0.4-0.1c-0.1-0.1-0.2-0.2-0.3-0.4c-0.1-0.2-0.2-0.4-0.2-0.6C89,95.7,89,95.4,89,95.1
	c0-0.6,0.1-1.1,0.2-1.5c0.2-0.4,0.3-0.8,0.6-1.1c0.3-0.3,0.5-0.5,0.9-0.7c0.3-0.2,0.7-0.2,1.1-0.2c0.1,0,0.2,0,0.3,0
	c0.1,0,0.2,0,0.3,0c0.1,0,0.2,0,0.3,0.1c0.1,0,0.2,0,0.3,0.1l-0.4,1.9C92.6,93.8,92.6,93.9,92.5,94.1 M91.8,92.2c-0.1,0-0.2,0-0.3,0
	c-0.2,0-0.4,0.1-0.6,0.2c-0.2,0.1-0.4,0.3-0.5,0.5c-0.1,0.2-0.3,0.5-0.4,0.9c-0.1,0.3-0.1,0.8-0.1,1.2c0,0.2,0,0.4,0.1,0.6
	c0,0.2,0.1,0.3,0.1,0.4c0.1,0.1,0.1,0.2,0.2,0.2c0.1,0.1,0.1,0.1,0.2,0.1c0.1,0,0.2,0,0.4-0.1c0.1-0.1,0.3-0.2,0.4-0.4
	c0.1-0.2,0.2-0.4,0.3-0.7c0.1-0.3,0.2-0.6,0.3-1l0.3-1.8C92,92.2,91.9,92.2,91.8,92.2"/>
<path class="st2" d="M97.7,92.8c0,0.1,0,0.2,0,0.4c0,0.1,0,0.2-0.1,0.4c0,0.1,0,0.2-0.1,0.4l-0.2,1.2c0,0.1,0,0.1,0,0.2
	c0,0.1,0,0.2,0,0.2c0,0.1,0,0.2,0,0.2c0,0.1,0,0.2,0,0.2c0,0.2,0,0.3,0.1,0.4c0.1,0.1,0.2,0.1,0.4,0.2v0.2c-0.1,0.1-0.3,0.1-0.4,0.2
	c-0.1,0-0.3,0.1-0.5,0.1s-0.3,0-0.4-0.1c-0.1-0.1-0.1-0.2-0.1-0.4c0-0.1,0-0.2,0-0.3c0-0.1,0-0.2,0-0.3c0-0.1,0-0.2,0-0.3
	c0-0.1,0-0.2,0-0.3l0.2-1.3c0-0.1,0-0.2,0-0.3c0-0.1,0-0.2,0-0.3c0-0.1,0-0.2,0-0.3c0-0.1,0-0.2,0-0.3c0-0.1,0-0.2,0-0.3
	c0-0.1-0.1-0.2-0.1-0.2c0,0-0.1-0.1-0.2-0.1c-0.1,0-0.1,0-0.2,0c-0.2,0-0.3,0.1-0.5,0.2c-0.2,0.1-0.3,0.3-0.5,0.6
	c-0.2,0.2-0.3,0.5-0.4,0.9c-0.1,0.3-0.2,0.7-0.2,1.1l-0.1,1.8h-0.9l0.5-4.7l-0.7-0.2v-0.2c0.2-0.1,0.3-0.1,0.5-0.1
	c0.2,0,0.4,0,0.6,0c0.1,0,0.1,0,0.2,0c0.1,0,0.2,0,0.2,0.1l-0.3,1.7h0c0.1-0.3,0.3-0.5,0.4-0.7c0.2-0.2,0.3-0.4,0.5-0.6
	c0.2-0.2,0.3-0.3,0.5-0.4c0.2-0.1,0.4-0.1,0.5-0.1c0.1,0,0.2,0,0.3,0.1c0.1,0,0.2,0.1,0.3,0.2c0.1,0.1,0.1,0.2,0.2,0.3
	c0,0.1,0.1,0.3,0.1,0.4C97.7,92.6,97.7,92.7,97.7,92.8"/>
<path class="st2" d="M102.1,96.6v0.2c-0.2,0.1-0.3,0.1-0.5,0.1c-0.2,0-0.3,0-0.5,0c-0.2,0-0.3,0-0.5,0c-0.2,0-0.3,0-0.4-0.1v-0.2
	c0.1,0,0.2-0.1,0.3-0.2c0.1-0.1,0.1-0.2,0.1-0.3l0.7-5.8l-0.6-0.2V90c0.2-0.1,0.3-0.1,0.5-0.1c0.2,0,0.3,0,0.5,0c0.2,0,0.3,0,0.5,0
	c0.1,0,0.3,0.1,0.4,0.1v0.2c-0.1,0-0.2,0.1-0.3,0.2c-0.1,0.1-0.1,0.2-0.1,0.3l-0.7,5.8L102.1,96.6z"/>
<path class="st2" d="M107.1,92.8c0,0.1,0,0.2,0,0.4c0,0.1,0,0.2-0.1,0.4c0,0.1,0,0.2-0.1,0.4l-0.2,1.2c0,0.1,0,0.1,0,0.2
	c0,0.1,0,0.2,0,0.2c0,0.1,0,0.2,0,0.2c0,0.1,0,0.2,0,0.2c0,0.2,0,0.3,0.1,0.4c0.1,0.1,0.2,0.1,0.4,0.2v0.2c-0.1,0.1-0.3,0.1-0.4,0.2
	c-0.1,0-0.3,0.1-0.5,0.1c-0.2,0-0.3,0-0.4-0.1c-0.1-0.1-0.1-0.2-0.1-0.4c0-0.1,0-0.2,0-0.3c0-0.1,0-0.2,0-0.3c0-0.1,0-0.2,0-0.3
	c0-0.1,0-0.2,0-0.3l0.2-1.3c0-0.1,0-0.2,0-0.3c0-0.1,0-0.2,0-0.3c0-0.1,0-0.2,0-0.3c0-0.1,0-0.2,0-0.3c0-0.1,0-0.2,0-0.3
	c0-0.1-0.1-0.2-0.1-0.2c0,0-0.1-0.1-0.2-0.1c-0.1,0-0.1,0-0.2,0c-0.2,0-0.3,0.1-0.5,0.2c-0.2,0.1-0.3,0.3-0.5,0.6
	c-0.2,0.2-0.3,0.5-0.4,0.9c-0.1,0.3-0.2,0.7-0.2,1.1l-0.1,1.8h-0.9l0.5-4.7l-0.7-0.2v-0.2c0.2-0.1,0.3-0.1,0.5-0.1
	c0.2,0,0.4,0,0.6,0c0.1,0,0.1,0,0.2,0c0.1,0,0.2,0,0.2,0.1l-0.3,1.7h0c0.1-0.3,0.3-0.5,0.4-0.7c0.2-0.2,0.3-0.4,0.5-0.6
	c0.2-0.2,0.3-0.3,0.5-0.4c0.2-0.1,0.4-0.1,0.5-0.1c0.1,0,0.2,0,0.3,0.1c0.1,0,0.2,0.1,0.3,0.2c0.1,0.1,0.1,0.2,0.2,0.3
	c0,0.1,0.1,0.3,0.1,0.4C107.1,92.6,107.1,92.7,107.1,92.8"/>
<path class="st2" d="M112,89.7c0,0.1,0,0.2-0.1,0.3c-0.2-0.1-0.4-0.2-0.6-0.3c-0.2-0.1-0.4-0.1-0.6-0.1c-0.1,0-0.3,0-0.4,0.1
	c-0.1,0.1-0.2,0.1-0.3,0.2c-0.1,0.1-0.2,0.2-0.2,0.4c-0.1,0.1-0.1,0.3-0.1,0.5l-0.1,1h0.5c0.2,0,0.3,0,0.4,0c0.1,0,0.3,0,0.4,0
	c0,0.1,0,0.2,0,0.3c0,0.1-0.1,0.1-0.1,0.2c-0.1,0.1-0.2,0.1-0.3,0.1c-0.1,0-0.3,0-0.5,0h-0.5l-0.6,5.7c0,0.3-0.1,0.5-0.1,0.7
	c-0.1,0.2-0.2,0.3-0.2,0.5c-0.1,0.1-0.2,0.2-0.3,0.3c-0.1,0.1-0.2,0.1-0.4,0.1c-0.1,0-0.3,0-0.4-0.1c-0.1,0-0.2-0.1-0.3-0.2v-0.2
	c0.3-0.1,0.4-0.2,0.6-0.4c0.2-0.2,0.3-0.4,0.3-0.7l0.7-5.8h-0.6c0-0.1,0-0.2,0-0.2c0-0.1,0.1-0.1,0.1-0.2c0.1-0.1,0.1-0.1,0.2-0.1
	c0.1,0,0.2-0.1,0.3-0.1l0.1-0.9c0-0.3,0.1-0.5,0.2-0.8c0.1-0.2,0.3-0.4,0.4-0.6c0.2-0.2,0.4-0.3,0.6-0.4c0.2-0.1,0.5-0.1,0.7-0.1
	c0.3,0,0.5,0,0.6,0c0.2,0,0.3,0,0.3,0.1c0.1,0,0.1,0.1,0.2,0.1c0,0.1,0,0.1,0,0.2C112,89.5,112,89.6,112,89.7"/>
<path class="st2" d="M110.8,91.7c0.2-0.1,0.3-0.1,0.5-0.1c0.2,0,0.4,0,0.5,0c0.1,0,0.2,0,0.2,0c0.1,0,0.2,0,0.2,0.1l-0.3,1.6h0
	l0.6-1c0.1-0.2,0.3-0.4,0.4-0.5c0.2-0.1,0.3-0.2,0.5-0.2c0.1,0,0.2,0,0.3,0.1c0.1,0.1,0.1,0.2,0.1,0.3c0,0.1,0,0.2,0,0.3
	c0,0.1,0,0.2-0.1,0.3c-0.1,0-0.1,0-0.2,0c-0.1,0-0.1,0-0.2,0c-0.2,0-0.3,0.1-0.5,0.2c-0.2,0.1-0.3,0.3-0.4,0.5
	c-0.1,0.2-0.2,0.5-0.3,0.9c-0.1,0.4-0.1,0.8-0.2,1.3l-0.1,1.6h-0.9l0.5-4.7l-0.7-0.2V91.7z"/>
<path class="st2" d="M117.5,94.1c0,0.2-0.1,0.4-0.1,0.6c0,0.2,0,0.4-0.1,0.6c0,0.2,0,0.3,0,0.4c0,0.2,0,0.3,0,0.4
	c0,0.1,0.1,0.2,0.1,0.3c0,0.1,0.1,0.1,0.2,0.1c0.1,0,0.2,0.1,0.3,0.1v0.2c-0.1,0.1-0.3,0.1-0.5,0.1c-0.2,0-0.3,0-0.5,0
	c-0.1,0-0.2,0-0.2,0c-0.1,0-0.2,0-0.2-0.1l0.3-1.6h0c-0.1,0.3-0.2,0.5-0.4,0.7c-0.1,0.2-0.3,0.4-0.4,0.6c-0.1,0.2-0.3,0.3-0.4,0.4
	c-0.2,0.1-0.3,0.1-0.5,0.1c-0.1,0-0.3,0-0.4-0.1c-0.1-0.1-0.2-0.2-0.3-0.4c-0.1-0.2-0.2-0.4-0.2-0.6c-0.1-0.2-0.1-0.5-0.1-0.8
	c0-0.6,0.1-1.1,0.2-1.5c0.2-0.4,0.3-0.8,0.6-1.1c0.3-0.3,0.5-0.5,0.9-0.7c0.3-0.2,0.7-0.2,1.1-0.2c0.1,0,0.2,0,0.3,0
	c0.1,0,0.2,0,0.3,0c0.1,0,0.2,0,0.3,0.1c0.1,0,0.2,0,0.3,0.1l-0.4,1.9C117.5,93.8,117.5,93.9,117.5,94.1 M116.7,92.2
	c-0.1,0-0.2,0-0.3,0c-0.2,0-0.4,0.1-0.6,0.2c-0.2,0.1-0.4,0.3-0.5,0.5c-0.1,0.2-0.3,0.5-0.4,0.9c-0.1,0.3-0.1,0.8-0.1,1.2
	c0,0.2,0,0.4,0.1,0.6c0,0.2,0.1,0.3,0.1,0.4c0.1,0.1,0.1,0.2,0.2,0.2c0.1,0.1,0.1,0.1,0.2,0.1c0.1,0,0.2,0,0.4-0.1
	c0.1-0.1,0.3-0.2,0.4-0.4c0.1-0.2,0.2-0.4,0.3-0.7c0.1-0.3,0.2-0.6,0.3-1l0.3-1.8C116.9,92.2,116.8,92.2,116.7,92.2"/>
<path class="st2" d="M121.5,92.4c0,0.1-0.1,0.2-0.1,0.3c-0.2-0.2-0.4-0.3-0.6-0.4c-0.2-0.1-0.4-0.1-0.6-0.1c-0.3,0-0.4,0.1-0.6,0.2
	c-0.1,0.1-0.2,0.3-0.2,0.4c0,0.1,0,0.2,0,0.2c0,0.1,0.1,0.1,0.1,0.2c0.1,0.1,0.1,0.2,0.2,0.3c0.1,0.1,0.2,0.2,0.3,0.3l0.4,0.4
	c0.1,0.1,0.2,0.2,0.3,0.3c0.1,0.1,0.2,0.2,0.2,0.3c0.1,0.1,0.1,0.2,0.1,0.3c0,0.1,0,0.2,0,0.3c0,0.2,0,0.4-0.2,0.6
	c-0.1,0.2-0.2,0.4-0.4,0.5c-0.2,0.1-0.4,0.3-0.6,0.3c-0.2,0.1-0.5,0.1-0.8,0.1c-0.3,0-0.6-0.1-0.8-0.2c-0.2-0.1-0.2-0.3-0.2-0.5
	c0-0.1,0-0.2,0.1-0.3c0-0.1,0.1-0.1,0.1-0.2c0.2,0.2,0.3,0.3,0.5,0.3c0.2,0.1,0.4,0.1,0.6,0.1c0.1,0,0.3,0,0.4-0.1
	c0.1,0,0.2-0.1,0.3-0.2c0.1-0.1,0.2-0.1,0.2-0.2c0-0.1,0.1-0.2,0.1-0.3c0-0.1,0-0.2,0-0.3c0-0.1-0.1-0.2-0.1-0.2
	c-0.1-0.1-0.1-0.2-0.2-0.3c-0.1-0.1-0.2-0.2-0.3-0.3l-0.4-0.3c-0.1-0.1-0.2-0.2-0.3-0.3c-0.1-0.1-0.2-0.2-0.2-0.3
	c-0.1-0.1-0.1-0.2-0.1-0.3c0-0.1,0-0.2,0-0.3c0-0.2,0-0.4,0.1-0.5c0.1-0.2,0.2-0.3,0.3-0.5c0.2-0.1,0.3-0.2,0.5-0.3
	c0.2-0.1,0.4-0.1,0.7-0.1c0.4,0,0.7,0.1,0.9,0.2c0.2,0.1,0.3,0.3,0.3,0.4C121.6,92.2,121.6,92.3,121.5,92.4"/>
<path class="st2" d="M124.6,92.1c-0.1,0.1-0.4,0.2-0.7,0.2h-0.3l-0.2,1.1c0,0.1,0,0.3-0.1,0.4c0,0.2,0,0.3-0.1,0.5
	c0,0.2,0,0.3-0.1,0.5c0,0.2,0,0.3,0,0.4c0,0.2,0,0.3,0.1,0.5c0,0.1,0.1,0.2,0.2,0.3c0.1,0.1,0.2,0.2,0.3,0.2c0.1,0,0.2,0.1,0.3,0.1
	c0.1,0,0.2,0,0.2,0c0.1,0,0.1,0,0.2-0.1v0.2c0,0.1-0.1,0.1-0.1,0.2c-0.1,0.1-0.1,0.1-0.2,0.2c-0.1,0.1-0.2,0.1-0.3,0.1
	c-0.1,0-0.2,0-0.4,0c-0.4,0-0.6-0.1-0.8-0.3c-0.2-0.2-0.3-0.6-0.3-1c0-0.2,0-0.4,0-0.6c0-0.2,0-0.4,0.1-0.7c0-0.2,0.1-0.5,0.1-0.7
	c0-0.2,0.1-0.5,0.1-0.7l0.1-0.7c-0.1,0-0.2,0-0.3,0c-0.1,0-0.2,0-0.3,0v-0.1c0.2-0.3,0.4-0.5,0.7-0.7c0.3-0.2,0.5-0.4,0.8-0.6h0.2
	l-0.2,0.9h0.3c0.2,0,0.3,0,0.4,0c0.1,0,0.3,0,0.4-0.1C124.8,91.8,124.7,92,124.6,92.1"/>
<path class="st2" d="M125,91.7c0.2-0.1,0.3-0.1,0.5-0.1c0.2,0,0.4,0,0.5,0c0.1,0,0.2,0,0.2,0c0.1,0,0.2,0,0.2,0.1l-0.3,1.6h0l0.6-1
	c0.1-0.2,0.3-0.4,0.4-0.5c0.2-0.1,0.3-0.2,0.5-0.2c0.1,0,0.2,0,0.3,0.1c0.1,0.1,0.1,0.2,0.1,0.3c0,0.1,0,0.2,0,0.3
	c0,0.1,0,0.2-0.1,0.3c-0.1,0-0.1,0-0.2,0c-0.1,0-0.1,0-0.2,0c-0.2,0-0.3,0.1-0.5,0.2c-0.2,0.1-0.3,0.3-0.4,0.5
	c-0.1,0.2-0.3,0.5-0.3,0.9c-0.1,0.4-0.1,0.8-0.2,1.3l-0.1,1.6h-0.9l0.5-4.7l-0.7-0.2V91.7z"/>
<path class="st2" d="M128.7,92.1c-0.1-0.1-0.2-0.2-0.4-0.2v-0.2c0.1-0.1,0.3-0.1,0.4-0.1c0.1,0,0.3-0.1,0.5-0.1c0.2,0,0.3,0,0.4,0.1
	c0.1,0.1,0.1,0.2,0.1,0.4c0,0.1,0,0.2,0,0.3c0,0.1,0,0.3-0.1,0.4c0,0.2,0,0.3-0.1,0.5c0,0.2,0,0.3-0.1,0.5l-0.2,1.2
	c0,0.1,0,0.1,0,0.2c0,0.1,0,0.1,0,0.2c0,0.1,0,0.2,0,0.2c0,0.1,0,0.1,0,0.2c0,0.2,0,0.3,0.1,0.3c0.1,0.1,0.2,0.1,0.3,0.1
	c0.1,0,0.3-0.1,0.4-0.2c0.2-0.1,0.3-0.3,0.5-0.5c0.2-0.2,0.3-0.5,0.4-0.8c0.1-0.3,0.2-0.7,0.2-1.1l0.1-1.9c0.1-0.1,0.3-0.1,0.5-0.2
	c0.2,0,0.3-0.1,0.5-0.1l-0.3,1.7c0,0.2-0.1,0.4-0.1,0.6c0,0.2-0.1,0.4-0.1,0.6c0,0.2,0,0.4-0.1,0.6c0,0.2,0,0.4,0,0.5
	c0,0.2,0,0.3,0,0.4c0,0.1,0.1,0.2,0.1,0.3c0,0.1,0.1,0.1,0.2,0.1c0.1,0,0.1,0.1,0.2,0.1v0.2c-0.2,0.1-0.3,0.1-0.5,0.1
	c-0.2,0-0.3,0-0.5,0c-0.2,0-0.3,0-0.4-0.1l0.3-1.5h0c-0.1,0.2-0.2,0.4-0.4,0.6c-0.1,0.2-0.3,0.4-0.5,0.5c-0.2,0.2-0.3,0.3-0.5,0.4
	c-0.2,0.1-0.3,0.1-0.5,0.1c-0.1,0-0.2,0-0.3-0.1c-0.1-0.1-0.2-0.1-0.3-0.2c-0.1-0.1-0.1-0.2-0.2-0.3c0-0.1-0.1-0.3-0.1-0.4
	c0-0.1,0-0.1,0-0.2c0-0.1,0-0.1,0-0.2c0-0.1,0-0.1,0-0.2c0-0.1,0-0.1,0-0.2l0.3-1.3c0-0.1,0-0.2,0.1-0.3c0-0.1,0-0.2,0.1-0.3
	c0-0.1,0-0.2,0-0.4c0-0.1,0-0.2,0-0.3C128.8,92.4,128.7,92.2,128.7,92.1"/>
<path class="st2" d="M135.9,92.8c-0.1-0.2-0.3-0.4-0.4-0.5c-0.2-0.1-0.3-0.2-0.5-0.2c-0.1,0-0.3,0.1-0.4,0.2
	c-0.1,0.1-0.3,0.3-0.4,0.5c-0.1,0.2-0.2,0.5-0.3,0.9c-0.1,0.3-0.1,0.8-0.1,1.2c0,0.3,0,0.5,0.1,0.7c0,0.2,0.1,0.3,0.2,0.4
	c0.1,0.1,0.2,0.2,0.3,0.3c0.1,0.1,0.2,0.1,0.3,0.1c0.1,0,0.2,0,0.3-0.1c0.1,0,0.2-0.1,0.3-0.1c0.1-0.1,0.2-0.1,0.3-0.2
	c0.1-0.1,0.2-0.2,0.2-0.3c0,0,0.1,0.1,0.1,0.1c0,0.1,0,0.1,0,0.2c0,0.1,0,0.3-0.1,0.4c-0.1,0.1-0.2,0.2-0.3,0.3
	c-0.1,0.1-0.3,0.2-0.5,0.2c-0.2,0.1-0.4,0.1-0.6,0.1c-0.2,0-0.4,0-0.5-0.1c-0.2-0.1-0.3-0.2-0.4-0.4c-0.1-0.2-0.2-0.4-0.3-0.6
	c-0.1-0.2-0.1-0.5-0.1-0.9c0-0.6,0.1-1.1,0.2-1.6c0.1-0.5,0.3-0.8,0.5-1.1c0.2-0.3,0.5-0.5,0.7-0.7c0.3-0.1,0.6-0.2,0.8-0.2
	c0.3,0,0.6,0,0.7,0.2c0.2,0.1,0.2,0.2,0.2,0.4C136.1,92.3,136,92.6,135.9,92.8"/>
<path class="st2" d="M138.9,92.1c-0.1,0.1-0.4,0.2-0.7,0.2h-0.3l-0.2,1.1c0,0.1,0,0.3-0.1,0.4c0,0.2,0,0.3-0.1,0.5
	c0,0.2,0,0.3-0.1,0.5c0,0.2,0,0.3,0,0.4c0,0.2,0,0.3,0.1,0.5c0,0.1,0.1,0.2,0.2,0.3c0.1,0.1,0.2,0.2,0.3,0.2c0.1,0,0.2,0.1,0.3,0.1
	c0.1,0,0.2,0,0.2,0c0.1,0,0.1,0,0.2-0.1v0.2c0,0.1-0.1,0.1-0.1,0.2c-0.1,0.1-0.1,0.1-0.2,0.2c-0.1,0.1-0.2,0.1-0.3,0.1
	c-0.1,0-0.2,0-0.4,0c-0.4,0-0.6-0.1-0.8-0.3c-0.2-0.2-0.3-0.6-0.3-1c0-0.2,0-0.4,0-0.6c0-0.2,0-0.4,0.1-0.7c0-0.2,0.1-0.5,0.1-0.7
	c0-0.2,0.1-0.5,0.1-0.7l0.1-0.7c-0.1,0-0.2,0-0.3,0c-0.1,0-0.2,0-0.3,0v-0.1c0.2-0.3,0.4-0.5,0.7-0.7c0.3-0.2,0.5-0.4,0.8-0.6h0.2
	l-0.2,0.9h0.3c0.2,0,0.3,0,0.4,0c0.1,0,0.3,0,0.4-0.1C139.1,91.8,139,92,138.9,92.1"/>
<path class="st2" d="M139.8,92.1c-0.1-0.1-0.2-0.2-0.4-0.2v-0.2c0.1-0.1,0.3-0.1,0.4-0.1c0.1,0,0.3-0.1,0.5-0.1c0.2,0,0.3,0,0.4,0.1
	c0.1,0.1,0.1,0.2,0.1,0.4c0,0.1,0,0.2,0,0.3c0,0.1,0,0.3-0.1,0.4c0,0.2,0,0.3-0.1,0.5c0,0.2,0,0.3-0.1,0.5l-0.2,1.2
	c0,0.1,0,0.1,0,0.2c0,0.1,0,0.1,0,0.2c0,0.1,0,0.2,0,0.2c0,0.1,0,0.1,0,0.2c0,0.2,0,0.3,0.1,0.3c0.1,0.1,0.2,0.1,0.3,0.1
	c0.1,0,0.3-0.1,0.4-0.2c0.2-0.1,0.3-0.3,0.5-0.5c0.2-0.2,0.3-0.5,0.4-0.8c0.1-0.3,0.2-0.7,0.2-1.1l0.1-1.9c0.1-0.1,0.3-0.1,0.5-0.2
	c0.2,0,0.3-0.1,0.5-0.1l-0.3,1.7c0,0.2-0.1,0.4-0.1,0.6c0,0.2-0.1,0.4-0.1,0.6c0,0.2,0,0.4-0.1,0.6c0,0.2,0,0.4,0,0.5
	c0,0.2,0,0.3,0,0.4c0,0.1,0.1,0.2,0.1,0.3c0,0.1,0.1,0.1,0.2,0.1c0.1,0,0.1,0.1,0.2,0.1v0.2c-0.2,0.1-0.3,0.1-0.5,0.1
	c-0.2,0-0.3,0-0.5,0c-0.2,0-0.3,0-0.4-0.1l0.3-1.5h0c-0.1,0.2-0.2,0.4-0.4,0.6c-0.1,0.2-0.3,0.4-0.5,0.5c-0.2,0.2-0.3,0.3-0.5,0.4
	c-0.2,0.1-0.3,0.1-0.5,0.1c-0.1,0-0.2,0-0.3-0.1c-0.1-0.1-0.2-0.1-0.3-0.2c-0.1-0.1-0.1-0.2-0.2-0.3c0-0.1-0.1-0.3-0.1-0.4
	c0-0.1,0-0.1,0-0.2c0-0.1,0-0.1,0-0.2c0-0.1,0-0.1,0-0.2c0-0.1,0-0.1,0-0.2l0.3-1.3c0-0.1,0-0.2,0.1-0.3c0-0.1,0-0.2,0.1-0.3
	c0-0.1,0-0.2,0-0.4c0-0.1,0-0.2,0-0.3C139.9,92.4,139.9,92.2,139.8,92.1"/>
<path class="st2" d="M144.6,92.1c-0.1-0.1-0.2-0.2-0.4-0.2v-0.2c0.1-0.1,0.3-0.1,0.4-0.1c0.1,0,0.3-0.1,0.5-0.1s0.3,0,0.4,0.1
	c0.1,0.1,0.1,0.2,0.1,0.4c0,0.1,0,0.2,0,0.3c0,0.1,0,0.3-0.1,0.4c0,0.2,0,0.3-0.1,0.5c0,0.2,0,0.3-0.1,0.5l-0.2,1.2
	c0,0.1,0,0.1,0,0.2c0,0.1,0,0.1,0,0.2c0,0.1,0,0.2,0,0.2c0,0.1,0,0.1,0,0.2c0,0.2,0,0.3,0.1,0.3c0.1,0.1,0.2,0.1,0.3,0.1
	c0.1,0,0.3-0.1,0.4-0.2c0.2-0.1,0.3-0.3,0.5-0.5c0.2-0.2,0.3-0.5,0.4-0.8c0.1-0.3,0.2-0.7,0.2-1.1l0.1-1.9c0.1-0.1,0.3-0.1,0.5-0.2
	c0.2,0,0.3-0.1,0.5-0.1l-0.3,1.7c0,0.2-0.1,0.4-0.1,0.6c0,0.2-0.1,0.4-0.1,0.6c0,0.2,0,0.4-0.1,0.6c0,0.2,0,0.4,0,0.5
	c0,0.2,0,0.3,0,0.4c0,0.1,0.1,0.2,0.1,0.3c0,0.1,0.1,0.1,0.2,0.1c0.1,0,0.1,0.1,0.2,0.1v0.2c-0.2,0.1-0.3,0.1-0.5,0.1
	c-0.2,0-0.3,0-0.5,0c-0.2,0-0.3,0-0.4-0.1l0.3-1.5h0c-0.1,0.2-0.2,0.4-0.4,0.6c-0.1,0.2-0.3,0.4-0.5,0.5c-0.2,0.2-0.3,0.3-0.5,0.4
	c-0.2,0.1-0.3,0.1-0.5,0.1c-0.1,0-0.2,0-0.3-0.1c-0.1-0.1-0.2-0.1-0.3-0.2c-0.1-0.1-0.1-0.2-0.2-0.3c0-0.1-0.1-0.3-0.1-0.4
	c0-0.1,0-0.1,0-0.2c0-0.1,0-0.1,0-0.2c0-0.1,0-0.1,0-0.2c0-0.1,0-0.1,0-0.2l0.3-1.3c0-0.1,0-0.2,0.1-0.3c0-0.1,0-0.2,0.1-0.3
	c0-0.1,0-0.2,0-0.4c0-0.1,0-0.2,0-0.3C144.7,92.4,144.7,92.2,144.6,92.1"/>
<path class="st2" d="M148.8,91.7c0.2-0.1,0.3-0.1,0.5-0.1c0.2,0,0.4,0,0.5,0c0.1,0,0.2,0,0.2,0c0.1,0,0.2,0,0.2,0.1l-0.3,1.6h0
	l0.6-1c0.1-0.2,0.3-0.4,0.4-0.5c0.2-0.1,0.3-0.2,0.5-0.2c0.1,0,0.2,0,0.3,0.1c0.1,0.1,0.1,0.2,0.1,0.3c0,0.1,0,0.2,0,0.3
	c0,0.1,0,0.2-0.1,0.3c-0.1,0-0.1,0-0.2,0c-0.1,0-0.1,0-0.2,0c-0.2,0-0.3,0.1-0.5,0.2c-0.2,0.1-0.3,0.3-0.4,0.5
	c-0.1,0.2-0.3,0.5-0.3,0.9c-0.1,0.4-0.1,0.8-0.2,1.3l-0.1,1.6H149l0.5-4.7l-0.7-0.2V91.7z"/>
<path class="st2" d="M156.8,95.9c0,0,0,0.1,0,0.2c0,0.1,0,0.3-0.1,0.4c-0.1,0.1-0.2,0.2-0.3,0.3c-0.1,0.1-0.3,0.2-0.5,0.2
	c-0.2,0.1-0.4,0.1-0.6,0.1c-0.2,0-0.4,0-0.6-0.1c-0.2-0.1-0.3-0.2-0.5-0.3c-0.1-0.2-0.2-0.4-0.3-0.6c-0.1-0.2-0.1-0.5-0.1-0.8
	c0-0.6,0.1-1.1,0.2-1.6c0.1-0.5,0.3-0.8,0.5-1.1c0.2-0.3,0.5-0.5,0.7-0.7c0.3-0.1,0.5-0.2,0.8-0.2c0.4,0,0.7,0.1,0.9,0.3
	c0.2,0.2,0.3,0.5,0.3,0.8c0,0.3-0.1,0.6-0.2,0.9c-0.2,0.3-0.3,0.5-0.6,0.7c-0.3,0.2-0.5,0.3-0.8,0.4c-0.3,0.1-0.6,0.1-1,0.1
	c0,0.3,0,0.6,0.1,0.8c0,0.2,0.1,0.4,0.2,0.5c0.1,0.1,0.2,0.2,0.3,0.3c0.1,0,0.3,0.1,0.4,0.1c0.1,0,0.2,0,0.3,0
	c0.1,0,0.2-0.1,0.3-0.1c0.1-0.1,0.2-0.1,0.3-0.2C156.6,95.9,156.7,95.9,156.8,95.9C156.7,95.8,156.8,95.8,156.8,95.9 M156.1,92.3
	c-0.1-0.1-0.2-0.2-0.4-0.2c-0.1,0-0.3,0-0.4,0.2c-0.1,0.1-0.3,0.2-0.4,0.4c-0.1,0.2-0.2,0.4-0.3,0.7c-0.1,0.3-0.1,0.5-0.1,0.9
	c0.2,0,0.5,0,0.7-0.1c0.2-0.1,0.4-0.2,0.5-0.3c0.2-0.1,0.3-0.3,0.3-0.4c0.1-0.2,0.1-0.4,0.1-0.6C156.3,92.6,156.2,92.4,156.1,92.3"
	/>
<path class="st2" d="M161.7,92.8c0,0.1,0,0.2,0,0.4c0,0.1,0,0.2-0.1,0.4c0,0.1,0,0.2-0.1,0.4l-0.2,1.2c0,0.1,0,0.1,0,0.2
	c0,0.1,0,0.2,0,0.2c0,0.1,0,0.2,0,0.2c0,0.1,0,0.2,0,0.2c0,0.2,0,0.3,0.1,0.4c0.1,0.1,0.2,0.1,0.4,0.2v0.2c-0.1,0.1-0.3,0.1-0.4,0.2
	c-0.1,0-0.3,0.1-0.5,0.1c-0.2,0-0.3,0-0.4-0.1c-0.1-0.1-0.1-0.2-0.1-0.4c0-0.1,0-0.2,0-0.3c0-0.1,0-0.2,0-0.3c0-0.1,0-0.2,0-0.3
	c0-0.1,0-0.2,0-0.3l0.2-1.3c0-0.1,0-0.2,0-0.3c0-0.1,0-0.2,0-0.3c0-0.1,0-0.2,0-0.3c0-0.1,0-0.2,0-0.3c0-0.1,0-0.2,0-0.3
	c0-0.1-0.1-0.2-0.1-0.2c0,0-0.1-0.1-0.2-0.1c-0.1,0-0.1,0-0.2,0c-0.2,0-0.3,0.1-0.5,0.2c-0.2,0.1-0.3,0.3-0.5,0.6
	c-0.2,0.2-0.3,0.5-0.4,0.9c-0.1,0.3-0.2,0.7-0.2,1.1l-0.1,1.8h-0.9l0.5-4.7l-0.7-0.2v-0.2c0.2-0.1,0.3-0.1,0.5-0.1
	c0.2,0,0.4,0,0.6,0c0.1,0,0.1,0,0.2,0c0.1,0,0.2,0,0.2,0.1l-0.3,1.7h0c0.1-0.3,0.3-0.5,0.4-0.7c0.2-0.2,0.3-0.4,0.5-0.6
	c0.2-0.2,0.3-0.3,0.5-0.4c0.2-0.1,0.4-0.1,0.5-0.1c0.1,0,0.2,0,0.3,0.1c0.1,0,0.2,0.1,0.3,0.2c0.1,0.1,0.1,0.2,0.2,0.3
	c0,0.1,0.1,0.3,0.1,0.4C161.7,92.6,161.7,92.7,161.7,92.8"/>
<g>
	<path class="st2" d="M164.7,90.4l-0.6-0.2V90c0.3-0.1,0.6-0.2,0.9-0.2c0.3,0,0.6,0,0.9,0.1v0.2c-0.2,0.1-0.3,0.2-0.3,0.3l0.5,5.1h0
		l1.8-5.6l1-0.1l0.4,5.9h0l1.7-5.3l-0.6-0.2V90c0.3-0.1,0.7-0.2,1.1-0.2c0.2,0,0.4,0,0.6,0.1v0.2c-0.2,0.1-0.3,0.2-0.4,0.3l-2.3,6.5
		l-0.8,0l-0.5-6.2h0l-1.9,6.1l-0.7,0L164.7,90.4z"/>
	<path class="st2" d="M171.6,95.1c0-2.3,1.3-3.6,2.8-3.6c0.4,0,0.9,0.1,1.2,0.2l-0.4,1.9c-0.1,0.6-0.2,1.6-0.3,2.1
		c0,0.7,0.1,0.8,0.5,0.9v0.2c-0.3,0.1-0.6,0.2-1,0.2c-0.2,0-0.3,0-0.5-0.1l0.3-1.6h0c-0.4,1.1-1.1,1.8-1.7,1.8
		C172.1,97,171.6,96.3,171.6,95.1z M174.4,94l0.3-1.8c-0.2,0-0.4-0.1-0.6-0.1c-0.9,0-1.6,0.9-1.6,2.8c0,0.9,0.3,1.3,0.5,1.3
		C173.5,96.3,174.1,95.5,174.4,94z"/>
	<path class="st2" d="M176.9,93l0.1-0.7c-0.2,0-0.4,0-0.6,0v-0.1c0.4-0.5,0.9-1,1.5-1.3h0.2l-0.2,0.9h0.3c0.3,0,0.5,0,0.8-0.1
		c0,0.5-0.3,0.7-1,0.7h-0.3l-0.2,1.1c-0.1,0.5-0.2,1.4-0.2,1.9c0,0.7,0.4,1,0.8,1c0.2,0,0.3,0,0.4-0.1v0.2c-0.1,0.3-0.5,0.5-1,0.5
		c-0.7,0-1.1-0.5-1.1-1.3C176.5,95,176.7,93.8,176.9,93z"/>
	<path class="st2" d="M181.5,91.5c0.8,0,1.2,0.4,1.2,1.1c0,1.3-1.3,2.1-2.6,2.1c0,1.3,0.4,1.6,1,1.6c0.4,0,1-0.2,1.2-0.5
		c0,0,0.1,0.1,0.1,0.3c0,0.5-0.7,1-1.6,1c-0.9,0-1.6-0.6-1.6-1.9C179.2,92.7,180.4,91.5,181.5,91.5z M181.8,92.8
		c0-0.5-0.2-0.7-0.5-0.7c-0.5,0-1.2,0.8-1.2,2.1C181.1,94.2,181.8,93.7,181.8,92.8z"/>
	<path class="st2" d="M183.8,92.1l-0.7-0.2v-0.2c0.4-0.1,0.7-0.2,1.1-0.2c0.1,0,0.3,0,0.5,0.1l-0.3,1.6h0l0.6-1
		c0.3-0.5,0.6-0.7,0.9-0.7c0.2,0,0.4,0.2,0.4,0.4c0,0.2,0,0.4-0.1,0.6c-0.1,0-0.2,0-0.3,0c-0.7,0-1.4,0.8-1.5,2.8l-0.1,1.6h-0.9
		L183.8,92.1z"/>
	<path class="st2" d="M186,95.9c0.3,0.3,0.7,0.5,1.1,0.5c0.5,0,0.9-0.3,0.9-0.8c0-0.4-0.1-0.6-0.7-1.1l-0.4-0.4
		c-0.5-0.5-0.6-0.8-0.6-1.2c0-0.7,0.7-1.4,1.7-1.4c0.8,0,1.2,0.2,1.2,0.6c0,0.2-0.1,0.4-0.2,0.6c-0.3-0.3-0.8-0.5-1.2-0.5
		c-0.5,0-0.7,0.3-0.7,0.6c0,0.3,0.1,0.5,0.7,1l0.4,0.4c0.5,0.5,0.7,0.8,0.7,1.3c0,0.9-0.9,1.6-2,1.6c-0.7,0-1-0.2-1-0.6
		C185.8,96.2,185.9,96.1,186,95.9z"/>
	<path class="st2" d="M190.2,93l0.1-0.7c-0.2,0-0.4,0-0.6,0v-0.1c0.4-0.5,0.9-1,1.5-1.3h0.2l-0.2,0.9h0.3c0.3,0,0.5,0,0.8-0.1
		c0,0.5-0.3,0.7-1,0.7h-0.3l-0.2,1.1c-0.1,0.5-0.2,1.4-0.2,1.9c0,0.7,0.4,1,0.8,1c0.2,0,0.3,0,0.4-0.1v0.2c-0.1,0.3-0.5,0.5-1,0.5
		c-0.7,0-1.1-0.5-1.1-1.3C189.9,95,190,93.8,190.2,93z"/>
	<path class="st2" d="M192.5,95.1c0-2.3,1.3-3.6,2.8-3.6c0.4,0,0.9,0.1,1.2,0.2l-0.4,1.9c-0.1,0.6-0.2,1.6-0.3,2.1
		c0,0.7,0.1,0.8,0.5,0.9v0.2c-0.3,0.1-0.6,0.2-1,0.2c-0.2,0-0.3,0-0.5-0.1l0.3-1.6h0c-0.4,1.1-1.1,1.8-1.7,1.8
		C193,97,192.5,96.3,192.5,95.1z M195.2,94l0.3-1.8c-0.2,0-0.4-0.1-0.6-0.1c-0.9,0-1.6,0.9-1.6,2.8c0,0.9,0.3,1.3,0.5,1.3
		C194.3,96.3,195,95.5,195.2,94z"/>
	<path class="st2" d="M197.1,95.1c0-2.3,1.3-3.6,2.8-3.6c0.4,0,0.9,0.1,1.2,0.2l-0.4,1.9c-0.1,0.6-0.2,1.6-0.3,2.1
		c0,0.7,0.1,0.8,0.5,0.9v0.2c-0.3,0.1-0.6,0.2-1,0.2c-0.2,0-0.3,0-0.5-0.1l0.3-1.6h0c-0.4,1.1-1.1,1.8-1.7,1.8
		C197.6,97,197.1,96.3,197.1,95.1z M199.9,94l0.3-1.8c-0.2,0-0.4-0.1-0.6-0.1c-0.9,0-1.6,0.9-1.6,2.8c0,0.9,0.3,1.3,0.5,1.3
		C199,96.3,199.6,95.5,199.9,94z"/>
	<path class="st2" d="M202.4,93l0.1-0.7c-0.2,0-0.4,0-0.6,0v-0.1c0.4-0.5,0.9-1,1.5-1.3h0.2l-0.2,0.9h0.3c0.3,0,0.5,0,0.8-0.1
		c0,0.5-0.3,0.7-1,0.7h-0.3l-0.2,1.1c-0.1,0.5-0.2,1.4-0.2,1.9c0,0.7,0.4,1,0.8,1c0.2,0,0.3,0,0.4-0.1v0.2c-0.1,0.3-0.5,0.5-1,0.5
		c-0.7,0-1.1-0.5-1.1-1.3C202,95,202.2,93.8,202.4,93z"/>
</g>
</svg>
